<?xml version="1.0" encoding="UTF-8" standalone="no"?>
<!-- Created with Inkscape (http://www.inkscape.org/) -->

<svg
   xmlns:dc="http://purl.org/dc/elements/1.1/"
   xmlns:cc="http://creativecommons.org/ns#"
   xmlns:rdf="http://www.w3.org/1999/02/22-rdf-syntax-ns#"
   xmlns:svg="http://www.w3.org/2000/svg"
   xmlns="http://www.w3.org/2000/svg"
   xmlns:sodipodi="http://sodipodi.sourceforge.net/DTD/sodipodi-0.dtd"
   xmlns:inkscape="http://www.inkscape.org/namespaces/inkscape"
   version="1.1"
   id="svg4504"
   width="321.94205mm"
   height="252.45061mm"
   viewBox="0 0 1216.7889 954.14399"
   sodipodi:docname="Mask_Men_001.svg"
   inkscape:version="0.92.2 (5c3e80d, 2017-08-06)">
  <metadata
     id="metadata4510">
    <rdf:RDF>
      <cc:Work
         rdf:about="">
        <dc:format>image/svg+xml</dc:format>
        <dc:type
           rdf:resource="http://purl.org/dc/dcmitype/StillImage" />
        <dc:title></dc:title>
      </cc:Work>
    </rdf:RDF>
  </metadata>
  <defs
     id="defs4508" />
  <sodipodi:namedview
     pagecolor="#ffffff"
     bordercolor="#666666"
     borderopacity="1"
     objecttolerance="10"
     gridtolerance="10"
     guidetolerance="10"
     inkscape:pageopacity="0"
     inkscape:pageshadow="2"
     inkscape:window-width="2560"
     inkscape:window-height="1315"
     id="namedview4506"
     showgrid="false"
     inkscape:zoom="0.83691773"
     inkscape:cx="598.18203"
     inkscape:cy="495.87228"
     inkscape:window-x="-13"
     inkscape:window-y="-13"
     inkscape:window-maximized="1"
     inkscape:current-layer="svg4504"
     inkscape:document-units="mm"
     units="mm" />
  <path
     style="fill:none;stroke:#ff0000;stroke-width:0.37795275;stroke-linejoin:round;stroke-miterlimit:4;stroke-dasharray:none;stroke-opacity:1"
     d="m 190.60397,182.96004 c 0.31519,-0.2872 8.18975,-0.3261 17.50171,-0.0919 9.31194,0.23428 102.75962,2.46428 207.66197,4.95474 104.90231,2.49042 191.14796,4.73696 191.14796,4.73696 m 0.35791,194.08763 c 1.96858,31.75552 -7.79444,63.35294 -16.62773,87.12406 -12.99292,34.59372 -34.79705,78.77805 -48.27099,97.81708 -8.69336,12.28372 -42.98006,43.17583 -110.42178,99.48966 -10.735,8.96338 -20.7571,17.47292 -22.27191,18.91133 -1.51398,1.43678 -3.1886,2.809 -3.72054,3.04796 -0.53206,0.23891 -13.93899,11.07381 -29.79163,24.07425 -26.96213,22.11182 -51.56318,42.1067 -81.92688,66.58815 -7.04126,5.67706 -13.02768,10.19495 -13.30345,10.04005 -0.27646,-0.15327 -1.31675,-1.4119 -2.31702,-2.78618 l -0.002,0.003 c -1.00034,-1.37432 -8.21023,-11.5284 -16.02458,-22.55985 -48.73495,-68.79818 -81.15023,-117.38623 -90.43283,-135.55436 -5.63728,-11.03257 -19.4261,-56.98294 -32.27489,-107.55803 -4.97809,-19.58928 -8.34966,-28.65166 -17.18679,-46.18648 -2.66765,-5.29244 -2.30417,-4.77075 -4.2047,-7.71416"
     id="path5888"
     inkscape:connector-curvature="0"
     sodipodi:nodetypes="ccsccccccccccccccccc" />
  <path
     style="fill:none;stroke:#ff0000;stroke-width:0.37795275;stroke-linecap:butt;stroke-linejoin:round;stroke-miterlimit:4;stroke-dasharray:none;stroke-opacity:1"
     d="m 150.79271,236.83562 c 23.33149,6.11145 16.19674,30.55765 16.19674,30.55765"
     id="path6572"
     inkscape:connector-curvature="0" />
  <path
     style="fill:none;stroke:#ff0000;stroke-width:0.37795275;stroke-linecap:butt;stroke-linejoin:round;stroke-miterlimit:4;stroke-dasharray:none;stroke-opacity:1"
     d="m 99.927937,457.42441 c 12.937193,4.1367 18.568253,13.9598 18.568253,13.9598"
     id="path6612"
     inkscape:connector-curvature="0" />
  <path
     style="fill:none;stroke:#ff0000;stroke-width:0.37795275;stroke-linecap:butt;stroke-linejoin:round;stroke-miterlimit:4;stroke-dasharray:none;stroke-opacity:1"
     d="m 86.232488,394.44299 c 41.662752,12.83212 51.798572,-22.96588 51.798572,-22.96588"
     id="path6614"
     inkscape:connector-curvature="0" />
  <path
     style="fill:none;stroke:#ff0000;stroke-width:0.37795275;stroke-linecap:butt;stroke-linejoin:miter;stroke-miterlimit:4;stroke-dasharray:none;stroke-opacity:1"
     d="M 166.98945,267.39327 138.03106,371.47711"
     id="path7895"
     inkscape:connector-curvature="0" />
  <path
     style="fill:none;fill-opacity:1;stroke:#ff0000;stroke-width:0.37795275;stroke-linejoin:round;stroke-miterlimit:4;stroke-dasharray:none;stroke-opacity:1"
     d="M 501.17831,45.619796 H 149.86319 m 0,-45.43081962 h 372.22518"
     id="rect8917"
     inkscape:connector-curvature="0"
     sodipodi:nodetypes="cccc" />
  <path
     style="fill:none;fill-opacity:1;stroke:#ff0000;stroke-width:0.37795275;stroke-linejoin:round;stroke-miterlimit:4;stroke-dasharray:none;stroke-opacity:1"
     d="M 501.48577,104.5921 H 208.09139 m -30.17023,-43.655994 323.56461,-1.79229"
     id="rect8917-0"
     inkscape:connector-curvature="0"
     sodipodi:nodetypes="cccc" />
  <path
     style="fill:none;fill-opacity:1;stroke:#ff0000;stroke-width:0.37795275;stroke-linejoin:round;stroke-miterlimit:4;stroke-dasharray:none;stroke-opacity:1"
     d="m 208.6949,117.87385 362.07858,-0.84489 18.58767,45.44861 -380.66625,0.84489"
     id="rect8917-0-6"
     inkscape:connector-curvature="0"
     sodipodi:nodetypes="cccc" />
  <path
     style="fill:none;stroke:#ff0000;stroke-width:0.37795275;stroke-linecap:butt;stroke-linejoin:miter;stroke-miterlimit:4;stroke-dasharray:none;stroke-opacity:1"
     d="m 501.17831,45.619786 c 23.01503,5.79965 0.30747,13.52403 0.30747,13.52403"
     id="path8949"
     inkscape:connector-curvature="0" />
  <path
     style="fill:none;stroke:#ff0000;stroke-width:0.37795275;stroke-linecap:butt;stroke-linejoin:round;stroke-miterlimit:4;stroke-dasharray:none;stroke-opacity:1"
     d="M 522.08837,0.18897638 C 638.2755,60.243776 501.48578,104.5921 501.48578,104.5921"
     id="path8951"
     inkscape:connector-curvature="0"
     sodipodi:nodetypes="cc" />
  <path
     style="fill:none;stroke:#ff0000;stroke-width:0.37795275;stroke-linecap:butt;stroke-linejoin:miter;stroke-miterlimit:4;stroke-dasharray:none;stroke-opacity:1"
     d="m 208.09139,104.5921 c -35.47957,7.34287 0.60351,13.28175 0.60351,13.28175"
     id="path8953"
     inkscape:connector-curvature="0" />
  <path
     style="fill:none;stroke:#ff0000;stroke-width:0.37795275;stroke-linecap:butt;stroke-linejoin:miter;stroke-miterlimit:4;stroke-dasharray:none;stroke-opacity:1"
     d="M 177.92116,60.936106 C 54.995064,113.51604 208.6949,163.32246 208.6949,163.32246"
     id="path8955"
     inkscape:connector-curvature="0"
     sodipodi:nodetypes="cc" />
  <path
     style="fill:none;stroke:#ff0000;stroke-width:0.37795275;stroke-linecap:butt;stroke-linejoin:miter;stroke-miterlimit:4;stroke-dasharray:none;stroke-opacity:1"
     d="M 190.60397,182.96004 C -42.197589,72.789816 149.86319,45.619786 149.86319,45.619786"
     id="path8957"
     inkscape:connector-curvature="0" />
  <path
     style="fill:none;stroke:#ff0000;stroke-width:0.37795275;stroke-linecap:butt;stroke-linejoin:miter;stroke-miterlimit:4;stroke-dasharray:none;stroke-opacity:1"
     d="M 150.79271,236.83562 C -187.52424,30.825146 149.86319,0.18897638 149.86319,0.18897638"
     id="path8959"
     inkscape:connector-curvature="0" />
  <path
     style="fill:none;fill-opacity:1;stroke:#ff0000;stroke-width:0.37795275;stroke-linejoin:round;stroke-miterlimit:4;stroke-dasharray:none;stroke-opacity:1"
     d="M 69.084446,486.92357 V 658.5668 m -57.582525,0 V 486.92357"
     id="rect8964"
     inkscape:connector-curvature="0"
     sodipodi:nodetypes="cccc" />
  <path
     style="fill:none;fill-opacity:1;stroke:#ff0000;stroke-width:0.37795275;stroke-linejoin:round;stroke-miterlimit:4;stroke-dasharray:none;stroke-opacity:1"
     d="m 71.299945,673.52535 85.821615,148.6474 m -49.86793,28.79126 -85.82161,-148.6474"
     id="rect8964-2"
     inkscape:connector-curvature="0"
     sodipodi:nodetypes="cccc" />
  <path
     style="fill:none;fill-opacity:1;stroke:#ff0000;stroke-width:0.37795275;stroke-linejoin:round;stroke-miterlimit:4;stroke-dasharray:none;stroke-opacity:1"
     d="m 187.66232,827.85225 h 171.64324 m 0,57.58252 H 187.66232"
     id="rect8964-6"
     inkscape:connector-curvature="0"
     sodipodi:nodetypes="cccc" />
  <path
     style="fill:none;fill-opacity:1;stroke:#ff0000;stroke-width:0.37795275;stroke-linejoin:round;stroke-miterlimit:4;stroke-dasharray:none;stroke-opacity:1"
     d="M 419.32166,862.97264 536.84437,766.27955 M 503.7618,727.62097 386.23908,824.31406"
     id="rect8964-2-3"
     inkscape:connector-curvature="0"
     sodipodi:nodetypes="cccc" />
  <path
     style="fill:none;fill-opacity:1;stroke:#ff0000;stroke-width:0.37795275;stroke-linejoin:round;stroke-miterlimit:4;stroke-dasharray:none;stroke-opacity:1"
     d="m 551.70707,787.53374 -111.9303,99.25563 m 31.50832,39.6831 111.9303,-99.25563"
     id="rect8964-2-3-6"
     inkscape:connector-curvature="0"
     sodipodi:nodetypes="cccc" />
  <path
     style="fill:none;fill-opacity:1;stroke:#ff0000;stroke-width:0.37795275;stroke-linejoin:round;stroke-miterlimit:4;stroke-dasharray:none;stroke-opacity:1"
     d="M 414.41693,953.3241 72.295952,953.92153 45.41159,895.85695 h 369.00534"
     id="rect8964-6-4"
     inkscape:connector-curvature="0"
     sodipodi:nodetypes="cccc" />
  <path
     style="fill:none;stroke:#ff0000;stroke-width:0.37795275;stroke-linecap:butt;stroke-linejoin:miter;stroke-miterlimit:4;stroke-dasharray:none;stroke-opacity:1"
     d="M 86.232488,394.44299 C 19.686007,344.0696 11.501921,486.92357 11.501921,486.92357"
     id="path9041"
     inkscape:connector-curvature="0" />
  <path
     style="fill:none;stroke:#ff0000;stroke-width:0.37795275;stroke-linecap:butt;stroke-linejoin:miter;stroke-miterlimit:4;stroke-dasharray:none;stroke-opacity:1"
     d="M 99.927937,457.42441 C 59.396025,428.34777 69.084446,486.92357 69.084446,486.92357"
     id="path9043"
     inkscape:connector-curvature="0" />
  <path
     style="fill:none;stroke:#ff0000;stroke-width:0.37795275;stroke-linecap:butt;stroke-linejoin:miter;stroke-miterlimit:4;stroke-dasharray:none;stroke-opacity:1"
     d="m 69.084446,658.56679 c -3.562939,8.67477 2.215493,14.95857 2.215493,14.95857"
     id="path9045"
     inkscape:connector-curvature="0" />
  <path
     style="fill:none;stroke:#ff0000;stroke-width:0.37795275;stroke-linecap:butt;stroke-linejoin:miter;stroke-miterlimit:4;stroke-dasharray:none;stroke-opacity:1"
     d="m 11.501921,658.56679 c -1.7434198,24.51653 9.930093,43.74983 9.930093,43.74983"
     id="path9047"
     inkscape:connector-curvature="0" />
  <path
     style="fill:none;stroke:#ff0000;stroke-width:0.37795275;stroke-linecap:butt;stroke-linejoin:miter;stroke-miterlimit:4;stroke-dasharray:none;stroke-opacity:1"
     d="m 157.12156,822.17276 c 9.36478,8.97823 30.54076,5.67948 30.54076,5.67948"
     id="path9049"
     inkscape:connector-curvature="0" />
  <path
     style="fill:none;stroke:#ff0000;stroke-width:0.37795275;stroke-linecap:butt;stroke-linejoin:miter;stroke-miterlimit:4;stroke-dasharray:none;stroke-opacity:1"
     d="m 107.25364,850.96402 c 28.81652,24.5439 80.40868,34.47075 80.40868,34.47075"
     id="path9051"
     inkscape:connector-curvature="0" />
  <path
     style="fill:none;stroke:#ff0000;stroke-width:0.37795275;stroke-linecap:butt;stroke-linejoin:miter;stroke-miterlimit:4;stroke-dasharray:none;stroke-opacity:1"
     d="m 359.30555,827.85224 c 13.33492,2.8763 26.93353,-3.53819 26.93353,-3.53819"
     id="path9053"
     inkscape:connector-curvature="0" />
  <path
     style="fill:none;stroke:#ff0000;stroke-width:0.37795275;stroke-linecap:butt;stroke-linejoin:miter;stroke-miterlimit:4;stroke-dasharray:none;stroke-opacity:1"
     d="m 359.30555,885.43477 c 34.45727,-1.47791 60.01611,-22.46214 60.01611,-22.46214"
     id="path9055"
     inkscape:connector-curvature="0" />
  <path
     style="fill:none;stroke:#ff0000;stroke-width:0.37795275;stroke-linecap:butt;stroke-linejoin:miter;stroke-miterlimit:4;stroke-dasharray:none;stroke-opacity:1"
     d="m 536.84437,766.27956 c 27.58704,-5.67721 14.86271,21.25419 14.86271,21.25419"
     id="path9057"
     inkscape:connector-curvature="0" />
  <path
     style="fill:none;stroke:#ff0000;stroke-width:0.37795275;stroke-linecap:butt;stroke-linejoin:miter;stroke-miterlimit:4;stroke-dasharray:none;stroke-opacity:1"
     d="m 503.76179,727.62098 c 150.65084,-35.0326 79.4536,99.59586 79.4536,99.59586"
     id="path9059"
     inkscape:connector-curvature="0" />
  <path
     style="fill:none;stroke:#ff0000;stroke-width:0.37795275;stroke-linecap:butt;stroke-linejoin:miter;stroke-miterlimit:4;stroke-dasharray:none;stroke-opacity:1"
     d="m 439.77678,886.78938 c -9.04985,8.996 -25.35985,9.06757 -25.35985,9.06757"
     id="path9061"
     inkscape:connector-curvature="0" />
  <path
     style="fill:none;stroke:#ff0000;stroke-width:0.37795275;stroke-linecap:butt;stroke-linejoin:miter;stroke-miterlimit:4;stroke-dasharray:none;stroke-opacity:1"
     d="m 471.28509,926.47247 c -17.74602,23.1749 -56.86816,26.85164 -56.86816,26.85164"
     id="path9063"
     inkscape:connector-curvature="0" />
  <path
     style="fill:none;stroke:#ff0000;stroke-width:0.37795275;stroke-linejoin:round;stroke-miterlimit:4;stroke-dasharray:none;stroke-opacity:1"
     d="m 1026.1848,182.99362 c -0.3152,-0.2872 -8.1897,-0.3261 -17.5017,-0.0919 -9.3119,0.23428 -102.7596,2.46428 -207.662,4.95474 -104.9023,2.49042 -191.1479,4.73696 -191.1479,4.73696 m -0.3579,194.08761 c -1.9686,31.75552 7.7944,63.35293 16.6277,87.12403 12.9929,34.5937 34.7971,78.7781 48.271,97.8171 8.6934,12.2837 42.9801,43.1758 110.4218,99.4897 10.735,8.9633 20.7571,17.4729 22.2719,18.9113 1.514,1.4368 3.1886,2.809 3.7205,3.0479 0.5321,0.239 13.939,11.0739 29.7917,24.0743 26.9621,22.1118 51.5631,42.1067 81.9268,66.5881 7.0413,5.6771 13.0277,10.195 13.3035,10.0401 0.2764,-0.1533 1.3167,-1.4119 2.317,-2.7862 v 0 c 1.0003,-1.3743 8.2102,-11.5284 16.0246,-22.5598 48.7349,-68.7982 81.1502,-117.3863 90.4328,-135.5544 5.6373,-11.0326 19.4261,-56.9829 32.2749,-107.558 4.9781,-19.5893 8.3497,-28.6517 17.1868,-46.1865 2.6676,-5.2924 2.3042,-4.7707 4.2047,-7.7142"
     id="path5888-6"
     inkscape:connector-curvature="0"
     sodipodi:nodetypes="ccsccccccccccccccccc" />
  <path
     inkscape:connector-curvature="0"
     style="fill:none;stroke:#ff0000;stroke-width:0.37795275;stroke-linecap:butt;stroke-linejoin:round;stroke-miterlimit:4;stroke-dasharray:none;stroke-opacity:1"
     d="m 1065.9961,236.86919 c -23.3315,6.11145 -16.1968,30.55765 -16.1968,30.55765"
     id="path6572-1" />
  <path
     inkscape:connector-curvature="0"
     style="fill:none;stroke:#ff0000;stroke-width:0.37795275;stroke-linecap:butt;stroke-linejoin:round;stroke-miterlimit:4;stroke-dasharray:none;stroke-opacity:1"
     d="m 1116.8609,457.45796 c -12.9372,4.1367 -18.5683,13.9598 -18.5683,13.9598"
     id="path6612-1" />
  <path
     inkscape:connector-curvature="0"
     style="fill:none;stroke:#ff0000;stroke-width:0.37795275;stroke-linecap:butt;stroke-linejoin:round;stroke-miterlimit:4;stroke-dasharray:none;stroke-opacity:1"
     d="m 1130.5563,394.47655 c -41.6628,12.83212 -51.7986,-22.96588 -51.7986,-22.96588"
     id="path6614-3" />
  <path
     inkscape:connector-curvature="0"
     style="fill:none;stroke:#ff0000;stroke-width:0.37795275;stroke-linecap:butt;stroke-linejoin:miter;stroke-miterlimit:4;stroke-dasharray:none;stroke-opacity:1"
     d="m 1049.7993,267.42684 28.9584,104.08383"
     id="path7895-9" />
  <path
     style="fill:none;fill-opacity:1;stroke:#ff0000;stroke-width:0.37795275;stroke-linejoin:round;stroke-miterlimit:4;stroke-dasharray:none;stroke-opacity:1"
     d="m 715.6105,45.653356 h 351.3151 m 0,-45.43080962 H 694.7004"
     id="rect8917-8"
     inkscape:connector-curvature="0"
     sodipodi:nodetypes="cccc" />
  <path
     style="fill:none;fill-opacity:1;stroke:#ff0000;stroke-width:0.37795275;stroke-linejoin:round;stroke-miterlimit:4;stroke-dasharray:none;stroke-opacity:1"
     d="m 715.303,104.62568 h 293.3944 m 30.1702,-43.656014 -323.5646,-1.79229"
     id="rect8917-0-4"
     inkscape:connector-curvature="0"
     sodipodi:nodetypes="cccc" />
  <path
     style="fill:none;fill-opacity:1;stroke:#ff0000;stroke-width:0.37795275;stroke-linejoin:round;stroke-miterlimit:4;stroke-dasharray:none;stroke-opacity:1"
     d="m 1008.0939,117.90743 -362.0786,-0.84489 -18.5877,45.44861 380.6663,0.84489"
     id="rect8917-0-6-5"
     inkscape:connector-curvature="0"
     sodipodi:nodetypes="cccc" />
  <path
     style="fill:none;stroke:#ff0000;stroke-width:0.37795275;stroke-linecap:butt;stroke-linejoin:miter;stroke-miterlimit:4;stroke-dasharray:none;stroke-opacity:1"
     d="m 715.6105,45.653346 c -23.015,5.79965 -0.3075,13.52403 -0.3075,13.52403"
     id="path8949-8"
     inkscape:connector-curvature="0" />
  <path
     style="fill:none;stroke:#ff0000;stroke-width:0.37795275;stroke-linecap:butt;stroke-linejoin:round;stroke-miterlimit:4;stroke-dasharray:none;stroke-opacity:1"
     d="M 694.7004,0.22254638 C 578.5133,60.277336 715.303,104.62568 715.303,104.62568"
     id="path8951-4"
     inkscape:connector-curvature="0"
     sodipodi:nodetypes="cc" />
  <path
     style="fill:none;stroke:#ff0000;stroke-width:0.37795275;stroke-linecap:butt;stroke-linejoin:miter;stroke-miterlimit:4;stroke-dasharray:none;stroke-opacity:1"
     d="m 1008.6974,104.62568 c 35.4796,7.34287 -0.6035,13.28175 -0.6035,13.28175"
     id="path8953-1"
     inkscape:connector-curvature="0" />
  <path
     style="fill:none;stroke:#ff0000;stroke-width:0.37795275;stroke-linecap:butt;stroke-linejoin:miter;stroke-miterlimit:4;stroke-dasharray:none;stroke-opacity:1"
     d="m 1038.8676,60.969666 c 122.9261,52.579954 -30.7737,102.386374 -30.7737,102.386374"
     id="path8955-8"
     inkscape:connector-curvature="0"
     sodipodi:nodetypes="cc" />
  <path
     style="fill:none;stroke:#ff0000;stroke-width:0.37795275;stroke-linecap:butt;stroke-linejoin:miter;stroke-miterlimit:4;stroke-dasharray:none;stroke-opacity:1"
     d="M 1026.1848,182.99362 C 1258.9864,72.823376 1066.9256,45.653346 1066.9256,45.653346"
     id="path8957-7"
     inkscape:connector-curvature="0" />
  <path
     style="fill:none;stroke:#ff0000;stroke-width:0.37795275;stroke-linecap:butt;stroke-linejoin:miter;stroke-miterlimit:4;stroke-dasharray:none;stroke-opacity:1"
     d="M 1065.9961,236.86919 C 1404.313,30.858706 1066.9256,0.22254638 1066.9256,0.22254638"
     id="path8959-4"
     inkscape:connector-curvature="0" />
  <path
     style="fill:none;fill-opacity:1;stroke:#ff0000;stroke-width:0.37795275;stroke-linejoin:round;stroke-miterlimit:4;stroke-dasharray:none;stroke-opacity:1"
     d="m 1147.7043,486.95716 v 171.6432 m 57.5826,0 v -171.6432"
     id="rect8964-8"
     inkscape:connector-curvature="0"
     sodipodi:nodetypes="cccc" />
  <path
     style="fill:none;fill-opacity:1;stroke:#ff0000;stroke-width:0.37795275;stroke-linejoin:round;stroke-miterlimit:4;stroke-dasharray:none;stroke-opacity:1"
     d="m 1145.4888,673.55886 -85.8216,148.6474 m 49.868,28.7913 85.8216,-148.6474"
     id="rect8964-2-8"
     inkscape:connector-curvature="0"
     sodipodi:nodetypes="cccc" />
  <path
     style="fill:none;fill-opacity:1;stroke:#ff0000;stroke-width:0.37795275;stroke-linejoin:round;stroke-miterlimit:4;stroke-dasharray:none;stroke-opacity:1"
     d="M 1029.1265,827.88576 H 857.4832 m 0,57.5826 h 171.6433"
     id="rect8964-6-5"
     inkscape:connector-curvature="0"
     sodipodi:nodetypes="cccc" />
  <path
     style="fill:none;fill-opacity:1;stroke:#ff0000;stroke-width:0.37795275;stroke-linejoin:round;stroke-miterlimit:4;stroke-dasharray:none;stroke-opacity:1"
     d="m 797.4671,863.00616 -117.5227,-96.6931 m 33.0826,-38.6585 117.5227,96.6931"
     id="rect8964-2-3-4"
     inkscape:connector-curvature="0"
     sodipodi:nodetypes="cccc" />
  <path
     style="fill:none;fill-opacity:1;stroke:#ff0000;stroke-width:0.37795275;stroke-linejoin:round;stroke-miterlimit:4;stroke-dasharray:none;stroke-opacity:1"
     d="m 665.0817,787.56726 111.9303,99.2557 m -31.5083,39.6831 -111.9303,-99.2557"
     id="rect8964-2-3-6-8"
     inkscape:connector-curvature="0"
     sodipodi:nodetypes="cccc" />
  <path
     style="fill:none;fill-opacity:1;stroke:#ff0000;stroke-width:0.37795275;stroke-linejoin:round;stroke-miterlimit:4;stroke-dasharray:none;stroke-opacity:1"
     d="m 802.3719,953.35766 342.1209,0.5974 26.8844,-58.0646 H 802.3719"
     id="rect8964-6-4-5"
     inkscape:connector-curvature="0"
     sodipodi:nodetypes="cccc" />
  <path
     style="fill:none;stroke:#ff0000;stroke-width:0.37795275;stroke-linecap:butt;stroke-linejoin:miter;stroke-miterlimit:4;stroke-dasharray:none;stroke-opacity:1"
     d="m 1130.5563,394.47655 c 66.5465,-50.37339 74.7306,92.48061 74.7306,92.48061"
     id="path9041-6"
     inkscape:connector-curvature="0" />
  <path
     style="fill:none;stroke:#ff0000;stroke-width:0.37795275;stroke-linecap:butt;stroke-linejoin:miter;stroke-miterlimit:4;stroke-dasharray:none;stroke-opacity:1"
     d="m 1116.8609,457.45796 c 40.5319,-29.0766 30.8434,29.4992 30.8434,29.4992"
     id="path9043-1"
     inkscape:connector-curvature="0" />
  <path
     style="fill:none;stroke:#ff0000;stroke-width:0.37795275;stroke-linecap:butt;stroke-linejoin:miter;stroke-miterlimit:4;stroke-dasharray:none;stroke-opacity:1"
     d="m 1147.7043,658.60036 c 3.563,8.6747 -2.2155,14.9585 -2.2155,14.9585"
     id="path9045-7"
     inkscape:connector-curvature="0" />
  <path
     style="fill:none;stroke:#ff0000;stroke-width:0.37795275;stroke-linecap:butt;stroke-linejoin:miter;stroke-miterlimit:4;stroke-dasharray:none;stroke-opacity:1"
     d="m 1205.2869,658.60036 c 1.7434,24.5165 -9.9301,43.7498 -9.9301,43.7498"
     id="path9047-7"
     inkscape:connector-curvature="0" />
  <path
     style="fill:none;stroke:#ff0000;stroke-width:0.37795275;stroke-linecap:butt;stroke-linejoin:miter;stroke-miterlimit:4;stroke-dasharray:none;stroke-opacity:1"
     d="m 1059.6672,822.20626 c -9.3648,8.9783 -30.5407,5.6795 -30.5407,5.6795"
     id="path9049-5"
     inkscape:connector-curvature="0" />
  <path
     style="fill:none;stroke:#ff0000;stroke-width:0.37795275;stroke-linecap:butt;stroke-linejoin:miter;stroke-miterlimit:4;stroke-dasharray:none;stroke-opacity:1"
     d="m 1109.5351,850.99756 c -28.8165,24.5439 -80.4086,34.4708 -80.4086,34.4708"
     id="path9051-2"
     inkscape:connector-curvature="0" />
  <path
     style="fill:none;stroke:#ff0000;stroke-width:0.37795275;stroke-linecap:butt;stroke-linejoin:miter;stroke-miterlimit:4;stroke-dasharray:none;stroke-opacity:1"
     d="m 857.4832,827.88576 c -13.3349,2.8763 -26.9335,-3.5382 -26.9335,-3.5382"
     id="path9053-2"
     inkscape:connector-curvature="0" />
  <path
     style="fill:none;stroke:#ff0000;stroke-width:0.37795275;stroke-linecap:butt;stroke-linejoin:miter;stroke-miterlimit:4;stroke-dasharray:none;stroke-opacity:1"
     d="m 857.4832,885.46836 c -34.4572,-1.478 -60.0161,-22.4622 -60.0161,-22.4622"
     id="path9055-6"
     inkscape:connector-curvature="0" />
  <path
     style="fill:none;stroke:#ff0000;stroke-width:0.37795275;stroke-linecap:butt;stroke-linejoin:miter;stroke-miterlimit:4;stroke-dasharray:none;stroke-opacity:1"
     d="m 679.9444,766.31306 c -27.587,-5.6772 -14.8627,21.2542 -14.8627,21.2542"
     id="path9057-1"
     inkscape:connector-curvature="0" />
  <path
     style="fill:none;stroke:#ff0000;stroke-width:0.37795275;stroke-linecap:butt;stroke-linejoin:miter;stroke-miterlimit:4;stroke-dasharray:none;stroke-opacity:1"
     d="m 713.027,727.65456 c -150.6508,-35.0326 -79.4536,99.5958 -79.4536,99.5958"
     id="path9059-1"
     inkscape:connector-curvature="0" />
  <path
     style="fill:none;stroke:#ff0000;stroke-width:0.37795275;stroke-linecap:butt;stroke-linejoin:miter;stroke-miterlimit:4;stroke-dasharray:none;stroke-opacity:1"
     d="m 777.012,886.82296 c 9.0499,8.996 25.3599,9.0675 25.3599,9.0675"
     id="path9061-2"
     inkscape:connector-curvature="0" />
  <path
     style="fill:none;stroke:#ff0000;stroke-width:0.37795275;stroke-linecap:butt;stroke-linejoin:miter;stroke-miterlimit:4;stroke-dasharray:none;stroke-opacity:1"
     d="m 745.5037,926.50606 c 17.746,23.1749 56.8682,26.8516 56.8682,26.8516"
     id="path9063-5"
     inkscape:connector-curvature="0" />
  <path
     style="fill:none;stroke:#ff0000;stroke-width:0.37795275;stroke-linecap:butt;stroke-linejoin:miter;stroke-miterlimit:4;stroke-dasharray:none;stroke-opacity:1"
     d="m 606.91561,192.55984 2.95759,0.0336"
     id="path9179"
     inkscape:connector-curvature="0" />
  <path
     style="fill:none;stroke:#ff0000;stroke-width:0.37795275;stroke-linecap:butt;stroke-linejoin:miter;stroke-miterlimit:4;stroke-dasharray:none;stroke-opacity:1"
     d="m 607.27352,386.64747 c 0.53304,-12.37939 2.24178,0.0336 2.24178,0.0336"
     id="path9181"
     inkscape:connector-curvature="0" />
</svg>
