<?xml version="1.0" encoding="UTF-8" standalone="no"?>
<!-- Created with Inkscape (http://www.inkscape.org/) -->

<svg
   xmlns:dc="http://purl.org/dc/elements/1.1/"
   xmlns:cc="http://creativecommons.org/ns#"
   xmlns:rdf="http://www.w3.org/1999/02/22-rdf-syntax-ns#"
   xmlns:svg="http://www.w3.org/2000/svg"
   xmlns="http://www.w3.org/2000/svg"
   xmlns:sodipodi="http://sodipodi.sourceforge.net/DTD/sodipodi-0.dtd"
   xmlns:inkscape="http://www.inkscape.org/namespaces/inkscape"
   version="1.1"
   id="svg4504"
   width="255.05348mm"
   height="200mm"
   viewBox="0 0 963.98175 755.90548"
   sodipodi:docname="Mask_200_001.svg"
   inkscape:version="0.92.2 (5c3e80d, 2017-08-06)">
  <metadata
     id="metadata4510">
    <rdf:RDF>
      <cc:Work
         rdf:about="">
        <dc:format>image/svg+xml</dc:format>
        <dc:type
           rdf:resource="http://purl.org/dc/dcmitype/StillImage" />
        <dc:title></dc:title>
      </cc:Work>
    </rdf:RDF>
  </metadata>
  <defs
     id="defs4508" />
  <sodipodi:namedview
     pagecolor="#ffffff"
     bordercolor="#666666"
     borderopacity="1"
     objecttolerance="10"
     gridtolerance="10"
     guidetolerance="10"
     inkscape:pageopacity="0"
     inkscape:pageshadow="2"
     inkscape:window-width="2560"
     inkscape:window-height="1315"
     id="namedview4506"
     showgrid="false"
     inkscape:zoom="1.1835804"
     inkscape:cx="802.93465"
     inkscape:cy="551.1576"
     inkscape:window-x="-13"
     inkscape:window-y="-13"
     inkscape:window-maximized="1"
     inkscape:current-layer="svg4504"
     inkscape:document-units="mm"
     units="mm" />
  <path
     style="fill:none;stroke:#ff0000;stroke-width:0.29942709;stroke-linejoin:round;stroke-miterlimit:4;stroke-dasharray:none;stroke-opacity:1"
     d="m 151.00299,144.94721 c 0.2497,-0.22753 6.4882,-0.25835 13.86545,-0.0728 7.37724,0.18561 81.40969,1.95229 164.51692,3.92532 83.1072,1.97299 151.43396,3.75278 151.43396,3.75278"
     id="path9868"
     inkscape:connector-curvature="0"
     sodipodi:nodetypes="ccsc" />
  <path
     style="fill:none;stroke:#ff0000;stroke-width:0.29942709;stroke-linecap:butt;stroke-linejoin:round;stroke-miterlimit:4;stroke-dasharray:none;stroke-opacity:1"
     d="m 119.46314,187.62929 c 18.48401,4.84169 12.83161,24.20881 12.83161,24.20881"
     id="path6572"
     inkscape:connector-curvature="0" />
  <path
     style="fill:none;stroke:#ff0000;stroke-width:0.29942709;stroke-linecap:butt;stroke-linejoin:round;stroke-miterlimit:4;stroke-dasharray:none;stroke-opacity:1"
     d="m 68.316333,312.49124 c 33.006647,10.16604 41.036597,-18.19436 41.036597,-18.19436"
     id="path6614"
     inkscape:connector-curvature="0" />
  <path
     style="fill:none;stroke:#ff0000;stroke-width:0.29942709;stroke-linecap:butt;stroke-linejoin:miter;stroke-miterlimit:4;stroke-dasharray:none;stroke-opacity:1"
     d="m 132.29475,211.8381 -22.94182,82.45878"
     id="path7895"
     inkscape:connector-curvature="0" />
  <path
     style="fill:none;fill-opacity:1;stroke:#ff0000;stroke-width:0.29942709;stroke-linejoin:round;stroke-miterlimit:4;stroke-dasharray:none;stroke-opacity:1"
     d="M 397.05061,36.141567 H 118.72674 m 0,-35.99185345 h 294.88953"
     id="rect8917"
     inkscape:connector-curvature="0"
     sodipodi:nodetypes="cccc" />
  <path
     style="fill:none;fill-opacity:1;stroke:#ff0000;stroke-width:0.29942709;stroke-linejoin:round;stroke-miterlimit:4;stroke-dasharray:none;stroke-opacity:1"
     d="M 397.29419,82.861447 H 164.85712 m -23.90189,-34.58578 256.33896,-1.41991"
     id="rect8917-0"
     inkscape:connector-curvature="0"
     sodipodi:nodetypes="cccc" />
  <path
     style="fill:none;fill-opacity:1;stroke:#ff0000;stroke-width:0.29942709;stroke-linejoin:round;stroke-miterlimit:4;stroke-dasharray:none;stroke-opacity:1"
     d="m 165.33525,93.383697 286.85103,-0.66934 14.72579,36.005943 -301.57682,0.66935"
     id="rect8917-0-6"
     inkscape:connector-curvature="0"
     sodipodi:nodetypes="cccc" />
  <path
     style="fill:none;stroke:#ff0000;stroke-width:0.29942709;stroke-linecap:butt;stroke-linejoin:miter;stroke-miterlimit:4;stroke-dasharray:none;stroke-opacity:1"
     d="m 397.05061,36.141557 c 18.23329,4.59467 0.24359,10.7142 0.24359,10.7142"
     id="path8949"
     inkscape:connector-curvature="0" />
  <path
     style="fill:none;stroke:#ff0000;stroke-width:0.29942709;stroke-linecap:butt;stroke-linejoin:round;stroke-miterlimit:4;stroke-dasharray:none;stroke-opacity:1"
     d="M 413.61627,0.14971355 C 505.66369,47.727187 397.2942,82.861447 397.2942,82.861447"
     id="path8951"
     inkscape:connector-curvature="0"
     sodipodi:nodetypes="cc" />
  <path
     style="fill:none;stroke:#ff0000;stroke-width:0.29942709;stroke-linecap:butt;stroke-linejoin:miter;stroke-miterlimit:4;stroke-dasharray:none;stroke-opacity:1"
     d="m 164.85712,82.861447 c -28.10813,5.81727 0.47813,10.52225 0.47813,10.52225"
     id="path8953"
     inkscape:connector-curvature="0" />
  <path
     style="fill:none;stroke:#ff0000;stroke-width:0.29942709;stroke-linecap:butt;stroke-linejoin:miter;stroke-miterlimit:4;stroke-dasharray:none;stroke-opacity:1"
     d="m 140.95523,48.275667 c -97.386254,41.65563 24.38002,81.113983 24.38002,81.113983"
     id="path8955"
     inkscape:connector-curvature="0"
     sodipodi:nodetypes="cc" />
  <path
     style="fill:none;stroke:#ff0000;stroke-width:0.29942709;stroke-linecap:butt;stroke-linejoin:miter;stroke-miterlimit:4;stroke-dasharray:none;stroke-opacity:1"
     d="M 151.00299,144.94721 C -33.43037,57.666577 118.72674,36.141557 118.72674,36.141557"
     id="path8957"
     inkscape:connector-curvature="0" />
  <path
     style="fill:none;stroke:#ff0000;stroke-width:0.29942709;stroke-linecap:butt;stroke-linejoin:miter;stroke-miterlimit:4;stroke-dasharray:none;stroke-opacity:1"
     d="M 119.46314,187.62929 C -148.56312,24.420737 118.72674,0.14971355 118.72674,0.14971355"
     id="path8959"
     inkscape:connector-curvature="0" />
  <path
     style="fill:none;fill-opacity:1;stroke:#ff0000;stroke-width:0.29942709;stroke-linejoin:round;stroke-miterlimit:4;stroke-dasharray:none;stroke-opacity:1"
     d="m 54.731067,521.73916 3.472274,-137.02751 c 3.047167,-32.10514 34.599237,-12.52959 35.338411,-10.07173 1.840346,2.4992 1.552577,2.0858 3.665786,6.27875 7.001272,13.8916 9.672152,19.71047 13.615962,35.22977 10.17925,40.06731 21.10323,76.47077 25.56927,85.21115 7.35399,14.39341 33.03448,52.88653 71.64398,107.3908 6.1908,8.73949 11.90272,16.7839 12.69523,17.87268 l 0.002,-0.003 c 0.79245,1.08876 1.61661,2.08589 1.83562,2.20731 0.21848,0.12272 4.96113,-3.45651 10.53945,-7.95407 24.05517,-19.39504 43.54496,-35.23567 64.90529,-52.75341 12.559,-10.29939 23.18042,-18.88317 23.60194,-19.07244 0.42143,-0.18932 1.74811,-1.27644 2.94754,-2.41471 1.20008,-1.13955 9.13994,-7.8811 17.64457,-14.9822 53.42964,-44.61374 80.59274,-69.08753 87.47992,-78.81911 10.67451,-15.08337 27.94849,-50.08771 38.24192,-77.49404 6.99804,-18.83229 14.73264,-43.86485 13.17306,-69.02266 M 9.1122201,521.73916 V 385.75752"
     id="rect8964"
     inkscape:connector-curvature="0"
     sodipodi:nodetypes="cccscccccccccccccccc" />
  <path
     style="fill:none;fill-opacity:1;stroke:#ff0000;stroke-width:0.29942709;stroke-linejoin:round;stroke-miterlimit:4;stroke-dasharray:none;stroke-opacity:1"
     d="M 56.486261,533.58984 124.47707,651.35339 M 84.970001,674.16282 16.979184,556.39926"
     id="rect8964-2"
     inkscape:connector-curvature="0"
     sodipodi:nodetypes="cccc" />
  <path
     style="fill:none;fill-opacity:1;stroke:#ff0000;stroke-width:0.29942709;stroke-linejoin:round;stroke-miterlimit:4;stroke-dasharray:none;stroke-opacity:1"
     d="m 148.67252,655.85289 h 135.98164 m 0,45.61884 H 148.67252"
     id="rect8964-6"
     inkscape:connector-curvature="0"
     sodipodi:nodetypes="cccc" />
  <path
     style="fill:none;fill-opacity:1;stroke:#ff0000;stroke-width:0.29942709;stroke-linejoin:round;stroke-miterlimit:4;stroke-dasharray:none;stroke-opacity:1"
     d="m 332.20097,683.67646 93.10552,-76.60357 m -26.20915,-30.62665 -93.10553,76.60357"
     id="rect8964-2-3"
     inkscape:connector-curvature="0"
     sodipodi:nodetypes="cccc" />
  <path
     style="fill:none;fill-opacity:1;stroke:#ff0000;stroke-width:0.29942709;stroke-linejoin:round;stroke-miterlimit:4;stroke-dasharray:none;stroke-opacity:1"
     d="m 437.08123,623.91119 -88.67502,78.6337 m 24.96197,31.43831 88.67501,-78.6337"
     id="rect8964-2-3-6"
     inkscape:connector-curvature="0"
     sodipodi:nodetypes="cccc" />
  <path
     style="fill:none;fill-opacity:1;stroke:#ff0000;stroke-width:0.29942709;stroke-linejoin:round;stroke-miterlimit:4;stroke-dasharray:none;stroke-opacity:1"
     d="M 328.31527,755.25598 57.275333,755.72928 35.97662,709.72854 h 292.33865"
     id="rect8964-6-4"
     inkscape:connector-curvature="0"
     sodipodi:nodetypes="cccc" />
  <path
     style="fill:none;stroke:#ff0000;stroke-width:0.29942709;stroke-linecap:butt;stroke-linejoin:miter;stroke-miterlimit:4;stroke-dasharray:none;stroke-opacity:1"
     d="M 68.316333,312.49124 C 15.595933,272.58372 9.1122201,385.75752 9.1122201,385.75752"
     id="path9041"
     inkscape:connector-curvature="0" />
  <path
     style="fill:none;stroke:#ff0000;stroke-width:0.29942709;stroke-linecap:butt;stroke-linejoin:miter;stroke-miterlimit:4;stroke-dasharray:none;stroke-opacity:1"
     d="m 54.731067,521.73915 c -0.48574,7.4345 1.75519,11.8507 1.75519,11.8507"
     id="path9045"
     inkscape:connector-curvature="0"
     sodipodi:nodetypes="cc" />
  <path
     style="fill:none;stroke:#ff0000;stroke-width:0.29942709;stroke-linecap:butt;stroke-linejoin:miter;stroke-miterlimit:4;stroke-dasharray:none;stroke-opacity:1"
     d="m 9.1122201,521.73915 c -1.381197,19.42284 7.8669599,34.66011 7.8669599,34.66011"
     id="path9047"
     inkscape:connector-curvature="0" />
  <path
     style="fill:none;stroke:#ff0000;stroke-width:0.29942709;stroke-linecap:butt;stroke-linejoin:miter;stroke-miterlimit:4;stroke-dasharray:none;stroke-opacity:1"
     d="m 124.47707,651.3534 c 6.62425,6.48534 24.19545,4.49949 24.19545,4.49949"
     id="path9049"
     inkscape:connector-curvature="0"
     sodipodi:nodetypes="cc" />
  <path
     style="fill:none;stroke:#ff0000;stroke-width:0.29942709;stroke-linecap:butt;stroke-linejoin:miter;stroke-miterlimit:4;stroke-dasharray:none;stroke-opacity:1"
     d="m 84.970009,674.16282 c 22.829431,19.44452 63.702511,27.30891 63.702511,27.30891"
     id="path9051"
     inkscape:connector-curvature="0" />
  <path
     style="fill:none;stroke:#ff0000;stroke-width:0.29942709;stroke-linecap:butt;stroke-linejoin:miter;stroke-miterlimit:4;stroke-dasharray:none;stroke-opacity:1"
     d="m 284.65415,655.85288 c 10.56438,0.60531 21.33766,-2.80308 21.33766,-2.80308"
     id="path9053"
     inkscape:connector-curvature="0"
     sodipodi:nodetypes="cc" />
  <path
     style="fill:none;stroke:#ff0000;stroke-width:0.29942709;stroke-linecap:butt;stroke-linejoin:miter;stroke-miterlimit:4;stroke-dasharray:none;stroke-opacity:1"
     d="m 284.65415,701.47173 c 27.29823,-1.17085 47.54682,-17.79528 47.54682,-17.79528"
     id="path9055"
     inkscape:connector-curvature="0" />
  <path
     style="fill:none;stroke:#ff0000;stroke-width:0.29942709;stroke-linecap:butt;stroke-linejoin:miter;stroke-miterlimit:4;stroke-dasharray:none;stroke-opacity:1"
     d="m 425.30649,607.0729 c 21.85539,-4.49768 11.77474,16.83829 11.77474,16.83829"
     id="path9057"
     inkscape:connector-curvature="0" />
  <path
     style="fill:none;stroke:#ff0000;stroke-width:0.29942709;stroke-linecap:butt;stroke-linejoin:miter;stroke-miterlimit:4;stroke-dasharray:none;stroke-opacity:1"
     d="m 399.09733,576.44625 c 123.84714,-29.8839 62.94586,78.90325 62.94586,78.90325"
     id="path9059"
     inkscape:connector-curvature="0"
     sodipodi:nodetypes="cc" />
  <path
     style="fill:none;stroke:#ff0000;stroke-width:0.29942709;stroke-linecap:butt;stroke-linejoin:miter;stroke-miterlimit:4;stroke-dasharray:none;stroke-opacity:1"
     d="m 348.40622,702.5449 c -7.1696,7.12694 -20.09095,7.18364 -20.09095,7.18364"
     id="path9061"
     inkscape:connector-curvature="0" />
  <path
     style="fill:none;stroke:#ff0000;stroke-width:0.29942709;stroke-linecap:butt;stroke-linejoin:miter;stroke-miterlimit:4;stroke-dasharray:none;stroke-opacity:1"
     d="m 373.36818,733.9832 c -14.059,18.35995 -45.05291,21.27279 -45.05291,21.27279"
     id="path9063"
     inkscape:connector-curvature="0" />
  <path
     inkscape:connector-curvature="0"
     style="fill:none;stroke:#ff0000;stroke-width:0.29942709;stroke-linecap:butt;stroke-linejoin:round;stroke-miterlimit:4;stroke-dasharray:none;stroke-opacity:1"
     d="m 844.51859,187.65588 c -18.48401,4.8417 -12.83165,24.20882 -12.83165,24.20882"
     id="path6572-1" />
  <path
     inkscape:connector-curvature="0"
     style="fill:none;stroke:#ff0000;stroke-width:0.29942709;stroke-linecap:butt;stroke-linejoin:round;stroke-miterlimit:4;stroke-dasharray:none;stroke-opacity:1"
     d="M 895.66539,312.51783 C 862.6587,322.68387 854.62877,294.32347 854.62877,294.32347"
     id="path6614-3" />
  <path
     inkscape:connector-curvature="0"
     style="fill:none;stroke:#ff0000;stroke-width:0.29942709;stroke-linecap:butt;stroke-linejoin:miter;stroke-miterlimit:4;stroke-dasharray:none;stroke-opacity:1"
     d="m 831.68694,211.8647 22.94183,82.45877"
     id="path7895-9" />
  <path
     style="fill:none;fill-opacity:1;stroke:#ff0000;stroke-width:0.29942709;stroke-linejoin:round;stroke-miterlimit:4;stroke-dasharray:none;stroke-opacity:1"
     d="m 566.93113,36.168147 h 278.32384 m 0,-35.99183845 H 550.36544"
     id="rect8917-8"
     inkscape:connector-curvature="0"
     sodipodi:nodetypes="cccc" />
  <path
     style="fill:none;fill-opacity:1;stroke:#ff0000;stroke-width:0.29942709;stroke-linejoin:round;stroke-miterlimit:4;stroke-dasharray:none;stroke-opacity:1"
     d="M 566.68752,82.888047 H 799.1246 m 23.90187,-34.58579 -256.33895,-1.41992"
     id="rect8917-0-4"
     inkscape:connector-curvature="0"
     sodipodi:nodetypes="cccc" />
  <path
     style="fill:none;fill-opacity:1;stroke:#ff0000;stroke-width:0.29942709;stroke-linejoin:round;stroke-miterlimit:4;stroke-dasharray:none;stroke-opacity:1"
     d="m 798.64649,93.410297 -286.85106,-0.66935 -14.72581,36.005953 301.57687,0.66935"
     id="rect8917-0-6-5"
     inkscape:connector-curvature="0"
     sodipodi:nodetypes="cccc" />
  <path
     style="fill:none;stroke:#ff0000;stroke-width:0.29942709;stroke-linecap:butt;stroke-linejoin:miter;stroke-miterlimit:4;stroke-dasharray:none;stroke-opacity:1"
     d="m 566.93113,36.168147 c -18.23328,4.59468 -0.24361,10.71419 -0.24361,10.71419"
     id="path8949-8"
     inkscape:connector-curvature="0" />
  <path
     style="fill:none;stroke:#ff0000;stroke-width:0.29942709;stroke-linecap:butt;stroke-linejoin:round;stroke-miterlimit:4;stroke-dasharray:none;stroke-opacity:1"
     d="M 550.36544,0.17630855 C 458.31804,47.753767 566.68752,82.888047 566.68752,82.888047"
     id="path8951-4"
     inkscape:connector-curvature="0"
     sodipodi:nodetypes="cc" />
  <path
     style="fill:none;stroke:#ff0000;stroke-width:0.29942709;stroke-linecap:butt;stroke-linejoin:miter;stroke-miterlimit:4;stroke-dasharray:none;stroke-opacity:1"
     d="m 799.1246,82.888047 c 28.10816,5.81727 -0.47811,10.52225 -0.47811,10.52225"
     id="path8953-1"
     inkscape:connector-curvature="0" />
  <path
     style="fill:none;stroke:#ff0000;stroke-width:0.29942709;stroke-linecap:butt;stroke-linejoin:miter;stroke-miterlimit:4;stroke-dasharray:none;stroke-opacity:1"
     d="m 823.02647,48.302257 c 97.38629,41.65564 -24.37998,81.113993 -24.37998,81.113993"
     id="path8955-8"
     inkscape:connector-curvature="0"
     sodipodi:nodetypes="cc" />
  <path
     style="fill:none;stroke:#ff0000;stroke-width:0.29942709;stroke-linecap:butt;stroke-linejoin:miter;stroke-miterlimit:4;stroke-dasharray:none;stroke-opacity:1"
     d="M 812.97872,144.97382 C 997.41215,57.693167 845.25497,36.168147 845.25497,36.168147"
     id="path8957-7"
     inkscape:connector-curvature="0" />
  <path
     style="fill:none;stroke:#ff0000;stroke-width:0.29942709;stroke-linecap:butt;stroke-linejoin:miter;stroke-miterlimit:4;stroke-dasharray:none;stroke-opacity:1"
     d="M 844.51859,187.65588 C 1112.5448,24.447327 845.25497,0.17630855 845.25497,0.17630855"
     id="path8959-4"
     inkscape:connector-curvature="0" />
  <path
     style="fill:none;fill-opacity:1;stroke:#ff0000;stroke-width:0.29942709;stroke-linejoin:round;stroke-miterlimit:4;stroke-dasharray:none;stroke-opacity:1"
     d="M 954.86957,521.76575 V 385.78413"
     id="rect8964-8"
     inkscape:connector-curvature="0"
     sodipodi:nodetypes="cc" />
  <path
     style="fill:none;fill-opacity:1;stroke:#ff0000;stroke-width:0.29942709;stroke-linejoin:round;stroke-miterlimit:4;stroke-dasharray:none;stroke-opacity:1"
     d="M 879.01176,674.18939 947.00254,556.42584"
     id="rect8964-2-8"
     inkscape:connector-curvature="0"
     sodipodi:nodetypes="cc" />
  <path
     style="fill:none;fill-opacity:1;stroke:#ff0000;stroke-width:0.29942709;stroke-linejoin:round;stroke-miterlimit:4;stroke-dasharray:none;stroke-opacity:1"
     d="M 815.30923,655.87944 H 679.32754 m 0,45.61891 h 135.98169"
     id="rect8964-6-5"
     inkscape:connector-curvature="0"
     sodipodi:nodetypes="cccc" />
  <path
     style="fill:none;fill-opacity:1;stroke:#ff0000;stroke-width:0.29942709;stroke-linejoin:round;stroke-miterlimit:4;stroke-dasharray:none;stroke-opacity:1"
     d="m 631.78073,683.70302 -93.10551,-76.60359 m 26.20917,-30.62658 93.10551,76.60358"
     id="rect8964-2-3-4"
     inkscape:connector-curvature="0"
     sodipodi:nodetypes="cccc" />
  <path
     style="fill:none;fill-opacity:1;stroke:#ff0000;stroke-width:0.29942709;stroke-linejoin:round;stroke-miterlimit:4;stroke-dasharray:none;stroke-opacity:1"
     d="m 526.90048,623.93774 88.67502,78.63376 m -24.96195,31.43831 -88.67502,-78.63376"
     id="rect8964-2-3-6-8"
     inkscape:connector-curvature="0"
     sodipodi:nodetypes="cccc" />
  <path
     style="fill:none;fill-opacity:1;stroke:#ff0000;stroke-width:0.29942709;stroke-linejoin:round;stroke-miterlimit:4;stroke-dasharray:none;stroke-opacity:1"
     d="m 635.66648,755.28257 271.03988,0.47328 21.29876,-46.00077 H 635.66648"
     id="rect8964-6-4-5"
     inkscape:connector-curvature="0"
     sodipodi:nodetypes="cccc" />
  <path
     style="fill:none;stroke:#ff0000;stroke-width:0.29942709;stroke-linecap:butt;stroke-linejoin:miter;stroke-miterlimit:4;stroke-dasharray:none;stroke-opacity:1"
     d="m 895.66539,312.51783 c 52.72044,-39.90753 59.20418,73.2663 59.20418,73.2663"
     id="path9041-6"
     inkscape:connector-curvature="0" />
  <path
     style="fill:none;stroke:#ff0000;stroke-width:0.29942709;stroke-linecap:butt;stroke-linejoin:miter;stroke-miterlimit:4;stroke-dasharray:none;stroke-opacity:1"
     d="m 954.86957,521.76575 c 1.38115,19.42281 -7.86703,34.66009 -7.86703,34.66009"
     id="path9047-7"
     inkscape:connector-curvature="0" />
  <path
     style="fill:none;stroke:#ff0000;stroke-width:0.29942709;stroke-linecap:butt;stroke-linejoin:miter;stroke-miterlimit:4;stroke-dasharray:none;stroke-opacity:1"
     d="m 839.50462,651.37994 c -7.41911,7.11292 -24.19539,4.4995 -24.19539,4.4995"
     id="path9049-5"
     inkscape:connector-curvature="0" />
  <path
     style="fill:none;stroke:#ff0000;stroke-width:0.29942709;stroke-linecap:butt;stroke-linejoin:miter;stroke-miterlimit:4;stroke-dasharray:none;stroke-opacity:1"
     d="m 879.01168,674.18939 c -22.82942,19.44452 -63.70245,27.30896 -63.70245,27.30896"
     id="path9051-2"
     inkscape:connector-curvature="0" />
  <path
     style="fill:none;stroke:#ff0000;stroke-width:0.29942709;stroke-linecap:butt;stroke-linejoin:miter;stroke-miterlimit:4;stroke-dasharray:none;stroke-opacity:1"
     d="m 679.32754,655.87944 c -10.56436,2.2787 -21.33764,-2.80309 -21.33764,-2.80309"
     id="path9053-2"
     inkscape:connector-curvature="0" />
  <path
     style="fill:none;stroke:#ff0000;stroke-width:0.29942709;stroke-linecap:butt;stroke-linejoin:miter;stroke-miterlimit:4;stroke-dasharray:none;stroke-opacity:1"
     d="m 679.32754,701.49835 c -27.29818,-1.17093 -47.54681,-17.79533 -47.54681,-17.79533"
     id="path9055-6"
     inkscape:connector-curvature="0" />
  <path
     style="fill:none;stroke:#ff0000;stroke-width:0.29942709;stroke-linecap:butt;stroke-linejoin:miter;stroke-miterlimit:4;stroke-dasharray:none;stroke-opacity:1"
     d="m 538.67522,607.09943 c -21.85536,-4.49767 -11.77474,16.83831 -11.77474,16.83831"
     id="path9057-1"
     inkscape:connector-curvature="0" />
  <path
     style="fill:none;stroke:#ff0000;stroke-width:0.29942709;stroke-linecap:butt;stroke-linejoin:miter;stroke-miterlimit:4;stroke-dasharray:none;stroke-opacity:1"
     d="m 564.88439,576.47285 c -123.37381,-34.85359 -62.94586,78.9032 -62.94586,78.9032"
     id="path9059-1"
     inkscape:connector-curvature="0"
     sodipodi:nodetypes="cc" />
  <path
     style="fill:none;stroke:#ff0000;stroke-width:0.29942709;stroke-linecap:butt;stroke-linejoin:miter;stroke-miterlimit:4;stroke-dasharray:none;stroke-opacity:1"
     d="m 615.5755,702.5715 c 7.16964,7.12694 20.09098,7.18358 20.09098,7.18358"
     id="path9061-2"
     inkscape:connector-curvature="0" />
  <path
     style="fill:none;stroke:#ff0000;stroke-width:0.29942709;stroke-linecap:butt;stroke-linejoin:miter;stroke-miterlimit:4;stroke-dasharray:none;stroke-opacity:1"
     d="m 590.61355,734.00981 c 14.05898,18.35995 45.05293,21.27276 45.05293,21.27276"
     id="path9063-5"
     inkscape:connector-curvature="0" />
  <path
     style="fill:none;stroke:#ff0000;stroke-width:0.29942709;stroke-linecap:butt;stroke-linejoin:miter;stroke-miterlimit:4;stroke-dasharray:none;stroke-opacity:1"
     d="m 480.81932,152.5525 2.3431,0.0266"
     id="path9179"
     inkscape:connector-curvature="0" />
  <path
     style="fill:none;stroke:#ff0000;stroke-width:0.29942709;stroke-linecap:butt;stroke-linejoin:miter;stroke-miterlimit:4;stroke-dasharray:none;stroke-opacity:1"
     d="m 481.10286,306.31536 c 0.4223,-9.80738 1.77602,0.0266 1.77602,0.0266"
     id="path9181"
     inkscape:connector-curvature="0" />
  <g
     id="g9876"
     transform="matrix(0.79223422,0,0,0.79223422,4.5693255e-6,-2.4539623e-6)">
    <path
       sodipodi:nodetypes="ccccccccccccccaccaacccsc"
       inkscape:connector-curvature="0"
       d="m 609.5153,386.68103 c -1.9686,31.75552 7.7944,63.35293 16.6277,87.12403 12.9929,34.5937 34.7971,78.7781 48.271,97.8171 8.6934,12.2837 42.9801,43.1758 110.4218,99.4897 10.735,8.9633 20.7571,17.4729 22.2719,18.9113 1.514,1.4368 3.1886,2.809 3.7205,3.0479 0.5321,0.239 13.939,11.0739 29.7917,24.0743 26.9621,22.1118 51.5631,42.1067 81.9268,66.5881 7.0413,5.6771 13.0277,10.195 13.3035,10.0401 0.2764,-0.1533 1.3167,-1.4119 2.317,-2.7862 v 0 c 1.0003,-1.3743 8.2102,-11.5284 16.0246,-22.5598 48.7349,-68.7982 81.1502,-117.3863 90.4328,-135.5544 5.6373,-11.0326 19.4252,-56.98313 32.2749,-107.558 4.9772,-19.58953 9.5043,-31.66682 17.1868,-46.1865 1.5495,-2.92849 3.8137,-5.13247 5.7516,-8.10631 1.7397,-1.86372 30.1022,-19.89951 42.4802,16.73069 0,0 8.6755,113.96495 5.3862,170.84732 -0.291,5.03215 -0.5568,10.19867 -2.2155,14.9585 -18.8276,54.02786 -85.8216,148.6474 -85.8216,148.6474 m -33.4824,-639.21264 c -0.3152,-0.2872 -8.1897,-0.3261 -17.5017,-0.0919 -9.3119,0.23428 -102.7596,2.46428 -207.662,4.95474 -104.9023,2.49042 -191.1479,4.73696 -191.1479,4.73696"
       style="fill:none;stroke:#ff0000;stroke-width:0.37795275;stroke-linecap:butt;stroke-linejoin:miter;stroke-miterlimit:4;stroke-dasharray:none;stroke-opacity:1"
       id="path9872" />
  </g>
</svg>
