<?xml version="1.0" encoding="UTF-8" standalone="no"?>
<!-- Created with Inkscape (http://www.inkscape.org/) -->

<svg
   xmlns:dc="http://purl.org/dc/elements/1.1/"
   xmlns:cc="http://creativecommons.org/ns#"
   xmlns:rdf="http://www.w3.org/1999/02/22-rdf-syntax-ns#"
   xmlns:svg="http://www.w3.org/2000/svg"
   xmlns="http://www.w3.org/2000/svg"
   xmlns:sodipodi="http://sodipodi.sourceforge.net/DTD/sodipodi-0.dtd"
   xmlns:inkscape="http://www.inkscape.org/namespaces/inkscape"
   version="1.1"
   id="svg4504"
   width="293.31149mm"
   height="230mm"
   viewBox="0 0 1108.579 869.29131"
   sodipodi:docname="Mask_230_001.svg"
   inkscape:version="0.92.2 (5c3e80d, 2017-08-06)">
  <metadata
     id="metadata4510">
    <rdf:RDF>
      <cc:Work
         rdf:about="">
        <dc:format>image/svg+xml</dc:format>
        <dc:type
           rdf:resource="http://purl.org/dc/dcmitype/StillImage" />
        <dc:title></dc:title>
      </cc:Work>
    </rdf:RDF>
  </metadata>
  <defs
     id="defs4508" />
  <sodipodi:namedview
     pagecolor="#ffffff"
     bordercolor="#666666"
     borderopacity="1"
     objecttolerance="10"
     gridtolerance="10"
     guidetolerance="10"
     inkscape:pageopacity="0"
     inkscape:pageshadow="2"
     inkscape:window-width="2560"
     inkscape:window-height="1315"
     id="namedview4506"
     showgrid="false"
     inkscape:zoom="1.1835804"
     inkscape:cx="679.73048"
     inkscape:cy="833.91898"
     inkscape:window-x="-13"
     inkscape:window-y="-13"
     inkscape:window-maximized="1"
     inkscape:current-layer="svg4504"
     inkscape:document-units="mm"
     units="mm" />
  <path
     style="fill:none;stroke:#ff0000;stroke-width:0.34434116;stroke-linejoin:round;stroke-miterlimit:4;stroke-dasharray:none;stroke-opacity:1"
     d="m 173.65343,166.68929 c 0.28716,-0.26167 7.46143,-0.29711 15.94528,-0.0838 8.48382,0.21345 93.62113,2.24512 189.19445,4.5141 95.57328,2.26895 174.14905,4.3157 174.14905,4.3157 m 0.32608,176.8273 c 1.79351,28.93148 -7.10128,57.71892 -15.14902,79.37605 -11.83746,31.51729 -31.70253,71.77227 -43.97821,89.11815 -7.92026,11.19132 -39.15782,39.33617 -100.60191,90.64198 -9.78032,8.16626 -18.91115,15.91903 -20.29125,17.22953 -1.37934,1.309 -2.90504,2.55919 -3.38967,2.7769 -0.48475,0.21766 -12.69938,10.08901 -27.14225,21.93331 -24.56436,20.1454 -46.97762,38.36213 -74.64107,60.66642 -6.41507,5.17221 -11.86912,9.2883 -12.12035,9.14719 -0.25188,-0.13965 -1.19966,-1.28634 -2.11097,-2.5384 l -0.002,0.003 c -0.91138,-1.25211 -7.48009,-10.50318 -14.5995,-20.55359 -44.40092,-62.67992 -73.93348,-106.94699 -82.39058,-123.49942 -5.13595,-10.05144 -17.69853,-51.91541 -29.40466,-97.99282 -4.53539,-17.84719 -7.60712,-26.10365 -15.65837,-42.07909 -2.43041,-4.82178 -2.09925,-4.34649 -3.83076,-7.02813"
     id="path5888"
     inkscape:connector-curvature="0"
     sodipodi:nodetypes="ccsccccccccccccccccc" />
  <path
     style="fill:none;stroke:#ff0000;stroke-width:0.34434116;stroke-linecap:butt;stroke-linejoin:round;stroke-miterlimit:4;stroke-dasharray:none;stroke-opacity:1"
     d="m 137.38261,215.77367 c 21.25661,5.56796 14.75636,27.84014 14.75636,27.84014"
     id="path6572"
     inkscape:connector-curvature="0" />
  <path
     style="fill:none;stroke:#ff0000;stroke-width:0.34434116;stroke-linecap:butt;stroke-linejoin:round;stroke-miterlimit:4;stroke-dasharray:none;stroke-opacity:1"
     d="M 78.563774,359.36491 C 116.52144,371.05586 125.75586,338.4414 125.75586,338.4414"
     id="path6614"
     inkscape:connector-curvature="0" />
  <path
     style="fill:none;stroke:#ff0000;stroke-width:0.34434116;stroke-linecap:butt;stroke-linejoin:miter;stroke-miterlimit:4;stroke-dasharray:none;stroke-opacity:1"
     d="M 152.13897,243.61381 125.75586,338.4414"
     id="path7895"
     inkscape:connector-curvature="0" />
  <path
     style="fill:none;fill-opacity:1;stroke:#ff0000;stroke-width:0.34434116;stroke-linejoin:round;stroke-miterlimit:4;stroke-dasharray:none;stroke-opacity:1"
     d="M 456.60819,41.562798 H 136.53576 m 0,-41.39062742 H 475.6587"
     id="rect8917"
     inkscape:connector-curvature="0"
     sodipodi:nodetypes="cccc" />
  <path
     style="fill:none;fill-opacity:1;stroke:#ff0000;stroke-width:0.34434116;stroke-linejoin:round;stroke-miterlimit:4;stroke-dasharray:none;stroke-opacity:1"
     d="M 456.88831,95.290664 H 189.58569 M 162.09852,55.517017 456.88831,53.884118"
     id="rect8917-0"
     inkscape:connector-curvature="0"
     sodipodi:nodetypes="cccc" />
  <path
     style="fill:none;fill-opacity:1;stroke:#ff0000;stroke-width:0.34434116;stroke-linejoin:round;stroke-miterlimit:4;stroke-dasharray:none;stroke-opacity:1"
     d="m 190.13553,107.39125 329.87869,-0.76975 16.93466,41.40683 -346.81335,0.76975"
     id="rect8917-0-6"
     inkscape:connector-curvature="0"
     sodipodi:nodetypes="cccc" />
  <path
     style="fill:none;stroke:#ff0000;stroke-width:0.34434116;stroke-linecap:butt;stroke-linejoin:miter;stroke-miterlimit:4;stroke-dasharray:none;stroke-opacity:1"
     d="m 456.60819,41.562788 c 20.96829,5.283883 0.28013,12.32133 0.28013,12.32133"
     id="path8949"
     inkscape:connector-curvature="0" />
  <path
     style="fill:none;stroke:#ff0000;stroke-width:0.34434116;stroke-linecap:butt;stroke-linejoin:round;stroke-miterlimit:4;stroke-dasharray:none;stroke-opacity:1"
     d="M 475.6587,0.17217058 C 581.51324,54.886258 456.88832,95.290664 456.88832,95.290664"
     id="path8951"
     inkscape:connector-curvature="0"
     sodipodi:nodetypes="cc" />
  <path
     style="fill:none;stroke:#ff0000;stroke-width:0.34434116;stroke-linecap:butt;stroke-linejoin:miter;stroke-miterlimit:4;stroke-dasharray:none;stroke-opacity:1"
     d="m 189.58569,95.290664 c -32.32435,6.689856 0.54984,12.100586 0.54984,12.100586"
     id="path8953"
     inkscape:connector-curvature="0" />
  <path
     style="fill:none;stroke:#ff0000;stroke-width:0.34434116;stroke-linecap:butt;stroke-linejoin:miter;stroke-miterlimit:4;stroke-dasharray:none;stroke-opacity:1"
     d="M 162.09852,55.517017 C 50.104316,103.42098 190.13553,148.79808 190.13553,148.79808"
     id="path8955"
     inkscape:connector-curvature="0"
     sodipodi:nodetypes="cc" />
  <path
     style="fill:none;stroke:#ff0000;stroke-width:0.34434116;stroke-linecap:butt;stroke-linejoin:miter;stroke-miterlimit:4;stroke-dasharray:none;stroke-opacity:1"
     d="M 173.65343,166.68929 C -38.444931,66.316574 136.53576,41.562788 136.53576,41.562788"
     id="path8957"
     inkscape:connector-curvature="0" />
  <path
     style="fill:none;stroke:#ff0000;stroke-width:0.34434116;stroke-linecap:butt;stroke-linejoin:miter;stroke-miterlimit:4;stroke-dasharray:none;stroke-opacity:1"
     d="M 137.38261,215.77367 C -170.84758,28.083845 136.53576,0.17217058 136.53576,0.17217058"
     id="path8959"
     inkscape:connector-curvature="0" />
  <path
     style="fill:none;fill-opacity:1;stroke:#ff0000;stroke-width:0.34434116;stroke-linejoin:round;stroke-miterlimit:4;stroke-dasharray:none;stroke-opacity:1"
     d="m 62.94072,443.62114 v 156.37887 m -52.461673,0 V 443.62114"
     id="rect8964"
     inkscape:connector-curvature="0"
     sodipodi:nodetypes="cccc" />
  <path
     style="fill:none;fill-opacity:1;stroke:#ff0000;stroke-width:0.34434116;stroke-linejoin:round;stroke-miterlimit:4;stroke-dasharray:none;stroke-opacity:1"
     d="M 64.959193,613.62829 143.14863,749.05638 M 97.715495,775.28722 19.526055,639.85913"
     id="rect8964-2"
     inkscape:connector-curvature="0"
     sodipodi:nodetypes="cccc" />
  <path
     style="fill:none;fill-opacity:1;stroke:#ff0000;stroke-width:0.34434116;stroke-linejoin:round;stroke-miterlimit:4;stroke-dasharray:none;stroke-opacity:1"
     d="m 170.97338,754.23081 h 156.3789 m 0,52.46166 h -156.3789"
     id="rect8964-6"
     inkscape:connector-curvature="0"
     sodipodi:nodetypes="cccc" />
  <path
     style="fill:none;fill-opacity:1;stroke:#ff0000;stroke-width:0.34434116;stroke-linejoin:round;stroke-miterlimit:4;stroke-dasharray:none;stroke-opacity:1"
     d="M 382.03111,786.22792 489.10244,698.1338 m -30.14051,-35.22065 -107.07135,88.09412"
     id="rect8964-2-3"
     inkscape:connector-curvature="0"
     sodipodi:nodetypes="cccc" />
  <path
     style="fill:none;fill-opacity:1;stroke:#ff0000;stroke-width:0.34434116;stroke-linejoin:round;stroke-miterlimit:4;stroke-dasharray:none;stroke-opacity:1"
     d="M 502.6434,717.49784 400.66712,807.9266 m 28.70628,36.15407 101.97626,-90.42876"
     id="rect8964-2-3-6"
     inkscape:connector-curvature="0"
     sodipodi:nodetypes="cccc" />
  <path
     style="fill:none;fill-opacity:1;stroke:#ff0000;stroke-width:0.34434116;stroke-linejoin:round;stroke-miterlimit:4;stroke-dasharray:none;stroke-opacity:1"
     d="M 377.56256,868.54436 65.866625,869.08865 41.373107,816.1878 H 377.56256"
     id="rect8964-6-4"
     inkscape:connector-curvature="0"
     sodipodi:nodetypes="cccc" />
  <path
     style="fill:none;stroke:#ff0000;stroke-width:0.34434116;stroke-linecap:butt;stroke-linejoin:miter;stroke-miterlimit:4;stroke-dasharray:none;stroke-opacity:1"
     d="M 78.563774,359.36491 C 17.935316,313.47126 10.479047,443.62114 10.479047,443.62114"
     id="path9041"
     inkscape:connector-curvature="0" />
  <path
     style="fill:none;stroke:#ff0000;stroke-width:0.34434116;stroke-linecap:butt;stroke-linejoin:miter;stroke-miterlimit:4;stroke-dasharray:none;stroke-opacity:1"
     d="m 62.94072,600 c -3.246085,7.90332 2.018467,13.6283 2.018467,13.6283"
     id="path9045"
     inkscape:connector-curvature="0" />
  <path
     style="fill:none;stroke:#ff0000;stroke-width:0.34434116;stroke-linecap:butt;stroke-linejoin:miter;stroke-miterlimit:4;stroke-dasharray:none;stroke-opacity:1"
     d="m 10.479047,600 c -1.5883766,22.33626 9.047002,39.85914 9.047002,39.85914"
     id="path9047"
     inkscape:connector-curvature="0" />
  <path
     style="fill:none;stroke:#ff0000;stroke-width:0.34434116;stroke-linecap:butt;stroke-linejoin:miter;stroke-miterlimit:4;stroke-dasharray:none;stroke-opacity:1"
     d="m 143.14863,749.05639 c 8.53197,8.1798 27.82475,5.17441 27.82475,5.17441"
     id="path9049"
     inkscape:connector-curvature="0" />
  <path
     style="fill:none;stroke:#ff0000;stroke-width:0.34434116;stroke-linecap:butt;stroke-linejoin:miter;stroke-miterlimit:4;stroke-dasharray:none;stroke-opacity:1"
     d="m 97.715504,775.28723 c 26.253856,22.36119 73.257876,31.40524 73.257876,31.40524"
     id="path9051"
     inkscape:connector-curvature="0" />
  <path
     style="fill:none;stroke:#ff0000;stroke-width:0.34434116;stroke-linecap:butt;stroke-linejoin:miter;stroke-miterlimit:4;stroke-dasharray:none;stroke-opacity:1"
     d="m 327.35227,754.2308 c 12.14904,2.6205 24.53831,-3.22354 24.53831,-3.22354"
     id="path9053"
     inkscape:connector-curvature="0" />
  <path
     style="fill:none;stroke:#ff0000;stroke-width:0.34434116;stroke-linecap:butt;stroke-linejoin:miter;stroke-miterlimit:4;stroke-dasharray:none;stroke-opacity:1"
     d="m 327.35227,806.69247 c 31.39296,-1.34647 54.67884,-20.46456 54.67884,-20.46456"
     id="path9055"
     inkscape:connector-curvature="0" />
  <path
     style="fill:none;stroke:#ff0000;stroke-width:0.34434116;stroke-linecap:butt;stroke-linejoin:miter;stroke-miterlimit:4;stroke-dasharray:none;stroke-opacity:1"
     d="m 489.10244,698.13381 c 25.13372,-5.17233 13.54097,19.36404 13.54097,19.36404"
     id="path9057"
     inkscape:connector-curvature="0" />
  <path
     style="fill:none;stroke:#ff0000;stroke-width:0.34434116;stroke-linecap:butt;stroke-linejoin:miter;stroke-miterlimit:4;stroke-dasharray:none;stroke-opacity:1"
     d="m 458.96192,662.91316 c 137.25336,-31.91713 72.38774,90.73875 72.38774,90.73875"
     id="path9059"
     inkscape:connector-curvature="0" />
  <path
     style="fill:none;stroke:#ff0000;stroke-width:0.34434116;stroke-linecap:butt;stroke-linejoin:miter;stroke-miterlimit:4;stroke-dasharray:none;stroke-opacity:1"
     d="m 400.66713,807.92661 c -8.24504,8.19598 -23.10457,8.26119 -23.10457,8.26119"
     id="path9061"
     inkscape:connector-curvature="0" />
  <path
     style="fill:none;stroke:#ff0000;stroke-width:0.34434116;stroke-linecap:butt;stroke-linejoin:miter;stroke-miterlimit:4;stroke-dasharray:none;stroke-opacity:1"
     d="m 429.3734,844.08067 c -16.16785,21.11393 -51.81084,24.4637 -51.81084,24.4637"
     id="path9063"
     inkscape:connector-curvature="0" />
  <path
     style="fill:none;stroke:#ff0000;stroke-width:0.34434116;stroke-linejoin:round;stroke-miterlimit:4;stroke-dasharray:none;stroke-opacity:1"
     d="m 934.92547,166.71988 c -0.28713,-0.26167 -7.46138,-0.29711 -15.94523,-0.0838 -8.48378,0.21345 -93.62111,2.24512 -189.19447,4.51411 -95.57328,2.26894 -174.149,4.31569 -174.149,4.31569 m -0.32606,176.82728 c -1.79353,28.93148 7.10123,57.71892 15.14899,79.37602 11.83743,31.51727 31.70256,71.77232 43.97822,89.11818 7.92029,11.19129 39.15785,39.33614 100.60191,90.642 9.78033,8.16619 18.91117,15.91903 20.29125,17.22951 1.37935,1.30903 2.90504,2.5592 3.38964,2.77685 0.48477,0.21775 12.69939,10.08909 27.1423,21.93336 24.56434,20.14539 46.97755,38.36213 74.64099,60.66638 6.41512,5.17223 11.86915,9.28835 12.12041,9.14722 0.25182,-0.13967 1.19961,-1.28633 2.11095,-2.53841 v 0 c 0.91135,-1.25208 7.48006,-10.50317 14.59953,-20.55355 44.40086,-62.67993 73.93341,-106.94707 82.39051,-123.49946 5.136,-10.05147 17.69858,-51.91538 29.40472,-97.9928 4.5354,-17.8472 7.60715,-26.10368 15.6584,-42.07909 2.43033,-4.82175 2.09923,-4.34645 3.83077,-7.02818"
     id="path5888-6"
     inkscape:connector-curvature="0"
     sodipodi:nodetypes="ccsccccccccccccccccc" />
  <path
     inkscape:connector-curvature="0"
     style="fill:none;stroke:#ff0000;stroke-width:0.34434116;stroke-linecap:butt;stroke-linejoin:round;stroke-miterlimit:4;stroke-dasharray:none;stroke-opacity:1"
     d="m 971.19643,215.80426 c -21.25664,5.56795 -14.75648,27.84013 -14.75648,27.84013"
     id="path6572-1" />
  <path
     inkscape:connector-curvature="0"
     style="fill:none;stroke:#ff0000;stroke-width:0.34434116;stroke-linecap:butt;stroke-linejoin:round;stroke-miterlimit:4;stroke-dasharray:none;stroke-opacity:1"
     d="m 1030.0152,359.39549 c -37.95768,11.69095 -47.19218,-20.92352 -47.19218,-20.92352"
     id="path6614-3" />
  <path
     inkscape:connector-curvature="0"
     style="fill:none;stroke:#ff0000;stroke-width:0.34434116;stroke-linecap:butt;stroke-linejoin:miter;stroke-miterlimit:4;stroke-dasharray:none;stroke-opacity:1"
     d="m 956.43995,243.64439 26.38307,94.82758"
     id="path7895-9" />
  <path
     style="fill:none;fill-opacity:1;stroke:#ff0000;stroke-width:0.34434116;stroke-linejoin:round;stroke-miterlimit:4;stroke-dasharray:none;stroke-opacity:1"
     d="m 651.97078,41.593372 h 320.07243 m 0,-41.39061742 H 632.92024"
     id="rect8917-8"
     inkscape:connector-curvature="0"
     sodipodi:nodetypes="cccc" />
  <path
     style="fill:none;fill-opacity:1;stroke:#ff0000;stroke-width:0.34434116;stroke-linejoin:round;stroke-miterlimit:4;stroke-dasharray:none;stroke-opacity:1"
     d="M 651.69063,95.321254 H 918.99327 M 946.48039,55.547594 651.69063,53.914693"
     id="rect8917-0-4"
     inkscape:connector-curvature="0"
     sodipodi:nodetypes="cccc" />
  <path
     style="fill:none;fill-opacity:1;stroke:#ff0000;stroke-width:0.34434116;stroke-linejoin:round;stroke-miterlimit:4;stroke-dasharray:none;stroke-opacity:1"
     d="m 918.44344,107.42184 -329.87871,-0.76975 -16.93468,41.40683 346.81339,0.76976"
     id="rect8917-0-6-5"
     inkscape:connector-curvature="0"
     sodipodi:nodetypes="cccc" />
  <path
     style="fill:none;stroke:#ff0000;stroke-width:0.34434116;stroke-linecap:butt;stroke-linejoin:miter;stroke-miterlimit:4;stroke-dasharray:none;stroke-opacity:1"
     d="m 651.97078,41.593364 c -20.96826,5.283883 -0.28015,12.321329 -0.28015,12.321329"
     id="path8949-8"
     inkscape:connector-curvature="0" />
  <path
     style="fill:none;stroke:#ff0000;stroke-width:0.34434116;stroke-linecap:butt;stroke-linejoin:round;stroke-miterlimit:4;stroke-dasharray:none;stroke-opacity:1"
     d="M 632.92024,0.20275458 C 527.06573,54.916832 651.69063,95.321254 651.69063,95.321254"
     id="path8951-4"
     inkscape:connector-curvature="0"
     sodipodi:nodetypes="cc" />
  <path
     style="fill:none;stroke:#ff0000;stroke-width:0.34434116;stroke-linecap:butt;stroke-linejoin:miter;stroke-miterlimit:4;stroke-dasharray:none;stroke-opacity:1"
     d="m 918.99327,95.321254 c 32.3244,6.689856 -0.54983,12.100586 -0.54983,12.100586"
     id="path8953-1"
     inkscape:connector-curvature="0" />
  <path
     style="fill:none;stroke:#ff0000;stroke-width:0.34434116;stroke-linecap:butt;stroke-linejoin:miter;stroke-miterlimit:4;stroke-dasharray:none;stroke-opacity:1"
     d="M 946.48039,55.547594 C 1058.4746,103.45157 918.44344,148.82868 918.44344,148.82868"
     id="path8955-8"
     inkscape:connector-curvature="0"
     sodipodi:nodetypes="cc" />
  <path
     style="fill:none;stroke:#ff0000;stroke-width:0.34434116;stroke-linecap:butt;stroke-linejoin:miter;stroke-miterlimit:4;stroke-dasharray:none;stroke-opacity:1"
     d="M 934.92547,166.71988 C 1147.024,66.347144 972.04321,41.593364 972.04321,41.593364"
     id="path8957-7"
     inkscape:connector-curvature="0" />
  <path
     style="fill:none;stroke:#ff0000;stroke-width:0.34434116;stroke-linecap:butt;stroke-linejoin:miter;stroke-miterlimit:4;stroke-dasharray:none;stroke-opacity:1"
     d="M 971.19643,215.80426 C 1279.4264,28.114421 972.04321,0.20275458 972.04321,0.20275458"
     id="path8959-4"
     inkscape:connector-curvature="0" />
  <path
     style="fill:none;fill-opacity:1;stroke:#ff0000;stroke-width:0.34434116;stroke-linejoin:round;stroke-miterlimit:4;stroke-dasharray:none;stroke-opacity:1"
     d="m 1045.6382,443.65174 v 156.37884 m 52.4617,0 V 443.65174"
     id="rect8964-8"
     inkscape:connector-curvature="0"
     sodipodi:nodetypes="cccc" />
  <path
     style="fill:none;fill-opacity:1;stroke:#ff0000;stroke-width:0.34434116;stroke-linejoin:round;stroke-miterlimit:4;stroke-dasharray:none;stroke-opacity:1"
     d="m 1043.6197,613.65882 -78.18938,135.42809 m 45.43318,26.23087 78.1894,-135.42809"
     id="rect8964-2-8"
     inkscape:connector-curvature="0"
     sodipodi:nodetypes="cccc" />
  <path
     style="fill:none;fill-opacity:1;stroke:#ff0000;stroke-width:0.34434116;stroke-linejoin:round;stroke-miterlimit:4;stroke-dasharray:none;stroke-opacity:1"
     d="M 937.60561,754.26133 H 781.22665 m 0,52.46174 h 156.37896"
     id="rect8964-6-5"
     inkscape:connector-curvature="0"
     sodipodi:nodetypes="cccc" />
  <path
     style="fill:none;fill-opacity:1;stroke:#ff0000;stroke-width:0.34434116;stroke-linejoin:round;stroke-miterlimit:4;stroke-dasharray:none;stroke-opacity:1"
     d="M 726.54783,786.25845 619.4765,698.16434 m 30.14054,-35.22058 107.07132,88.09412"
     id="rect8964-2-3-4"
     inkscape:connector-curvature="0"
     sodipodi:nodetypes="cccc" />
  <path
     style="fill:none;fill-opacity:1;stroke:#ff0000;stroke-width:0.34434116;stroke-linejoin:round;stroke-miterlimit:4;stroke-dasharray:none;stroke-opacity:1"
     d="M 605.93555,717.52838 707.91182,807.9572 M 679.20556,844.11127 577.22931,753.68244"
     id="rect8964-2-3-6-8"
     inkscape:connector-curvature="0"
     sodipodi:nodetypes="cccc" />
  <path
     style="fill:none;fill-opacity:1;stroke:#ff0000;stroke-width:0.34434116;stroke-linejoin:round;stroke-miterlimit:4;stroke-dasharray:none;stroke-opacity:1"
     d="m 731.01644,868.57493 311.69586,0.54428 24.4935,-52.90089 H 731.01644"
     id="rect8964-6-4-5"
     inkscape:connector-curvature="0"
     sodipodi:nodetypes="cccc" />
  <path
     style="fill:none;stroke:#ff0000;stroke-width:0.34434116;stroke-linecap:butt;stroke-linejoin:miter;stroke-miterlimit:4;stroke-dasharray:none;stroke-opacity:1"
     d="m 1030.0152,359.39549 c 60.6285,-45.89365 68.0847,84.25625 68.0847,84.25625"
     id="path9041-6"
     inkscape:connector-curvature="0" />
  <path
     style="fill:none;stroke:#ff0000;stroke-width:0.34434116;stroke-linecap:butt;stroke-linejoin:miter;stroke-miterlimit:4;stroke-dasharray:none;stroke-opacity:1"
     d="m 1045.6382,600.03058 c 3.2461,7.90327 -2.0185,13.62824 -2.0185,13.62824"
     id="path9045-7"
     inkscape:connector-curvature="0" />
  <path
     style="fill:none;stroke:#ff0000;stroke-width:0.34434116;stroke-linecap:butt;stroke-linejoin:miter;stroke-miterlimit:4;stroke-dasharray:none;stroke-opacity:1"
     d="m 1098.0999,600.03058 c 1.5883,22.33625 -9.047,39.85911 -9.047,39.85911"
     id="path9047-7"
     inkscape:connector-curvature="0" />
  <path
     style="fill:none;stroke:#ff0000;stroke-width:0.34434116;stroke-linecap:butt;stroke-linejoin:miter;stroke-miterlimit:4;stroke-dasharray:none;stroke-opacity:1"
     d="m 965.43032,749.08691 c -8.53203,8.17986 -27.82471,5.17442 -27.82471,5.17442"
     id="path9049-5"
     inkscape:connector-curvature="0" />
  <path
     style="fill:none;stroke:#ff0000;stroke-width:0.34434116;stroke-linecap:butt;stroke-linejoin:miter;stroke-miterlimit:4;stroke-dasharray:none;stroke-opacity:1"
     d="m 1010.8634,775.31778 c -26.25376,22.3612 -73.25779,31.40529 -73.25779,31.40529"
     id="path9051-2"
     inkscape:connector-curvature="0" />
  <path
     style="fill:none;stroke:#ff0000;stroke-width:0.34434116;stroke-linecap:butt;stroke-linejoin:miter;stroke-miterlimit:4;stroke-dasharray:none;stroke-opacity:1"
     d="m 781.22665,754.26133 c -12.14901,2.6205 -24.53829,-3.22355 -24.53829,-3.22355"
     id="path9053-2"
     inkscape:connector-curvature="0" />
  <path
     style="fill:none;stroke:#ff0000;stroke-width:0.34434116;stroke-linecap:butt;stroke-linejoin:miter;stroke-miterlimit:4;stroke-dasharray:none;stroke-opacity:1"
     d="m 781.22665,806.72307 c -31.39289,-1.34656 -54.67882,-20.46462 -54.67882,-20.46462"
     id="path9055-6"
     inkscape:connector-curvature="0" />
  <path
     style="fill:none;stroke:#ff0000;stroke-width:0.34434116;stroke-linecap:butt;stroke-linejoin:miter;stroke-miterlimit:4;stroke-dasharray:none;stroke-opacity:1"
     d="m 619.4765,698.16434 c -25.13367,-5.17233 -13.54095,19.36404 -13.54095,19.36404"
     id="path9057-1"
     inkscape:connector-curvature="0" />
  <path
     style="fill:none;stroke:#ff0000;stroke-width:0.34434116;stroke-linecap:butt;stroke-linejoin:miter;stroke-miterlimit:4;stroke-dasharray:none;stroke-opacity:1"
     d="m 649.61704,662.94376 c -137.25332,-31.91713 -72.38773,90.73868 -72.38773,90.73868"
     id="path9059-1"
     inkscape:connector-curvature="0" />
  <path
     style="fill:none;stroke:#ff0000;stroke-width:0.34434116;stroke-linecap:butt;stroke-linejoin:miter;stroke-miterlimit:4;stroke-dasharray:none;stroke-opacity:1"
     d="m 707.91182,807.9572 c 8.24508,8.19599 23.10462,8.26112 23.10462,8.26112"
     id="path9061-2"
     inkscape:connector-curvature="0" />
  <path
     style="fill:none;stroke:#ff0000;stroke-width:0.34434116;stroke-linecap:butt;stroke-linejoin:miter;stroke-miterlimit:4;stroke-dasharray:none;stroke-opacity:1"
     d="m 679.20556,844.11127 c 16.16783,21.11393 51.81088,24.46366 51.81088,24.46366"
     id="path9063-5"
     inkscape:connector-curvature="0" />
  <path
     style="fill:none;stroke:#ff0000;stroke-width:0.34434116;stroke-linecap:butt;stroke-linejoin:miter;stroke-miterlimit:4;stroke-dasharray:none;stroke-opacity:1"
     d="m 552.94221,175.43536 2.69456,0.0307"
     id="path9179"
     inkscape:connector-curvature="0" />
  <path
     style="fill:none;stroke:#ff0000;stroke-width:0.34434116;stroke-linecap:butt;stroke-linejoin:miter;stroke-miterlimit:4;stroke-dasharray:none;stroke-opacity:1"
     d="m 553.26829,352.26266 c 0.48563,-11.27848 2.04242,0.0307 2.04242,0.0307"
     id="path9181"
     inkscape:connector-curvature="0" />
  <path
     style="fill:none;fill-opacity:1;stroke:#ff0000;stroke-width:0.34434116;stroke-linejoin:round;stroke-miterlimit:4;stroke-dasharray:none;stroke-opacity:1"
     d="m 62.94072,443.62114 c 8.77086,-38.89018 45.01717,-14.15767 45.01717,-14.15767"
     id="path882"
     inkscape:connector-curvature="0" />
  <path
     style="fill:none;fill-opacity:1;stroke:#ff0000;stroke-width:0.34434116;stroke-linejoin:round;stroke-miterlimit:4;stroke-dasharray:none;stroke-opacity:1"
     d="m 1000.6193,429.49126 c 31.2399,-27.34619 45.0189,14.16049 45.0189,14.16049"
     id="path884"
     inkscape:connector-curvature="0" />
</svg>
