<?xml version="1.0" encoding="UTF-8" standalone="no"?>
<!-- Created with Inkscape (http://www.inkscape.org/) -->

<svg
   xmlns:dc="http://purl.org/dc/elements/1.1/"
   xmlns:cc="http://creativecommons.org/ns#"
   xmlns:rdf="http://www.w3.org/1999/02/22-rdf-syntax-ns#"
   xmlns:svg="http://www.w3.org/2000/svg"
   xmlns="http://www.w3.org/2000/svg"
   xmlns:sodipodi="http://sodipodi.sourceforge.net/DTD/sodipodi-0.dtd"
   xmlns:inkscape="http://www.inkscape.org/namespaces/inkscape"
   version="1.1"
   id="svg4504"
   width="280.55881mm"
   height="220mm"
   viewBox="0 0 1060.3799 831.49604"
   sodipodi:docname="Mask_220_001.svg"
   inkscape:version="0.92.2 (5c3e80d, 2017-08-06)">
  <metadata
     id="metadata4510">
    <rdf:RDF>
      <cc:Work
         rdf:about="">
        <dc:format>image/svg+xml</dc:format>
        <dc:type
           rdf:resource="http://purl.org/dc/dcmitype/StillImage" />
        <dc:title></dc:title>
      </cc:Work>
    </rdf:RDF>
  </metadata>
  <defs
     id="defs4508" />
  <sodipodi:namedview
     pagecolor="#ffffff"
     bordercolor="#666666"
     borderopacity="1"
     objecttolerance="10"
     gridtolerance="10"
     guidetolerance="10"
     inkscape:pageopacity="0"
     inkscape:pageshadow="2"
     inkscape:window-width="2560"
     inkscape:window-height="1315"
     id="namedview4506"
     showgrid="false"
     inkscape:zoom="1.1835804"
     inkscape:cx="679.73048"
     inkscape:cy="833.91896"
     inkscape:window-x="-13"
     inkscape:window-y="-13"
     inkscape:window-maximized="1"
     inkscape:current-layer="svg4504"
     inkscape:document-units="mm"
     units="mm" />
  <path
     style="fill:none;stroke:#ff0000;stroke-width:0.32936981;stroke-linejoin:round;stroke-miterlimit:4;stroke-dasharray:none;stroke-opacity:1"
     d="m 166.10328,159.44193 c 0.27468,-0.25029 7.13702,-0.28419 15.25201,-0.0802 8.11496,0.20417 89.55065,2.14751 180.96861,4.31784 91.41792,2.1703 166.57735,4.12806 166.57735,4.12806 m 0.3119,169.13916 c 1.71553,27.67359 -6.79253,55.2094 -14.49036,75.92492 -11.32279,30.14697 -30.32416,68.65173 -42.06612,85.24344 -7.5759,10.70474 -37.45531,37.62591 -96.22791,86.70103 -9.35509,7.8112 -18.08893,15.2269 -19.40903,16.48042 -1.31936,1.25209 -2.77873,2.44792 -3.24229,2.65616 -0.46367,0.2082 -12.14723,9.65036 -25.96215,20.97969 -23.49635,19.26952 -44.93512,36.69421 -71.39581,58.02875 -6.13615,4.94733 -11.35307,8.88446 -11.59338,8.74949 -0.24093,-0.13358 -1.1475,-1.23041 -2.01919,-2.42804 l -0.002,0.003 c -0.87175,-1.19767 -7.15487,-10.04652 -13.96474,-19.65995 -42.47044,-59.95471 -70.71898,-102.29712 -78.80838,-118.12988 -4.91265,-9.61442 -16.92903,-49.65822 -28.1262,-93.73227 -4.3382,-17.07122 -7.27637,-24.96871 -14.97757,-40.24956 -2.32474,-4.61214 -2.00798,-4.15751 -3.6642,-6.72256"
     id="path5888"
     inkscape:connector-curvature="0"
     sodipodi:nodetypes="ccsccccccccccccccccc" />
  <path
     style="fill:none;stroke:#ff0000;stroke-width:0.32936981;stroke-linecap:butt;stroke-linejoin:round;stroke-miterlimit:4;stroke-dasharray:none;stroke-opacity:1"
     d="m 131.40945,206.39221 c 20.33241,5.32587 14.11478,26.6297 14.11478,26.6297"
     id="path6572"
     inkscape:connector-curvature="0" />
  <path
     style="fill:none;stroke:#ff0000;stroke-width:0.32936981;stroke-linecap:butt;stroke-linejoin:round;stroke-miterlimit:4;stroke-dasharray:none;stroke-opacity:1"
     d="M 75.147962,343.74035 C 111.45529,354.923 120.28822,323.72656 120.28822,323.72656"
     id="path6614"
     inkscape:connector-curvature="0" />
  <path
     style="fill:none;stroke:#ff0000;stroke-width:0.32936981;stroke-linecap:butt;stroke-linejoin:miter;stroke-miterlimit:4;stroke-dasharray:none;stroke-opacity:1"
     d="m 145.52423,233.02191 -25.23601,90.70465"
     id="path7895"
     inkscape:connector-curvature="0" />
  <path
     style="fill:none;fill-opacity:1;stroke:#ff0000;stroke-width:0.32936981;stroke-linejoin:round;stroke-miterlimit:4;stroke-dasharray:none;stroke-opacity:1"
     d="M 436.75566,39.755721 H 130.59942 m 0,-39.59103609 h 324.37847"
     id="rect8917"
     inkscape:connector-curvature="0"
     sodipodi:nodetypes="cccc" />
  <path
     style="fill:none;fill-opacity:1;stroke:#ff0000;stroke-width:0.32936981;stroke-linejoin:round;stroke-miterlimit:4;stroke-dasharray:none;stroke-opacity:1"
     d="M 437.02361,91.147592 H 181.34284 M 155.05076,53.103235 437.02361,51.541331"
     id="rect8917-0"
     inkscape:connector-curvature="0"
     sodipodi:nodetypes="cccc" />
  <path
     style="fill:none;fill-opacity:1;stroke:#ff0000;stroke-width:0.32936981;stroke-linejoin:round;stroke-miterlimit:4;stroke-dasharray:none;stroke-opacity:1"
     d="m 181.86877,102.72206 315.53614,-0.73628 16.19837,39.60654 -331.73451,0.73628"
     id="rect8917-0-6"
     inkscape:connector-curvature="0"
     sodipodi:nodetypes="cccc" />
  <path
     style="fill:none;stroke:#ff0000;stroke-width:0.32936981;stroke-linecap:butt;stroke-linejoin:miter;stroke-miterlimit:4;stroke-dasharray:none;stroke-opacity:1"
     d="m 436.75566,39.755711 c 20.05663,5.054149 0.26795,11.78562 0.26795,11.78562"
     id="path8949"
     inkscape:connector-curvature="0" />
  <path
     style="fill:none;stroke:#ff0000;stroke-width:0.32936981;stroke-linecap:butt;stroke-linejoin:round;stroke-miterlimit:4;stroke-dasharray:none;stroke-opacity:1"
     d="M 454.97789,0.16468491 C 556.23006,52.4999 437.02361,91.147592 437.02361,91.147592"
     id="path8951"
     inkscape:connector-curvature="0"
     sodipodi:nodetypes="cc" />
  <path
     style="fill:none;stroke:#ff0000;stroke-width:0.32936981;stroke-linecap:butt;stroke-linejoin:miter;stroke-miterlimit:4;stroke-dasharray:none;stroke-opacity:1"
     d="m 181.34284,91.147592 c -30.91895,6.39899 0.52593,11.574468 0.52593,11.574468"
     id="path8953"
     inkscape:connector-curvature="0" />
  <path
     style="fill:none;stroke:#ff0000;stroke-width:0.32936981;stroke-linecap:butt;stroke-linejoin:miter;stroke-miterlimit:4;stroke-dasharray:none;stroke-opacity:1"
     d="M 155.05076,53.103235 C 47.925871,98.924422 181.86877,142.3286 181.86877,142.3286"
     id="path8955"
     inkscape:connector-curvature="0"
     sodipodi:nodetypes="cc" />
  <path
     style="fill:none;stroke:#ff0000;stroke-width:0.32936981;stroke-linecap:butt;stroke-linejoin:miter;stroke-miterlimit:4;stroke-dasharray:none;stroke-opacity:1"
     d="M 166.10328,159.44193 C -36.77341,63.433242 130.59942,39.755711 130.59942,39.755711"
     id="path8957"
     inkscape:connector-curvature="0" />
  <path
     style="fill:none;stroke:#ff0000;stroke-width:0.32936981;stroke-linecap:butt;stroke-linejoin:miter;stroke-miterlimit:4;stroke-dasharray:none;stroke-opacity:1"
     d="M 131.40945,206.39221 C -163.41943,26.862809 130.59942,0.16468491 130.59942,0.16468491"
     id="path8959"
     inkscape:connector-curvature="0" />
  <path
     style="fill:none;fill-opacity:1;stroke:#ff0000;stroke-width:0.32936981;stroke-linejoin:round;stroke-miterlimit:4;stroke-dasharray:none;stroke-opacity:1"
     d="m 60.204171,424.33327 v 149.57979 m -50.180732,0 V 424.33327"
     id="rect8964"
     inkscape:connector-curvature="0"
     sodipodi:nodetypes="cccc" />
  <path
     style="fill:none;fill-opacity:1;stroke:#ff0000;stroke-width:0.32936981;stroke-linejoin:round;stroke-miterlimit:4;stroke-dasharray:none;stroke-opacity:1"
     d="M 62.134884,586.9488 136.92478,716.48872 M 93.466999,741.57909 18.677099,612.03917"
     id="rect8964-2"
     inkscape:connector-curvature="0"
     sodipodi:nodetypes="cccc" />
  <path
     style="fill:none;fill-opacity:1;stroke:#ff0000;stroke-width:0.32936981;stroke-linejoin:round;stroke-miterlimit:4;stroke-dasharray:none;stroke-opacity:1"
     d="m 163.53976,721.43817 h 149.57982 m 0,50.18072 H 163.53976"
     id="rect8964-6"
     inkscape:connector-curvature="0"
     sodipodi:nodetypes="cccc" />
  <path
     style="fill:none;fill-opacity:1;stroke:#ff0000;stroke-width:0.32936981;stroke-linejoin:round;stroke-miterlimit:4;stroke-dasharray:none;stroke-opacity:1"
     d="M 365.42107,752.0441 467.83712,667.78016 M 439.00707,634.09084 336.59099,718.35479"
     id="rect8964-2-3"
     inkscape:connector-curvature="0"
     sodipodi:nodetypes="cccc" />
  <path
     style="fill:none;fill-opacity:1;stroke:#ff0000;stroke-width:0.32936981;stroke-linejoin:round;stroke-miterlimit:4;stroke-dasharray:none;stroke-opacity:1"
     d="m 480.78934,686.30229 -97.54253,86.49707 m 27.45819,34.58216 97.54251,-86.49708"
     id="rect8964-2-3-6"
     inkscape:connector-curvature="0"
     sodipodi:nodetypes="cccc" />
  <path
     style="fill:none;fill-opacity:1;stroke:#ff0000;stroke-width:0.32936981;stroke-linejoin:round;stroke-miterlimit:4;stroke-dasharray:none;stroke-opacity:1"
     d="M 361.1468,830.78157 63.002862,831.30219 39.57428,780.70138 H 361.1468"
     id="rect8964-6-4"
     inkscape:connector-curvature="0"
     sodipodi:nodetypes="cccc" />
  <path
     style="fill:none;stroke:#ff0000;stroke-width:0.32936981;stroke-linecap:butt;stroke-linejoin:miter;stroke-miterlimit:4;stroke-dasharray:none;stroke-opacity:1"
     d="M 75.147962,343.74035 C 17.155523,299.84208 10.023439,424.33327 10.023439,424.33327"
     id="path9041"
     inkscape:connector-curvature="0" />
  <path
     style="fill:none;stroke:#ff0000;stroke-width:0.32936981;stroke-linecap:butt;stroke-linejoin:miter;stroke-miterlimit:4;stroke-dasharray:none;stroke-opacity:1"
     d="m 60.204171,573.91305 c -3.104951,7.5597 1.930707,13.03576 1.930707,13.03576"
     id="path9045"
     inkscape:connector-curvature="0" />
  <path
     style="fill:none;stroke:#ff0000;stroke-width:0.32936981;stroke-linecap:butt;stroke-linejoin:miter;stroke-miterlimit:4;stroke-dasharray:none;stroke-opacity:1"
     d="m 10.023439,573.91305 c -1.5193165,21.36512 8.653655,38.12613 8.653655,38.12613"
     id="path9047"
     inkscape:connector-curvature="0" />
  <path
     style="fill:none;stroke:#ff0000;stroke-width:0.32936981;stroke-linecap:butt;stroke-linejoin:miter;stroke-miterlimit:4;stroke-dasharray:none;stroke-opacity:1"
     d="m 136.92478,716.48873 c 8.16101,7.82415 26.61498,4.94943 26.61498,4.94943"
     id="path9049"
     inkscape:connector-curvature="0" />
  <path
     style="fill:none;stroke:#ff0000;stroke-width:0.32936981;stroke-linecap:butt;stroke-linejoin:miter;stroke-miterlimit:4;stroke-dasharray:none;stroke-opacity:1"
     d="m 93.467008,741.5791 c 25.112382,21.38896 70.072752,30.03979 70.072752,30.03979"
     id="path9051"
     inkscape:connector-curvature="0" />
  <path
     style="fill:none;stroke:#ff0000;stroke-width:0.32936981;stroke-linecap:butt;stroke-linejoin:miter;stroke-miterlimit:4;stroke-dasharray:none;stroke-opacity:1"
     d="m 313.11957,721.43816 c 11.62082,2.50657 23.47142,-3.08338 23.47142,-3.08338"
     id="path9053"
     inkscape:connector-curvature="0" />
  <path
     style="fill:none;stroke:#ff0000;stroke-width:0.32936981;stroke-linecap:butt;stroke-linejoin:miter;stroke-miterlimit:4;stroke-dasharray:none;stroke-opacity:1"
     d="m 313.11957,771.61889 c 30.02804,-1.28793 52.3015,-19.5748 52.3015,-19.5748"
     id="path9055"
     inkscape:connector-curvature="0" />
  <path
     style="fill:none;stroke:#ff0000;stroke-width:0.32936981;stroke-linecap:butt;stroke-linejoin:miter;stroke-miterlimit:4;stroke-dasharray:none;stroke-opacity:1"
     d="m 467.83712,667.78017 c 24.04095,-4.94745 12.95223,18.52213 12.95223,18.52213"
     id="path9057"
     inkscape:connector-curvature="0" />
  <path
     style="fill:none;stroke:#ff0000;stroke-width:0.32936981;stroke-linecap:butt;stroke-linejoin:miter;stroke-miterlimit:4;stroke-dasharray:none;stroke-opacity:1"
     d="m 439.00706,634.09085 c 131.28582,-30.52943 69.24045,86.79359 69.24045,86.79359"
     id="path9059"
     inkscape:connector-curvature="0" />
  <path
     style="fill:none;stroke:#ff0000;stroke-width:0.32936981;stroke-linecap:butt;stroke-linejoin:miter;stroke-miterlimit:4;stroke-dasharray:none;stroke-opacity:1"
     d="m 383.24682,772.79937 c -7.88656,7.83964 -22.10002,7.90201 -22.10002,7.90201"
     id="path9061"
     inkscape:connector-curvature="0" />
  <path
     style="fill:none;stroke:#ff0000;stroke-width:0.32936981;stroke-linecap:butt;stroke-linejoin:miter;stroke-miterlimit:4;stroke-dasharray:none;stroke-opacity:1"
     d="m 410.705,807.38152 c -15.4649,20.19593 -49.5582,23.40006 -49.5582,23.40006"
     id="path9063"
     inkscape:connector-curvature="0" />
  <path
     style="fill:none;stroke:#ff0000;stroke-width:0.32936981;stroke-linejoin:round;stroke-miterlimit:4;stroke-dasharray:none;stroke-opacity:1"
     d="m 894.27655,159.47119 c -0.27465,-0.25029 -7.13698,-0.28419 -15.25196,-0.0802 -8.11492,0.20417 -89.55063,2.14751 -180.96863,4.31785 -91.41792,2.17029 -166.57731,4.12805 -166.57731,4.12805 m -0.31188,169.13914 c -1.71555,27.67359 6.79248,55.2094 14.49034,75.92489 11.32276,30.14695 30.32419,68.65178 42.06612,85.24347 7.57593,10.70472 37.45534,37.62588 96.22792,86.70105 9.3551,7.81114 18.08894,15.2269 19.40902,16.4804 1.31938,1.25212 2.77873,2.44793 3.24226,2.65612 0.4637,0.20828 12.14725,9.65043 25.96221,20.97973 23.49632,19.26951 44.93504,36.69421 71.39573,58.02872 6.1362,4.94735 11.3531,8.8845 11.59343,8.74951 0.24087,-0.1336 1.14745,-1.2304 2.01917,-2.42804 v 0 c 0.87173,-1.19765 7.15484,-10.04651 13.96477,-19.65992 42.47039,-59.95472 70.71891,-102.2972 78.80831,-118.12992 4.9127,-9.61445 16.92908,-49.65819 28.12626,-93.73225 4.33821,-17.07123 7.2764,-24.96873 14.9776,-40.24956 2.32466,-4.61211 2.00796,-4.15747 3.66421,-6.72261"
     id="path5888-6"
     inkscape:connector-curvature="0"
     sodipodi:nodetypes="ccsccccccccccccccccc" />
  <path
     inkscape:connector-curvature="0"
     style="fill:none;stroke:#ff0000;stroke-width:0.32936981;stroke-linecap:butt;stroke-linejoin:round;stroke-miterlimit:4;stroke-dasharray:none;stroke-opacity:1"
     d="m 928.97051,206.42147 c -20.33244,5.32586 -14.1149,26.62969 -14.1149,26.62969"
     id="path6572-1" />
  <path
     inkscape:connector-curvature="0"
     style="fill:none;stroke:#ff0000;stroke-width:0.32936981;stroke-linecap:butt;stroke-linejoin:round;stroke-miterlimit:4;stroke-dasharray:none;stroke-opacity:1"
     d="m 985.23194,343.7696 c -36.30735,11.18265 -45.14035,-20.0138 -45.14035,-20.0138"
     id="path6614-3" />
  <path
     inkscape:connector-curvature="0"
     style="fill:none;stroke:#ff0000;stroke-width:0.32936981;stroke-linecap:butt;stroke-linejoin:miter;stroke-miterlimit:4;stroke-dasharray:none;stroke-opacity:1"
     d="m 914.85561,233.05116 25.23598,90.70464"
     id="path7895-9" />
  <path
     style="fill:none;fill-opacity:1;stroke:#ff0000;stroke-width:0.32936981;stroke-linejoin:round;stroke-miterlimit:4;stroke-dasharray:none;stroke-opacity:1"
     d="m 623.62423,39.784965 h 306.15624 m 0,-39.59102509 h -324.3785"
     id="rect8917-8"
     inkscape:connector-curvature="0"
     sodipodi:nodetypes="cccc" />
  <path
     style="fill:none;fill-opacity:1;stroke:#ff0000;stroke-width:0.32936981;stroke-linejoin:round;stroke-miterlimit:4;stroke-dasharray:none;stroke-opacity:1"
     d="M 623.35626,91.176852 H 879.03705 M 905.32908,53.132482 623.35626,51.570577"
     id="rect8917-0-4"
     inkscape:connector-curvature="0"
     sodipodi:nodetypes="cccc" />
  <path
     style="fill:none;fill-opacity:1;stroke:#ff0000;stroke-width:0.32936981;stroke-linejoin:round;stroke-miterlimit:4;stroke-dasharray:none;stroke-opacity:1"
     d="m 878.51113,102.75132 -315.53617,-0.73628 -16.19839,39.60654 331.73456,0.73629"
     id="rect8917-0-6-5"
     inkscape:connector-curvature="0"
     sodipodi:nodetypes="cccc" />
  <path
     style="fill:none;stroke:#ff0000;stroke-width:0.32936981;stroke-linecap:butt;stroke-linejoin:miter;stroke-miterlimit:4;stroke-dasharray:none;stroke-opacity:1"
     d="m 623.62423,39.784958 c -20.0566,5.054149 -0.26797,11.785619 -0.26797,11.785619"
     id="path8949-8"
     inkscape:connector-curvature="0" />
  <path
     style="fill:none;stroke:#ff0000;stroke-width:0.32936981;stroke-linecap:butt;stroke-linejoin:round;stroke-miterlimit:4;stroke-dasharray:none;stroke-opacity:1"
     d="M 605.40197,0.19393991 C 504.14983,52.529145 623.35626,91.176852 623.35626,91.176852"
     id="path8951-4"
     inkscape:connector-curvature="0"
     sodipodi:nodetypes="cc" />
  <path
     style="fill:none;stroke:#ff0000;stroke-width:0.32936981;stroke-linecap:butt;stroke-linejoin:miter;stroke-miterlimit:4;stroke-dasharray:none;stroke-opacity:1"
     d="m 879.03705,91.176852 c 30.91899,6.39899 -0.52592,11.574468 -0.52592,11.574468"
     id="path8953-1"
     inkscape:connector-curvature="0" />
  <path
     style="fill:none;stroke:#ff0000;stroke-width:0.32936981;stroke-linecap:butt;stroke-linejoin:miter;stroke-miterlimit:4;stroke-dasharray:none;stroke-opacity:1"
     d="m 905.32908,53.132482 c 107.12492,45.8212 -26.81795,89.225388 -26.81795,89.225388"
     id="path8955-8"
     inkscape:connector-curvature="0"
     sodipodi:nodetypes="cc" />
  <path
     style="fill:none;stroke:#ff0000;stroke-width:0.32936981;stroke-linecap:butt;stroke-linejoin:miter;stroke-miterlimit:4;stroke-dasharray:none;stroke-opacity:1"
     d="M 894.27655,159.47119 C 1097.1534,63.462482 929.78047,39.784958 929.78047,39.784958"
     id="path8957-7"
     inkscape:connector-curvature="0" />
  <path
     style="fill:none;stroke:#ff0000;stroke-width:0.32936981;stroke-linecap:butt;stroke-linejoin:miter;stroke-miterlimit:4;stroke-dasharray:none;stroke-opacity:1"
     d="M 928.97051,206.42147 C 1223.7992,26.892056 929.78047,0.19393991 929.78047,0.19393991"
     id="path8959-4"
     inkscape:connector-curvature="0" />
  <path
     style="fill:none;fill-opacity:1;stroke:#ff0000;stroke-width:0.32936981;stroke-linejoin:round;stroke-miterlimit:4;stroke-dasharray:none;stroke-opacity:1"
     d="M 1000.1757,424.36254 V 573.9423 m 50.1807,0 V 424.36254"
     id="rect8964-8"
     inkscape:connector-curvature="0"
     sodipodi:nodetypes="cccc" />
  <path
     style="fill:none;fill-opacity:1;stroke:#ff0000;stroke-width:0.32936981;stroke-linejoin:round;stroke-miterlimit:4;stroke-dasharray:none;stroke-opacity:1"
     d="M 998.24494,586.97801 923.4551,716.51792 m 43.45782,25.0904 74.78988,-129.53992"
     id="rect8964-2-8"
     inkscape:connector-curvature="0"
     sodipodi:nodetypes="cccc" />
  <path
     style="fill:none;fill-opacity:1;stroke:#ff0000;stroke-width:0.32936981;stroke-linejoin:round;stroke-miterlimit:4;stroke-dasharray:none;stroke-opacity:1"
     d="M 896.84016,721.46736 H 747.26028 m 0,50.1808 h 149.57988"
     id="rect8964-6-5"
     inkscape:connector-curvature="0"
     sodipodi:nodetypes="cccc" />
  <path
     style="fill:none;fill-opacity:1;stroke:#ff0000;stroke-width:0.32936981;stroke-linejoin:round;stroke-miterlimit:4;stroke-dasharray:none;stroke-opacity:1"
     d="M 694.9588,752.07331 592.54274,667.80937 m 28.83009,-33.68925 102.41604,84.26394"
     id="rect8964-2-3-4"
     inkscape:connector-curvature="0"
     sodipodi:nodetypes="cccc" />
  <path
     style="fill:none;fill-opacity:1;stroke:#ff0000;stroke-width:0.32936981;stroke-linejoin:round;stroke-miterlimit:4;stroke-dasharray:none;stroke-opacity:1"
     d="m 579.59053,686.3315 97.54252,86.49713 m -27.45816,34.58216 -97.5425,-86.49715"
     id="rect8964-2-3-6-8"
     inkscape:connector-curvature="0"
     sodipodi:nodetypes="cccc" />
  <path
     style="fill:none;fill-opacity:1;stroke:#ff0000;stroke-width:0.32936981;stroke-linejoin:round;stroke-miterlimit:4;stroke-dasharray:none;stroke-opacity:1"
     d="m 699.23312,830.81081 298.14387,0.52061 23.42861,-50.60085 H 699.23312"
     id="rect8964-6-4-5"
     inkscape:connector-curvature="0"
     sodipodi:nodetypes="cccc" />
  <path
     style="fill:none;stroke:#ff0000;stroke-width:0.32936981;stroke-linecap:butt;stroke-linejoin:miter;stroke-miterlimit:4;stroke-dasharray:none;stroke-opacity:1"
     d="m 985.23194,343.7696 c 57.99246,-43.89827 65.12446,80.59294 65.12446,80.59294"
     id="path9041-6"
     inkscape:connector-curvature="0" />
  <path
     style="fill:none;stroke:#ff0000;stroke-width:0.32936981;stroke-linecap:butt;stroke-linejoin:miter;stroke-miterlimit:4;stroke-dasharray:none;stroke-opacity:1"
     d="m 1000.1757,573.9423 c 3.1049,7.55965 -1.93076,13.03571 -1.93076,13.03571"
     id="path9045-7"
     inkscape:connector-curvature="0" />
  <path
     style="fill:none;stroke:#ff0000;stroke-width:0.32936981;stroke-linecap:butt;stroke-linejoin:miter;stroke-miterlimit:4;stroke-dasharray:none;stroke-opacity:1"
     d="m 1050.3564,573.9423 c 1.5193,21.36511 -8.6536,38.1261 -8.6536,38.1261"
     id="path9047-7"
     inkscape:connector-curvature="0" />
  <path
     style="fill:none;stroke:#ff0000;stroke-width:0.32936981;stroke-linecap:butt;stroke-linejoin:miter;stroke-miterlimit:4;stroke-dasharray:none;stroke-opacity:1"
     d="m 923.4551,716.51792 c -8.16107,7.82421 -26.61494,4.94944 -26.61494,4.94944"
     id="path9049-5"
     inkscape:connector-curvature="0" />
  <path
     style="fill:none;stroke:#ff0000;stroke-width:0.32936981;stroke-linecap:butt;stroke-linejoin:miter;stroke-miterlimit:4;stroke-dasharray:none;stroke-opacity:1"
     d="m 966.91283,741.60832 c -25.1123,21.38897 -70.07267,30.03984 -70.07267,30.03984"
     id="path9051-2"
     inkscape:connector-curvature="0" />
  <path
     style="fill:none;stroke:#ff0000;stroke-width:0.32936981;stroke-linecap:butt;stroke-linejoin:miter;stroke-miterlimit:4;stroke-dasharray:none;stroke-opacity:1"
     d="m 747.26028,721.46736 c -11.62079,2.50657 -23.47141,-3.08339 -23.47141,-3.08339"
     id="path9053-2"
     inkscape:connector-curvature="0" />
  <path
     style="fill:none;stroke:#ff0000;stroke-width:0.32936981;stroke-linecap:butt;stroke-linejoin:miter;stroke-miterlimit:4;stroke-dasharray:none;stroke-opacity:1"
     d="M 747.26028,771.64816 C 717.2323,770.36015 694.9588,752.07331 694.9588,752.07331"
     id="path9055-6"
     inkscape:connector-curvature="0" />
  <path
     style="fill:none;stroke:#ff0000;stroke-width:0.32936981;stroke-linecap:butt;stroke-linejoin:miter;stroke-miterlimit:4;stroke-dasharray:none;stroke-opacity:1"
     d="m 592.54274,667.80937 c -24.0409,-4.94744 -12.95221,18.52213 -12.95221,18.52213"
     id="path9057-1"
     inkscape:connector-curvature="0" />
  <path
     style="fill:none;stroke:#ff0000;stroke-width:0.32936981;stroke-linecap:butt;stroke-linejoin:miter;stroke-miterlimit:4;stroke-dasharray:none;stroke-opacity:1"
     d="m 621.37283,634.12012 c -131.28579,-30.52943 -69.24044,86.79352 -69.24044,86.79352"
     id="path9059-1"
     inkscape:connector-curvature="0" />
  <path
     style="fill:none;stroke:#ff0000;stroke-width:0.32936981;stroke-linecap:butt;stroke-linejoin:miter;stroke-miterlimit:4;stroke-dasharray:none;stroke-opacity:1"
     d="m 677.13305,772.82863 c 7.8866,7.83964 22.10007,7.90194 22.10007,7.90194"
     id="path9061-2"
     inkscape:connector-curvature="0" />
  <path
     style="fill:none;stroke:#ff0000;stroke-width:0.32936981;stroke-linecap:butt;stroke-linejoin:miter;stroke-miterlimit:4;stroke-dasharray:none;stroke-opacity:1"
     d="m 649.67489,807.41079 c 15.46488,20.19593 49.55823,23.40002 49.55823,23.40002"
     id="path9063-5"
     inkscape:connector-curvature="0" />
  <path
     style="fill:none;stroke:#ff0000;stroke-width:0.32936981;stroke-linecap:butt;stroke-linejoin:miter;stroke-miterlimit:4;stroke-dasharray:none;stroke-opacity:1"
     d="m 528.90125,167.80774 2.5774,0.0294"
     id="path9179"
     inkscape:connector-curvature="0" />
  <path
     style="fill:none;stroke:#ff0000;stroke-width:0.32936981;stroke-linecap:butt;stroke-linejoin:miter;stroke-miterlimit:4;stroke-dasharray:none;stroke-opacity:1"
     d="m 529.21315,336.94689 c 0.46452,-10.78811 1.95362,0.0294 1.95362,0.0294"
     id="path9181"
     inkscape:connector-curvature="0" />
  <path
     style="fill:none;fill-opacity:1;stroke:#ff0000;stroke-width:0.32936981;stroke-linejoin:round;stroke-miterlimit:4;stroke-dasharray:none;stroke-opacity:1"
     d="m 60.204171,424.33327 c 8.389518,-37.19931 43.059899,-13.54212 43.059899,-13.54212"
     id="path882"
     inkscape:connector-curvature="0" />
  <path
     style="fill:none;fill-opacity:1;stroke:#ff0000;stroke-width:0.32936981;stroke-linejoin:round;stroke-miterlimit:4;stroke-dasharray:none;stroke-opacity:1"
     d="m 957.11412,410.81773 c 29.88165,-26.15723 43.06158,13.54482 43.06158,13.54482"
     id="path884"
     inkscape:connector-curvature="0" />
</svg>
