<?xml version="1.0" encoding="UTF-8" standalone="no"?>
<!-- Created with Inkscape (http://www.inkscape.org/) -->

<svg
   xmlns:dc="http://purl.org/dc/elements/1.1/"
   xmlns:cc="http://creativecommons.org/ns#"
   xmlns:rdf="http://www.w3.org/1999/02/22-rdf-syntax-ns#"
   xmlns:svg="http://www.w3.org/2000/svg"
   xmlns="http://www.w3.org/2000/svg"
   xmlns:sodipodi="http://sodipodi.sourceforge.net/DTD/sodipodi-0.dtd"
   xmlns:inkscape="http://www.inkscape.org/namespaces/inkscape"
   version="1.1"
   id="svg4504"
   width="255.05348mm"
   height="200mm"
   viewBox="0 0 963.98182 755.9055"
   sodipodi:docname="Mask_200_001.svg"
   inkscape:version="0.92.2 (5c3e80d, 2017-08-06)">
  <metadata
     id="metadata4510">
    <rdf:RDF>
      <cc:Work
         rdf:about="">
        <dc:format>image/svg+xml</dc:format>
        <dc:type
           rdf:resource="http://purl.org/dc/dcmitype/StillImage" />
        <dc:title></dc:title>
      </cc:Work>
    </rdf:RDF>
  </metadata>
  <defs
     id="defs4508" />
  <sodipodi:namedview
     pagecolor="#ffffff"
     bordercolor="#666666"
     borderopacity="1"
     objecttolerance="10"
     gridtolerance="10"
     guidetolerance="10"
     inkscape:pageopacity="0"
     inkscape:pageshadow="2"
     inkscape:window-width="2560"
     inkscape:window-height="1315"
     id="namedview4506"
     showgrid="false"
     inkscape:zoom="1.1835804"
     inkscape:cx="679.73048"
     inkscape:cy="833.91895"
     inkscape:window-x="-13"
     inkscape:window-y="-13"
     inkscape:window-maximized="1"
     inkscape:current-layer="svg4504"
     inkscape:document-units="mm"
     units="mm" />
  <path
     style="fill:none;stroke:#ff0000;stroke-width:0.29942712;stroke-linejoin:round;stroke-miterlimit:4;stroke-dasharray:none;stroke-opacity:1"
     d="m 151.00298,144.94721 c 0.24971,-0.22753 6.4882,-0.25835 13.86547,-0.0729 7.37724,0.18561 81.40968,1.95227 164.51692,3.9253 83.1072,1.973 151.43395,3.75278 151.43395,3.75278 m 0.28356,153.76288 c 1.55957,25.15781 -6.17503,50.19037 -13.17306,69.02266 -10.29345,27.40634 -27.56742,62.41066 -38.24193,77.49403 -6.88719,9.73158 -34.05028,34.20538 -87.47992,78.81913 -8.50463,7.10108 -16.44448,13.84264 -17.64457,14.9822 -1.19942,1.13826 -2.52612,2.22538 -2.94754,2.41468 -0.42152,0.18928 -11.04294,8.77306 -23.60196,19.07245 -21.36031,17.51774 -40.8501,33.35837 -64.90528,52.75341 -5.57832,4.49757 -10.32097,8.07678 -10.53943,7.95409 -0.21903,-0.12144 -1.04319,-1.11856 -1.83563,-2.20732 l -0.002,0.003 c -0.79251,-1.08879 -6.50443,-9.1332 -12.69522,-17.87269 -38.6095,-54.50428 -64.28998,-92.99738 -71.64398,-107.3908 -4.46605,-8.74038 -15.39003,-45.14383 -25.56928,-85.21115 -3.94382,-15.51929 -6.61488,-22.69883 -13.61597,-36.59051 -2.113402,-4.19286 -1.825438,-3.77956 -3.331092,-6.11142"
     id="path5888"
     inkscape:connector-curvature="0"
     sodipodi:nodetypes="ccsccccccccccccccccc" />
  <path
     style="fill:none;stroke:#ff0000;stroke-width:0.29942712;stroke-linecap:butt;stroke-linejoin:round;stroke-miterlimit:4;stroke-dasharray:none;stroke-opacity:1"
     d="m 119.46314,187.62929 c 18.48401,4.8417 12.83161,24.20881 12.83161,24.20881"
     id="path6572"
     inkscape:connector-curvature="0" />
  <path
     style="fill:none;stroke:#ff0000;stroke-width:0.29942712;stroke-linecap:butt;stroke-linejoin:round;stroke-miterlimit:4;stroke-dasharray:none;stroke-opacity:1"
     d="m 68.316332,312.49124 c 33.006658,10.16604 41.036598,-18.19436 41.036598,-18.19436"
     id="path6614"
     inkscape:connector-curvature="0" />
  <path
     style="fill:none;stroke:#ff0000;stroke-width:0.29942712;stroke-linecap:butt;stroke-linejoin:miter;stroke-miterlimit:4;stroke-dasharray:none;stroke-opacity:1"
     d="m 132.29475,211.8381 -22.94182,82.45878"
     id="path7895"
     inkscape:connector-curvature="0" />
  <path
     style="fill:none;fill-opacity:1;stroke:#ff0000;stroke-width:0.29942712;stroke-linejoin:round;stroke-miterlimit:4;stroke-dasharray:none;stroke-opacity:1"
     d="M 397.05061,36.141565 H 118.72675 m 0,-35.99185144 h 294.88953"
     id="rect8917"
     inkscape:connector-curvature="0"
     sodipodi:nodetypes="cccc" />
  <path
     style="fill:none;fill-opacity:1;stroke:#ff0000;stroke-width:0.29942712;stroke-linejoin:round;stroke-miterlimit:4;stroke-dasharray:none;stroke-opacity:1"
     d="M 397.2942,82.86145 H 164.85713 M 140.95524,48.275668 397.2942,46.855756"
     id="rect8917-0"
     inkscape:connector-curvature="0"
     sodipodi:nodetypes="cccc" />
  <path
     style="fill:none;fill-opacity:1;stroke:#ff0000;stroke-width:0.29942712;stroke-linejoin:round;stroke-miterlimit:4;stroke-dasharray:none;stroke-opacity:1"
     d="m 165.33525,93.38369 286.85104,-0.66934 14.7258,36.00595 -301.57684,0.66934"
     id="rect8917-0-6"
     inkscape:connector-curvature="0"
     sodipodi:nodetypes="cccc" />
  <path
     style="fill:none;stroke:#ff0000;stroke-width:0.29942712;stroke-linecap:butt;stroke-linejoin:miter;stroke-miterlimit:4;stroke-dasharray:none;stroke-opacity:1"
     d="m 397.05061,36.141555 c 18.23329,4.594682 0.24359,10.714201 0.24359,10.714201"
     id="path8949"
     inkscape:connector-curvature="0" />
  <path
     style="fill:none;stroke:#ff0000;stroke-width:0.29942712;stroke-linecap:butt;stroke-linejoin:round;stroke-miterlimit:4;stroke-dasharray:none;stroke-opacity:1"
     d="M 413.61628,0.14971356 C 505.6637,47.727182 397.2942,82.86145 397.2942,82.86145"
     id="path8951"
     inkscape:connector-curvature="0"
     sodipodi:nodetypes="cc" />
  <path
     style="fill:none;stroke:#ff0000;stroke-width:0.29942712;stroke-linecap:butt;stroke-linejoin:miter;stroke-miterlimit:4;stroke-dasharray:none;stroke-opacity:1"
     d="m 164.85713,82.86145 c -28.10814,5.81726 0.47812,10.52224 0.47812,10.52224"
     id="path8953"
     inkscape:connector-curvature="0" />
  <path
     style="fill:none;stroke:#ff0000;stroke-width:0.29942712;stroke-linecap:butt;stroke-linejoin:miter;stroke-miterlimit:4;stroke-dasharray:none;stroke-opacity:1"
     d="M 140.95524,48.275668 C 43.568976,89.93129 165.33525,129.38964 165.33525,129.38964"
     id="path8955"
     inkscape:connector-curvature="0"
     sodipodi:nodetypes="cc" />
  <path
     style="fill:none;stroke:#ff0000;stroke-width:0.29942712;stroke-linecap:butt;stroke-linejoin:miter;stroke-miterlimit:4;stroke-dasharray:none;stroke-opacity:1"
     d="M 151.00298,144.94721 C -33.430371,57.666585 118.72675,36.141555 118.72675,36.141555"
     id="path8957"
     inkscape:connector-curvature="0" />
  <path
     style="fill:none;stroke:#ff0000;stroke-width:0.29942712;stroke-linecap:butt;stroke-linejoin:miter;stroke-miterlimit:4;stroke-dasharray:none;stroke-opacity:1"
     d="M 119.46314,187.62929 C -148.56312,24.420735 118.72675,0.14971356 118.72675,0.14971356"
     id="path8959"
     inkscape:connector-curvature="0" />
  <path
     style="fill:none;fill-opacity:1;stroke:#ff0000;stroke-width:0.29942712;stroke-linejoin:round;stroke-miterlimit:4;stroke-dasharray:none;stroke-opacity:1"
     d="m 54.731068,385.75752 v 135.98163 m -45.6188483,0 V 385.75752"
     id="rect8964"
     inkscape:connector-curvature="0"
     sodipodi:nodetypes="cccc" />
  <path
     style="fill:none;fill-opacity:1;stroke:#ff0000;stroke-width:0.29942712;stroke-linejoin:round;stroke-miterlimit:4;stroke-dasharray:none;stroke-opacity:1"
     d="M 56.486261,533.58983 124.47708,651.35339 M 84.970003,674.16282 16.979183,556.39926"
     id="rect8964-2"
     inkscape:connector-curvature="0"
     sodipodi:nodetypes="cccc" />
  <path
     style="fill:none;fill-opacity:1;stroke:#ff0000;stroke-width:0.29942712;stroke-linejoin:round;stroke-miterlimit:4;stroke-dasharray:none;stroke-opacity:1"
     d="m 148.67251,655.85289 h 135.98166 m 0,45.61884 H 148.67251"
     id="rect8964-6"
     inkscape:connector-curvature="0"
     sodipodi:nodetypes="cccc" />
  <path
     style="fill:none;fill-opacity:1;stroke:#ff0000;stroke-width:0.29942712;stroke-linejoin:round;stroke-miterlimit:4;stroke-dasharray:none;stroke-opacity:1"
     d="m 332.20098,683.67647 93.10551,-76.60359 m -26.20915,-30.62665 -93.10552,76.60359"
     id="rect8964-2-3"
     inkscape:connector-curvature="0"
     sodipodi:nodetypes="cccc" />
  <path
     style="fill:none;fill-opacity:1;stroke:#ff0000;stroke-width:0.29942712;stroke-linejoin:round;stroke-miterlimit:4;stroke-dasharray:none;stroke-opacity:1"
     d="m 437.08123,623.91118 -88.67503,78.6337 m 24.96199,31.43834 88.67501,-78.63372"
     id="rect8964-2-3-6"
     inkscape:connector-curvature="0"
     sodipodi:nodetypes="cccc" />
  <path
     style="fill:none;fill-opacity:1;stroke:#ff0000;stroke-width:0.29942712;stroke-linejoin:round;stroke-miterlimit:4;stroke-dasharray:none;stroke-opacity:1"
     d="M 328.31528,755.25599 57.275332,755.72928 35.976621,709.72854 H 328.31528"
     id="rect8964-6-4"
     inkscape:connector-curvature="0"
     sodipodi:nodetypes="cccc" />
  <path
     style="fill:none;stroke:#ff0000;stroke-width:0.29942712;stroke-linecap:butt;stroke-linejoin:miter;stroke-miterlimit:4;stroke-dasharray:none;stroke-opacity:1"
     d="M 68.316332,312.49124 C 15.595932,272.58371 9.1122197,385.75752 9.1122197,385.75752"
     id="path9041"
     inkscape:connector-curvature="0" />
  <path
     style="fill:none;stroke:#ff0000;stroke-width:0.29942712;stroke-linecap:butt;stroke-linejoin:miter;stroke-miterlimit:4;stroke-dasharray:none;stroke-opacity:1"
     d="m 54.731068,521.73914 c -2.822683,6.87246 1.755187,11.8507 1.755187,11.8507"
     id="path9045"
     inkscape:connector-curvature="0" />
  <path
     style="fill:none;stroke:#ff0000;stroke-width:0.29942712;stroke-linecap:butt;stroke-linejoin:miter;stroke-miterlimit:4;stroke-dasharray:none;stroke-opacity:1"
     d="m 9.1122197,521.73914 c -1.3811969,19.42284 7.8669583,34.66013 7.8669583,34.66013"
     id="path9047"
     inkscape:connector-curvature="0" />
  <path
     style="fill:none;stroke:#ff0000;stroke-width:0.29942712;stroke-linecap:butt;stroke-linejoin:miter;stroke-miterlimit:4;stroke-dasharray:none;stroke-opacity:1"
     d="m 124.47708,651.3534 c 7.41909,7.11287 24.19543,4.49948 24.19543,4.49948"
     id="path9049"
     inkscape:connector-curvature="0" />
  <path
     style="fill:none;stroke:#ff0000;stroke-width:0.29942712;stroke-linecap:butt;stroke-linejoin:miter;stroke-miterlimit:4;stroke-dasharray:none;stroke-opacity:1"
     d="m 84.97001,674.16283 c 22.82944,19.44451 63.7025,27.3089 63.7025,27.3089"
     id="path9051"
     inkscape:connector-curvature="0" />
  <path
     style="fill:none;stroke:#ff0000;stroke-width:0.29942712;stroke-linecap:butt;stroke-linejoin:miter;stroke-miterlimit:4;stroke-dasharray:none;stroke-opacity:1"
     d="m 284.65416,655.85288 c 10.56438,2.27871 21.33766,-2.80307 21.33766,-2.80307"
     id="path9053"
     inkscape:connector-curvature="0" />
  <path
     style="fill:none;stroke:#ff0000;stroke-width:0.29942712;stroke-linecap:butt;stroke-linejoin:miter;stroke-miterlimit:4;stroke-dasharray:none;stroke-opacity:1"
     d="m 284.65416,701.47173 c 27.29822,-1.17085 47.54682,-17.79527 47.54682,-17.79527"
     id="path9055"
     inkscape:connector-curvature="0" />
  <path
     style="fill:none;stroke:#ff0000;stroke-width:0.29942712;stroke-linecap:butt;stroke-linejoin:miter;stroke-miterlimit:4;stroke-dasharray:none;stroke-opacity:1"
     d="m 425.30649,607.07289 c 21.8554,-4.49768 11.77475,16.8383 11.77475,16.8383"
     id="path9057"
     inkscape:connector-curvature="0" />
  <path
     style="fill:none;stroke:#ff0000;stroke-width:0.29942712;stroke-linecap:butt;stroke-linejoin:miter;stroke-miterlimit:4;stroke-dasharray:none;stroke-opacity:1"
     d="M 399.09733,576.44624 C 518.44808,548.69221 462.0432,655.3495 462.0432,655.3495"
     id="path9059"
     inkscape:connector-curvature="0" />
  <path
     style="fill:none;stroke:#ff0000;stroke-width:0.29942712;stroke-linecap:butt;stroke-linejoin:miter;stroke-miterlimit:4;stroke-dasharray:none;stroke-opacity:1"
     d="m 348.40621,702.54489 c -7.1696,7.12695 -20.09093,7.18365 -20.09093,7.18365"
     id="path9061"
     inkscape:connector-curvature="0" />
  <path
     style="fill:none;stroke:#ff0000;stroke-width:0.29942712;stroke-linecap:butt;stroke-linejoin:miter;stroke-miterlimit:4;stroke-dasharray:none;stroke-opacity:1"
     d="m 373.36819,733.98322 c -14.059,18.35993 -45.05291,21.27278 -45.05291,21.27278"
     id="path9063"
     inkscape:connector-curvature="0" />
  <path
     style="fill:none;stroke:#ff0000;stroke-width:0.29942712;stroke-linejoin:round;stroke-miterlimit:4;stroke-dasharray:none;stroke-opacity:1"
     d="m 812.97869,144.97381 c -0.24967,-0.22753 -6.48816,-0.25835 -13.86541,-0.0729 -7.3772,0.18561 -81.40967,1.95228 -164.51694,3.92532 -83.10721,1.97299 -151.43392,3.75277 -151.43392,3.75277 m -0.28353,153.76285 c -1.55959,25.15781 6.17499,50.19038 13.17303,69.02263 10.29342,27.40633 27.56745,62.41072 38.24194,77.49407 6.88721,9.73157 34.0503,34.20535 87.47992,78.81914 8.50464,7.10104 16.4445,13.84264 17.64457,14.98218 1.19943,1.13829 2.52612,2.22539 2.94751,2.41466 0.42154,0.18934 11.04295,8.77311 23.60201,19.07248 21.36029,17.51774 40.85003,33.35837 64.90521,52.75338 5.57836,4.4976 10.321,8.07682 10.53948,7.9541 0.21897,-0.12145 1.04313,-1.11854 1.83561,-2.2073 v 0 c 0.79248,-1.08878 6.5044,-9.1332 12.69525,-17.87266 38.60944,-54.50429 64.28991,-92.99746 71.64391,-107.39084 4.4661,-8.74041 15.39008,-45.14381 25.56934,-85.21114 3.94381,-15.5193 6.6149,-22.69885 13.616,-36.5905 2.11332,-4.19283 1.8254,-3.77953 3.33109,-6.11147"
     id="path5888-6"
     inkscape:connector-curvature="0"
     sodipodi:nodetypes="ccsccccccccccccccccc" />
  <path
     inkscape:connector-curvature="0"
     style="fill:none;stroke:#ff0000;stroke-width:0.29942712;stroke-linecap:butt;stroke-linejoin:round;stroke-miterlimit:4;stroke-dasharray:none;stroke-opacity:1"
     d="m 844.51867,187.65589 c -18.48404,4.84169 -12.83174,24.2088 -12.83174,24.2088"
     id="path6572-1" />
  <path
     inkscape:connector-curvature="0"
     style="fill:none;stroke:#ff0000;stroke-width:0.29942712;stroke-linecap:butt;stroke-linejoin:round;stroke-miterlimit:4;stroke-dasharray:none;stroke-opacity:1"
     d="m 895.66542,312.51783 c -33.00669,10.16604 -41.03669,-18.19437 -41.03669,-18.19437"
     id="path6614-3" />
  <path
     inkscape:connector-curvature="0"
     style="fill:none;stroke:#ff0000;stroke-width:0.29942712;stroke-linecap:butt;stroke-linejoin:miter;stroke-miterlimit:4;stroke-dasharray:none;stroke-opacity:1"
     d="m 831.68693,211.86469 22.9418,82.45877"
     id="path7895-9" />
  <path
     style="fill:none;fill-opacity:1;stroke:#ff0000;stroke-width:0.29942712;stroke-linejoin:round;stroke-miterlimit:4;stroke-dasharray:none;stroke-opacity:1"
     d="m 566.93113,36.16815 h 278.32386 m 0,-35.99184144 H 550.36544"
     id="rect8917-8"
     inkscape:connector-curvature="0"
     sodipodi:nodetypes="cccc" />
  <path
     style="fill:none;fill-opacity:1;stroke:#ff0000;stroke-width:0.29942712;stroke-linejoin:round;stroke-miterlimit:4;stroke-dasharray:none;stroke-opacity:1"
     d="M 566.68752,82.88805 H 799.12461 M 823.02646,48.302257 566.68752,46.882343"
     id="rect8917-0-4"
     inkscape:connector-curvature="0"
     sodipodi:nodetypes="cccc" />
  <path
     style="fill:none;fill-opacity:1;stroke:#ff0000;stroke-width:0.29942712;stroke-linejoin:round;stroke-miterlimit:4;stroke-dasharray:none;stroke-opacity:1"
     d="m 798.64649,93.41029 -286.85106,-0.66934 -14.72581,36.00595 301.57687,0.66935"
     id="rect8917-0-6-5"
     inkscape:connector-curvature="0"
     sodipodi:nodetypes="cccc" />
  <path
     style="fill:none;stroke:#ff0000;stroke-width:0.29942712;stroke-linecap:butt;stroke-linejoin:miter;stroke-miterlimit:4;stroke-dasharray:none;stroke-opacity:1"
     d="m 566.93113,36.168144 c -18.23327,4.594681 -0.24361,10.714199 -0.24361,10.714199"
     id="path8949-8"
     inkscape:connector-curvature="0" />
  <path
     style="fill:none;stroke:#ff0000;stroke-width:0.29942712;stroke-linecap:butt;stroke-linejoin:round;stroke-miterlimit:4;stroke-dasharray:none;stroke-opacity:1"
     d="M 550.36544,0.17630856 C 458.31804,47.753768 566.68752,82.88805 566.68752,82.88805"
     id="path8951-4"
     inkscape:connector-curvature="0"
     sodipodi:nodetypes="cc" />
  <path
     style="fill:none;stroke:#ff0000;stroke-width:0.29942712;stroke-linecap:butt;stroke-linejoin:miter;stroke-miterlimit:4;stroke-dasharray:none;stroke-opacity:1"
     d="m 799.12461,82.88805 c 28.10817,5.81726 -0.47812,10.52224 -0.47812,10.52224"
     id="path8953-1"
     inkscape:connector-curvature="0" />
  <path
     style="fill:none;stroke:#ff0000;stroke-width:0.29942712;stroke-linecap:butt;stroke-linejoin:miter;stroke-miterlimit:4;stroke-dasharray:none;stroke-opacity:1"
     d="M 823.02646,48.302257 C 920.41274,89.95789 798.64649,129.41625 798.64649,129.41625"
     id="path8955-8"
     inkscape:connector-curvature="0"
     sodipodi:nodetypes="cc" />
  <path
     style="fill:none;stroke:#ff0000;stroke-width:0.29942712;stroke-linecap:butt;stroke-linejoin:miter;stroke-miterlimit:4;stroke-dasharray:none;stroke-opacity:1"
     d="M 812.97869,144.97381 C 997.41219,57.693166 845.25499,36.168144 845.25499,36.168144"
     id="path8957-7"
     inkscape:connector-curvature="0" />
  <path
     style="fill:none;stroke:#ff0000;stroke-width:0.29942712;stroke-linecap:butt;stroke-linejoin:miter;stroke-miterlimit:4;stroke-dasharray:none;stroke-opacity:1"
     d="M 844.51867,187.65589 C 1112.5448,24.447324 845.25499,0.17630856 845.25499,0.17630856"
     id="path8959-4"
     inkscape:connector-curvature="0" />
  <path
     style="fill:none;fill-opacity:1;stroke:#ff0000;stroke-width:0.29942712;stroke-linejoin:round;stroke-miterlimit:4;stroke-dasharray:none;stroke-opacity:1"
     d="m 909.25066,385.78413 v 135.9816 m 45.61877,0 v -135.9816"
     id="rect8964-8"
     inkscape:connector-curvature="0"
     sodipodi:nodetypes="cccc" />
  <path
     style="fill:none;fill-opacity:1;stroke:#ff0000;stroke-width:0.29942712;stroke-linejoin:round;stroke-miterlimit:4;stroke-dasharray:none;stroke-opacity:1"
     d="m 907.49542,533.61638 -67.99076,117.76356 m 39.5071,22.80946 67.9908,-117.76357"
     id="rect8964-2-8"
     inkscape:connector-curvature="0"
     sodipodi:nodetypes="cccc" />
  <path
     style="fill:none;fill-opacity:1;stroke:#ff0000;stroke-width:0.29942712;stroke-linejoin:round;stroke-miterlimit:4;stroke-dasharray:none;stroke-opacity:1"
     d="M 815.30925,655.87943 H 679.32754 m 0,45.61891 h 135.98171"
     id="rect8964-6-5"
     inkscape:connector-curvature="0"
     sodipodi:nodetypes="cccc" />
  <path
     style="fill:none;fill-opacity:1;stroke:#ff0000;stroke-width:0.29942712;stroke-linejoin:round;stroke-miterlimit:4;stroke-dasharray:none;stroke-opacity:1"
     d="m 631.78074,683.70302 -93.10551,-76.60358 m 26.20917,-30.62659 93.10549,76.60358"
     id="rect8964-2-3-4"
     inkscape:connector-curvature="0"
     sodipodi:nodetypes="cccc" />
  <path
     style="fill:none;fill-opacity:1;stroke:#ff0000;stroke-width:0.29942712;stroke-linejoin:round;stroke-miterlimit:4;stroke-dasharray:none;stroke-opacity:1"
     d="m 526.90049,623.93774 88.67502,78.63375 m -24.96196,31.43834 -88.67501,-78.63378"
     id="rect8964-2-3-6-8"
     inkscape:connector-curvature="0"
     sodipodi:nodetypes="cccc" />
  <path
     style="fill:none;fill-opacity:1;stroke:#ff0000;stroke-width:0.29942712;stroke-linejoin:round;stroke-miterlimit:4;stroke-dasharray:none;stroke-opacity:1"
     d="m 635.66648,755.28257 271.03989,0.47328 21.29873,-46.00077 H 635.66648"
     id="rect8964-6-4-5"
     inkscape:connector-curvature="0"
     sodipodi:nodetypes="cccc" />
  <path
     style="fill:none;stroke:#ff0000;stroke-width:0.29942712;stroke-linecap:butt;stroke-linejoin:miter;stroke-miterlimit:4;stroke-dasharray:none;stroke-opacity:1"
     d="m 895.66542,312.51783 c 52.72042,-39.90753 59.20401,73.2663 59.20401,73.2663"
     id="path9041-6"
     inkscape:connector-curvature="0" />
  <path
     style="fill:none;stroke:#ff0000;stroke-width:0.29942712;stroke-linecap:butt;stroke-linejoin:miter;stroke-miterlimit:4;stroke-dasharray:none;stroke-opacity:1"
     d="m 909.25066,521.76573 c 2.82263,6.87241 -1.75524,11.85065 -1.75524,11.85065"
     id="path9045-7"
     inkscape:connector-curvature="0" />
  <path
     style="fill:none;stroke:#ff0000;stroke-width:0.29942712;stroke-linecap:butt;stroke-linejoin:miter;stroke-miterlimit:4;stroke-dasharray:none;stroke-opacity:1"
     d="m 954.86943,521.76573 c 1.38124,19.42283 -7.86687,34.6601 -7.86687,34.6601"
     id="path9047-7"
     inkscape:connector-curvature="0" />
  <path
     style="fill:none;stroke:#ff0000;stroke-width:0.29942712;stroke-linecap:butt;stroke-linejoin:miter;stroke-miterlimit:4;stroke-dasharray:none;stroke-opacity:1"
     d="m 839.50466,651.37994 c -7.41917,7.11292 -24.19541,4.49949 -24.19541,4.49949"
     id="path9049-5"
     inkscape:connector-curvature="0" />
  <path
     style="fill:none;stroke:#ff0000;stroke-width:0.29942712;stroke-linecap:butt;stroke-linejoin:miter;stroke-miterlimit:4;stroke-dasharray:none;stroke-opacity:1"
     d="m 879.01167,674.1894 c -22.82936,19.44451 -63.70242,27.30894 -63.70242,27.30894"
     id="path9051-2"
     inkscape:connector-curvature="0" />
  <path
     style="fill:none;stroke:#ff0000;stroke-width:0.29942712;stroke-linecap:butt;stroke-linejoin:miter;stroke-miterlimit:4;stroke-dasharray:none;stroke-opacity:1"
     d="m 679.32754,655.87943 c -10.56435,2.2787 -21.33765,-2.80308 -21.33765,-2.80308"
     id="path9053-2"
     inkscape:connector-curvature="0" />
  <path
     style="fill:none;stroke:#ff0000;stroke-width:0.29942712;stroke-linecap:butt;stroke-linejoin:miter;stroke-miterlimit:4;stroke-dasharray:none;stroke-opacity:1"
     d="m 679.32754,701.49834 c -27.29816,-1.17092 -47.5468,-17.79532 -47.5468,-17.79532"
     id="path9055-6"
     inkscape:connector-curvature="0" />
  <path
     style="fill:none;stroke:#ff0000;stroke-width:0.29942712;stroke-linecap:butt;stroke-linejoin:miter;stroke-miterlimit:4;stroke-dasharray:none;stroke-opacity:1"
     d="m 538.67523,607.09944 c -21.85536,-4.49767 -11.77474,16.8383 -11.77474,16.8383"
     id="path9057-1"
     inkscape:connector-curvature="0" />
  <path
     style="fill:none;stroke:#ff0000;stroke-width:0.29942712;stroke-linecap:butt;stroke-linejoin:miter;stroke-miterlimit:4;stroke-dasharray:none;stroke-opacity:1"
     d="m 564.8844,576.47285 c -119.35071,-27.75403 -62.94586,78.9032 -62.94586,78.9032"
     id="path9059-1"
     inkscape:connector-curvature="0" />
  <path
     style="fill:none;stroke:#ff0000;stroke-width:0.29942712;stroke-linecap:butt;stroke-linejoin:miter;stroke-miterlimit:4;stroke-dasharray:none;stroke-opacity:1"
     d="m 615.57551,702.57149 c 7.16964,7.12695 20.09097,7.18359 20.09097,7.18359"
     id="path9061-2"
     inkscape:connector-curvature="0" />
  <path
     style="fill:none;stroke:#ff0000;stroke-width:0.29942712;stroke-linecap:butt;stroke-linejoin:miter;stroke-miterlimit:4;stroke-dasharray:none;stroke-opacity:1"
     d="m 590.61355,734.00983 c 14.05898,18.35993 45.05293,21.27274 45.05293,21.27274"
     id="path9063-5"
     inkscape:connector-curvature="0" />
  <path
     style="fill:none;stroke:#ff0000;stroke-width:0.29942712;stroke-linecap:butt;stroke-linejoin:miter;stroke-miterlimit:4;stroke-dasharray:none;stroke-opacity:1"
     d="m 480.81932,152.55249 2.3431,0.0268"
     id="path9179"
     inkscape:connector-curvature="0" />
  <path
     style="fill:none;stroke:#ff0000;stroke-width:0.29942712;stroke-linecap:butt;stroke-linejoin:miter;stroke-miterlimit:4;stroke-dasharray:none;stroke-opacity:1"
     d="m 481.10288,306.31536 c 0.42228,-9.80737 1.77601,0.0268 1.77601,0.0268"
     id="path9181"
     inkscape:connector-curvature="0" />
  <path
     style="fill:none;fill-opacity:1;stroke:#ff0000;stroke-width:0.29942712;stroke-linejoin:round;stroke-miterlimit:4;stroke-dasharray:none;stroke-opacity:1"
     d="M 54.731068,385.75752 C 62.357902,351.93997 93.87643,373.4465 93.87643,373.4465"
     id="path882"
     inkscape:connector-curvature="0" />
  <path
     style="fill:none;fill-opacity:1;stroke:#ff0000;stroke-width:0.29942712;stroke-linejoin:round;stroke-miterlimit:4;stroke-dasharray:none;stroke-opacity:1"
     d="m 870.10376,373.47068 c 27.16513,-23.77931 39.1469,12.31346 39.1469,12.31346"
     id="path884"
     inkscape:connector-curvature="0" />
</svg>
