<?xml version="1.0" encoding="UTF-8" standalone="no"?>
<!-- Created with Inkscape (http://www.inkscape.org/) -->

<svg
   xmlns:dc="http://purl.org/dc/elements/1.1/"
   xmlns:cc="http://creativecommons.org/ns#"
   xmlns:rdf="http://www.w3.org/1999/02/22-rdf-syntax-ns#"
   xmlns:svg="http://www.w3.org/2000/svg"
   xmlns="http://www.w3.org/2000/svg"
   xmlns:sodipodi="http://sodipodi.sourceforge.net/DTD/sodipodi-0.dtd"
   xmlns:inkscape="http://www.inkscape.org/namespaces/inkscape"
   version="1.1"
   id="svg4504"
   width="286.93515mm"
   height="225mm"
   viewBox="0 0 1084.4794 850.39367"
   sodipodi:docname="Mask_225_001.svg"
   inkscape:version="0.92.2 (5c3e80d, 2017-08-06)">
  <metadata
     id="metadata4510">
    <rdf:RDF>
      <cc:Work
         rdf:about="">
        <dc:format>image/svg+xml</dc:format>
        <dc:type
           rdf:resource="http://purl.org/dc/dcmitype/StillImage" />
        <dc:title></dc:title>
      </cc:Work>
    </rdf:RDF>
  </metadata>
  <defs
     id="defs4508" />
  <sodipodi:namedview
     pagecolor="#ffffff"
     bordercolor="#666666"
     borderopacity="1"
     objecttolerance="10"
     gridtolerance="10"
     guidetolerance="10"
     inkscape:pageopacity="0"
     inkscape:pageshadow="2"
     inkscape:window-width="2560"
     inkscape:window-height="1315"
     id="namedview4506"
     showgrid="false"
     inkscape:zoom="1.1835804"
     inkscape:cx="802.93465"
     inkscape:cy="551.15766"
     inkscape:window-x="-13"
     inkscape:window-y="-13"
     inkscape:window-maximized="1"
     inkscape:current-layer="svg4504"
     inkscape:document-units="mm"
     units="mm" />
  <path
     style="fill:none;stroke:#ff0000;stroke-width:0.33685547;stroke-linejoin:round;stroke-miterlimit:4;stroke-dasharray:none;stroke-opacity:1"
     d="m 169.87835,163.0656 c 0.28092,-0.25597 7.29923,-0.29064 15.59864,-0.0819 8.29939,0.20881 91.58589,2.19632 185.08152,4.41598 93.49559,2.21962 170.36319,4.22188 170.36319,4.22188"
     id="path9868"
     inkscape:connector-curvature="0"
     sodipodi:nodetypes="ccsc" />
  <path
     style="fill:none;stroke:#ff0000;stroke-width:0.33685547;stroke-linecap:butt;stroke-linejoin:round;stroke-miterlimit:4;stroke-dasharray:none;stroke-opacity:1"
     d="m 134.39603,211.08293 c 20.79451,5.44691 14.43556,27.23492 14.43556,27.23492"
     id="path6572"
     inkscape:connector-curvature="0" />
  <path
     style="fill:none;stroke:#ff0000;stroke-width:0.33685547;stroke-linecap:butt;stroke-linejoin:round;stroke-miterlimit:4;stroke-dasharray:none;stroke-opacity:1"
     d="m 76.855866,351.55262 c 37.132484,11.4368 46.166174,-20.46865 46.166174,-20.46865"
     id="path6614"
     inkscape:connector-curvature="0" />
  <path
     style="fill:none;stroke:#ff0000;stroke-width:0.33685547;stroke-linecap:butt;stroke-linejoin:miter;stroke-miterlimit:4;stroke-dasharray:none;stroke-opacity:1"
     d="m 148.83159,238.31785 -25.80955,92.76612"
     id="path7895"
     inkscape:connector-curvature="0" />
  <path
     style="fill:none;fill-opacity:1;stroke:#ff0000;stroke-width:0.33685547;stroke-linejoin:round;stroke-miterlimit:4;stroke-dasharray:none;stroke-opacity:1"
     d="M 446.68191,40.659258 H 133.56758 m 0,-40.49083026 h 331.7507"
     id="rect8917"
     inkscape:connector-curvature="0"
     sodipodi:nodetypes="cccc" />
  <path
     style="fill:none;fill-opacity:1;stroke:#ff0000;stroke-width:0.33685547;stroke-linejoin:round;stroke-miterlimit:4;stroke-dasharray:none;stroke-opacity:1"
     d="M 446.95594,93.219118 H 185.46425 m -26.88962,-38.909 288.38131,-1.5974"
     id="rect8917-0"
     inkscape:connector-curvature="0"
     sodipodi:nodetypes="cccc" />
  <path
     style="fill:none;fill-opacity:1;stroke:#ff0000;stroke-width:0.33685547;stroke-linejoin:round;stroke-miterlimit:4;stroke-dasharray:none;stroke-opacity:1"
     d="m 186.00214,105.05665 322.7074,-0.75301 16.56651,40.50668 -339.27391,0.75302"
     id="rect8917-0-6"
     inkscape:connector-curvature="0"
     sodipodi:nodetypes="cccc" />
  <path
     style="fill:none;stroke:#ff0000;stroke-width:0.33685547;stroke-linecap:butt;stroke-linejoin:miter;stroke-miterlimit:4;stroke-dasharray:none;stroke-opacity:1"
     d="m 446.68191,40.659248 c 20.51245,5.16901 0.27404,12.05347 0.27404,12.05347"
     id="path8949"
     inkscape:connector-curvature="0" />
  <path
     style="fill:none;stroke:#ff0000;stroke-width:0.33685547;stroke-linecap:butt;stroke-linejoin:round;stroke-miterlimit:4;stroke-dasharray:none;stroke-opacity:1"
     d="M 465.31828,0.16842774 C 568.87162,53.693078 446.95595,93.219118 446.95595,93.219118"
     id="path8951"
     inkscape:connector-curvature="0"
     sodipodi:nodetypes="cc" />
  <path
     style="fill:none;stroke:#ff0000;stroke-width:0.33685547;stroke-linecap:butt;stroke-linejoin:miter;stroke-miterlimit:4;stroke-dasharray:none;stroke-opacity:1"
     d="m 185.46425,93.219118 c -31.62164,6.54443 0.53789,11.837532 0.53789,11.837532"
     id="path8953"
     inkscape:connector-curvature="0" />
  <path
     style="fill:none;stroke:#ff0000;stroke-width:0.33685547;stroke-linecap:butt;stroke-linejoin:miter;stroke-miterlimit:4;stroke-dasharray:none;stroke-opacity:1"
     d="M 158.57463,54.310118 C 49.015091,101.1727 186.00214,145.56334 186.00214,145.56334"
     id="path8955"
     inkscape:connector-curvature="0"
     sodipodi:nodetypes="cc" />
  <path
     style="fill:none;stroke:#ff0000;stroke-width:0.33685547;stroke-linecap:butt;stroke-linejoin:miter;stroke-miterlimit:4;stroke-dasharray:none;stroke-opacity:1"
     d="M 169.87835,163.0656 C -37.609168,64.874898 133.56758,40.659248 133.56758,40.659248"
     id="path8957"
     inkscape:connector-curvature="0" />
  <path
     style="fill:none;stroke:#ff0000;stroke-width:0.33685547;stroke-linecap:butt;stroke-linejoin:miter;stroke-miterlimit:4;stroke-dasharray:none;stroke-opacity:1"
     d="M 134.39603,211.08293 C -167.1335,27.473328 133.56758,0.16842774 133.56758,0.16842774"
     id="path8959"
     inkscape:connector-curvature="0" />
  <path
     style="fill:none;fill-opacity:1;stroke:#ff0000;stroke-width:0.33685547;stroke-linejoin:round;stroke-miterlimit:4;stroke-dasharray:none;stroke-opacity:1"
     d="m 61.572443,586.95652 3.906308,-154.15594 c 3.428062,-36.11828 38.924139,-14.09579 39.755709,-11.3307 2.07039,2.8116 1.74665,2.34653 4.12401,7.0636 7.87643,15.62804 10.88117,22.17427 15.31796,39.63348 11.45166,45.07573 23.74113,86.02961 28.76543,95.86254 8.27324,16.19259 37.16379,59.49734 80.59947,120.81464 6.96465,9.83193 13.39056,18.88189 14.28213,20.10677 l 0.002,-0.003 c 0.8915,1.22485 1.81868,2.34662 2.06507,2.48322 0.24579,0.13806 5.58127,-3.88857 11.85688,-8.94833 27.06206,-21.81942 48.98808,-39.64013 73.01844,-59.34758 14.12888,-11.58682 26.07798,-21.24357 26.55219,-21.4565 0.4741,-0.21298 1.96662,-1.43599 3.31598,-2.71654 1.35009,-1.282 10.28243,-8.86624 19.85014,-16.85498 60.10834,-50.19045 90.66682,-77.72346 98.4149,-88.67149 12.00883,-16.96879 31.44205,-56.34867 43.02216,-87.18079 7.87279,-21.18633 16.57422,-49.34796 14.81969,-77.65049 M 10.251243,586.95652 V 433.97718"
     id="rect8964"
     inkscape:connector-curvature="0"
     sodipodi:nodetypes="cccscccccccccccccccc" />
  <path
     style="fill:none;fill-opacity:1;stroke:#ff0000;stroke-width:0.33685547;stroke-linejoin:round;stroke-miterlimit:4;stroke-dasharray:none;stroke-opacity:1"
     d="M 63.547036,600.28853 140.0367,732.77252 M 95.591241,758.43312 19.101577,625.94913"
     id="rect8964-2"
     inkscape:connector-curvature="0"
     sodipodi:nodetypes="cccc" />
  <path
     style="fill:none;fill-opacity:1;stroke:#ff0000;stroke-width:0.33685547;stroke-linejoin:round;stroke-miterlimit:4;stroke-dasharray:none;stroke-opacity:1"
     d="m 167.25657,737.83445 h 152.97934 m 0,51.3212 H 167.25657"
     id="rect8964-6"
     inkscape:connector-curvature="0"
     sodipodi:nodetypes="cccc" />
  <path
     style="fill:none;fill-opacity:1;stroke:#ff0000;stroke-width:0.33685547;stroke-linejoin:round;stroke-miterlimit:4;stroke-dasharray:none;stroke-opacity:1"
     d="m 373.72607,769.13597 104.7437,-86.17901 m -29.48529,-34.45498 -104.74371,86.17901"
     id="rect8964-2-3"
     inkscape:connector-curvature="0"
     sodipodi:nodetypes="cccc" />
  <path
     style="fill:none;fill-opacity:1;stroke:#ff0000;stroke-width:0.33685547;stroke-linejoin:round;stroke-miterlimit:4;stroke-dasharray:none;stroke-opacity:1"
     d="m 491.71635,701.90004 -99.75939,88.46291 m 28.08222,35.3681 99.75938,-88.46291"
     id="rect8964-2-3-6"
     inkscape:connector-curvature="0"
     sodipodi:nodetypes="cccc" />
  <path
     style="fill:none;fill-opacity:1;stroke:#ff0000;stroke-width:0.33685547;stroke-linejoin:round;stroke-miterlimit:4;stroke-dasharray:none;stroke-opacity:1"
     d="M 369.35466,849.66293 64.434741,850.19539 40.473691,798.44456 H 369.35466"
     id="rect8964-6-4"
     inkscape:connector-curvature="0"
     sodipodi:nodetypes="cccc" />
  <path
     style="fill:none;stroke:#ff0000;stroke-width:0.33685547;stroke-linecap:butt;stroke-linejoin:miter;stroke-miterlimit:4;stroke-dasharray:none;stroke-opacity:1"
     d="M 76.855866,351.55262 C 17.545419,306.65666 10.251243,433.97718 10.251243,433.97718"
     id="path9041"
     inkscape:connector-curvature="0" />
  <path
     style="fill:none;stroke:#ff0000;stroke-width:0.33685547;stroke-linecap:butt;stroke-linejoin:miter;stroke-miterlimit:4;stroke-dasharray:none;stroke-opacity:1"
     d="m 61.572443,586.95651 c -0.546458,8.36381 1.974588,13.33203 1.974588,13.33203"
     id="path9045"
     inkscape:connector-curvature="0"
     sodipodi:nodetypes="cc" />
  <path
     style="fill:none;stroke:#ff0000;stroke-width:0.33685547;stroke-linecap:butt;stroke-linejoin:miter;stroke-miterlimit:4;stroke-dasharray:none;stroke-opacity:1"
     d="m 10.251243,586.95651 c -1.5538465,21.85069 8.850329,38.99262 8.850329,38.99262"
     id="path9047"
     inkscape:connector-curvature="0" />
  <path
     style="fill:none;stroke:#ff0000;stroke-width:0.33685547;stroke-linecap:butt;stroke-linejoin:miter;stroke-miterlimit:4;stroke-dasharray:none;stroke-opacity:1"
     d="m 140.0367,732.77253 c 7.45228,7.29601 27.21987,5.06192 27.21987,5.06192"
     id="path9049"
     inkscape:connector-curvature="0"
     sodipodi:nodetypes="cc" />
  <path
     style="fill:none;stroke:#ff0000;stroke-width:0.33685547;stroke-linecap:butt;stroke-linejoin:miter;stroke-miterlimit:4;stroke-dasharray:none;stroke-opacity:1"
     d="m 95.59125,758.43313 c 25.68311,21.87508 71.66532,30.72252 71.66532,30.72252"
     id="path9051"
     inkscape:connector-curvature="0" />
  <path
     style="fill:none;stroke:#ff0000;stroke-width:0.33685547;stroke-linecap:butt;stroke-linejoin:miter;stroke-miterlimit:4;stroke-dasharray:none;stroke-opacity:1"
     d="m 320.2359,737.83444 c 11.88493,0.68098 24.00487,-3.15346 24.00487,-3.15346"
     id="path9053"
     inkscape:connector-curvature="0"
     sodipodi:nodetypes="cc" />
  <path
     style="fill:none;stroke:#ff0000;stroke-width:0.33685547;stroke-linecap:butt;stroke-linejoin:miter;stroke-miterlimit:4;stroke-dasharray:none;stroke-opacity:1"
     d="m 320.2359,789.15565 c 30.71051,-1.31721 53.49017,-20.01969 53.49017,-20.01969"
     id="path9055"
     inkscape:connector-curvature="0" />
  <path
     style="fill:none;stroke:#ff0000;stroke-width:0.33685547;stroke-linecap:butt;stroke-linejoin:miter;stroke-miterlimit:4;stroke-dasharray:none;stroke-opacity:1"
     d="m 478.46977,682.95697 c 24.58732,-5.05989 13.24659,18.94308 13.24659,18.94308"
     id="path9057"
     inkscape:connector-curvature="0" />
  <path
     style="fill:none;stroke:#ff0000;stroke-width:0.33685547;stroke-linecap:butt;stroke-linejoin:miter;stroke-miterlimit:4;stroke-dasharray:none;stroke-opacity:1"
     d="m 448.98447,648.50199 c 139.32803,-33.61939 70.81409,88.76615 70.81409,88.76615"
     id="path9059"
     inkscape:connector-curvature="0"
     sodipodi:nodetypes="cc" />
  <path
     style="fill:none;stroke:#ff0000;stroke-width:0.33685547;stroke-linecap:butt;stroke-linejoin:miter;stroke-miterlimit:4;stroke-dasharray:none;stroke-opacity:1"
     d="m 391.95697,790.36296 c -8.0658,8.01781 -22.60231,8.0816 -22.60231,8.0816"
     id="path9061"
     inkscape:connector-curvature="0" />
  <path
     style="fill:none;stroke:#ff0000;stroke-width:0.33685547;stroke-linecap:butt;stroke-linejoin:miter;stroke-miterlimit:4;stroke-dasharray:none;stroke-opacity:1"
     d="m 420.03918,825.73105 c -15.81638,20.65494 -50.68452,23.93189 -50.68452,23.93189"
     id="path9063"
     inkscape:connector-curvature="0" />
  <path
     inkscape:connector-curvature="0"
     style="fill:none;stroke:#ff0000;stroke-width:0.33685547;stroke-linecap:butt;stroke-linejoin:round;stroke-miterlimit:4;stroke-dasharray:none;stroke-opacity:1"
     d="m 950.08336,211.11285 c -20.79451,5.44691 -14.43561,27.23492 -14.43561,27.23492"
     id="path6572-1" />
  <path
     inkscape:connector-curvature="0"
     style="fill:none;stroke:#ff0000;stroke-width:0.33685547;stroke-linecap:butt;stroke-linejoin:round;stroke-miterlimit:4;stroke-dasharray:none;stroke-opacity:1"
     d="m 1007.6235,351.58253 c -37.13252,11.4368 -46.16619,-20.46865 -46.16619,-20.46865"
     id="path6614-3" />
  <path
     inkscape:connector-curvature="0"
     style="fill:none;stroke:#ff0000;stroke-width:0.33685547;stroke-linecap:butt;stroke-linejoin:miter;stroke-miterlimit:4;stroke-dasharray:none;stroke-opacity:1"
     d="m 935.64775,238.34777 25.80956,92.76611"
     id="path7895-9" />
  <path
     style="fill:none;fill-opacity:1;stroke:#ff0000;stroke-width:0.33685547;stroke-linejoin:round;stroke-miterlimit:4;stroke-dasharray:none;stroke-opacity:1"
     d="m 637.79748,40.689168 h 313.11431 m 0,-40.49082026 H 619.16108"
     id="rect8917-8"
     inkscape:connector-curvature="0"
     sodipodi:nodetypes="cccc" />
  <path
     style="fill:none;fill-opacity:1;stroke:#ff0000;stroke-width:0.33685547;stroke-linejoin:round;stroke-miterlimit:4;stroke-dasharray:none;stroke-opacity:1"
     d="m 637.52342,93.249048 h 261.4917 m 26.8896,-38.90901 -288.3813,-1.59741"
     id="rect8917-0-4"
     inkscape:connector-curvature="0"
     sodipodi:nodetypes="cccc" />
  <path
     style="fill:none;fill-opacity:1;stroke:#ff0000;stroke-width:0.33685547;stroke-linejoin:round;stroke-miterlimit:4;stroke-dasharray:none;stroke-opacity:1"
     d="m 898.47725,105.08658 -322.70742,-0.75302 -16.56654,40.50669 339.27396,0.75302"
     id="rect8917-0-6-5"
     inkscape:connector-curvature="0"
     sodipodi:nodetypes="cccc" />
  <path
     style="fill:none;stroke:#ff0000;stroke-width:0.33685547;stroke-linecap:butt;stroke-linejoin:miter;stroke-miterlimit:4;stroke-dasharray:none;stroke-opacity:1"
     d="m 637.79748,40.689158 c -20.51243,5.16902 -0.27406,12.05347 -0.27406,12.05347"
     id="path8949-8"
     inkscape:connector-curvature="0" />
  <path
     style="fill:none;stroke:#ff0000;stroke-width:0.33685547;stroke-linecap:butt;stroke-linejoin:round;stroke-miterlimit:4;stroke-dasharray:none;stroke-opacity:1"
     d="M 619.16108,0.19834774 C 515.60776,53.722988 637.52342,93.249048 637.52342,93.249048"
     id="path8951-4"
     inkscape:connector-curvature="0"
     sodipodi:nodetypes="cc" />
  <path
     style="fill:none;stroke:#ff0000;stroke-width:0.33685547;stroke-linecap:butt;stroke-linejoin:miter;stroke-miterlimit:4;stroke-dasharray:none;stroke-opacity:1"
     d="m 899.01512,93.249048 c 31.62168,6.54443 -0.53787,11.837532 -0.53787,11.837532"
     id="path8953-1"
     inkscape:connector-curvature="0" />
  <path
     style="fill:none;stroke:#ff0000;stroke-width:0.33685547;stroke-linecap:butt;stroke-linejoin:miter;stroke-miterlimit:4;stroke-dasharray:none;stroke-opacity:1"
     d="M 925.90472,54.340038 C 1035.4643,101.20263 898.47725,145.59327 898.47725,145.59327"
     id="path8955-8"
     inkscape:connector-curvature="0"
     sodipodi:nodetypes="cc" />
  <path
     style="fill:none;stroke:#ff0000;stroke-width:0.33685547;stroke-linecap:butt;stroke-linejoin:miter;stroke-miterlimit:4;stroke-dasharray:none;stroke-opacity:1"
     d="M 914.60101,163.09553 C 1122.0886,64.904808 950.91179,40.689158 950.91179,40.689158"
     id="path8957-7"
     inkscape:connector-curvature="0" />
  <path
     style="fill:none;stroke:#ff0000;stroke-width:0.33685547;stroke-linecap:butt;stroke-linejoin:miter;stroke-miterlimit:4;stroke-dasharray:none;stroke-opacity:1"
     d="M 950.08336,211.11285 C 1251.6128,27.503238 950.91179,0.19834774 950.91179,0.19834774"
     id="path8959-4"
     inkscape:connector-curvature="0" />
  <path
     style="fill:none;fill-opacity:1;stroke:#ff0000;stroke-width:0.33685547;stroke-linejoin:round;stroke-miterlimit:4;stroke-dasharray:none;stroke-opacity:1"
     d="M 1074.2282,586.98643 V 434.00712"
     id="rect8964-8"
     inkscape:connector-curvature="0"
     sodipodi:nodetypes="cc" />
  <path
     style="fill:none;fill-opacity:1;stroke:#ff0000;stroke-width:0.33685547;stroke-linejoin:round;stroke-miterlimit:4;stroke-dasharray:none;stroke-opacity:1"
     d="M 988.88817,758.46302 1065.3778,625.97903"
     id="rect8964-2-8"
     inkscape:connector-curvature="0"
     sodipodi:nodetypes="cc" />
  <path
     style="fill:none;fill-opacity:1;stroke:#ff0000;stroke-width:0.33685547;stroke-linejoin:round;stroke-miterlimit:4;stroke-dasharray:none;stroke-opacity:1"
     d="M 917.22283,737.86432 H 764.24344 m 0,51.32127 h 152.97939"
     id="rect8964-6-5"
     inkscape:connector-curvature="0"
     sodipodi:nodetypes="cccc" />
  <path
     style="fill:none;fill-opacity:1;stroke:#ff0000;stroke-width:0.33685547;stroke-linejoin:round;stroke-miterlimit:4;stroke-dasharray:none;stroke-opacity:1"
     d="M 710.75328,769.16585 606.00959,682.98682 m 29.48531,-34.45491 104.74369,86.17903"
     id="rect8964-2-3-4"
     inkscape:connector-curvature="0"
     sodipodi:nodetypes="cccc" />
  <path
     style="fill:none;fill-opacity:1;stroke:#ff0000;stroke-width:0.33685547;stroke-linejoin:round;stroke-miterlimit:4;stroke-dasharray:none;stroke-opacity:1"
     d="m 592.76301,701.92991 99.75939,88.46298 m -28.0822,35.3681 -99.75939,-88.46298"
     id="rect8964-2-3-6-8"
     inkscape:connector-curvature="0"
     sodipodi:nodetypes="cccc" />
  <path
     style="fill:none;fill-opacity:1;stroke:#ff0000;stroke-width:0.33685547;stroke-linejoin:round;stroke-miterlimit:4;stroke-dasharray:none;stroke-opacity:1"
     d="m 715.12475,849.69284 304.91985,0.53244 23.9611,-51.75086 H 715.12475"
     id="rect8964-6-4-5"
     inkscape:connector-curvature="0"
     sodipodi:nodetypes="cccc" />
  <path
     style="fill:none;stroke:#ff0000;stroke-width:0.33685547;stroke-linecap:butt;stroke-linejoin:miter;stroke-miterlimit:4;stroke-dasharray:none;stroke-opacity:1"
     d="m 1007.6235,351.58253 c 59.3105,-44.89596 66.6047,82.42459 66.6047,82.42459"
     id="path9041-6"
     inkscape:connector-curvature="0" />
  <path
     style="fill:none;stroke:#ff0000;stroke-width:0.33685547;stroke-linecap:butt;stroke-linejoin:miter;stroke-miterlimit:4;stroke-dasharray:none;stroke-opacity:1"
     d="m 1074.2282,586.98643 c 1.5538,21.85066 -8.8504,38.9926 -8.8504,38.9926"
     id="path9047-7"
     inkscape:connector-curvature="0" />
  <path
     style="fill:none;stroke:#ff0000;stroke-width:0.33685547;stroke-linecap:butt;stroke-linejoin:miter;stroke-miterlimit:4;stroke-dasharray:none;stroke-opacity:1"
     d="m 944.44264,732.80239 c -8.3465,8.00203 -27.21981,5.06193 -27.21981,5.06193"
     id="path9049-5"
     inkscape:connector-curvature="0" />
  <path
     style="fill:none;stroke:#ff0000;stroke-width:0.33685547;stroke-linecap:butt;stroke-linejoin:miter;stroke-miterlimit:4;stroke-dasharray:none;stroke-opacity:1"
     d="m 988.88808,758.46302 c -25.68309,21.87508 -71.66525,30.72257 -71.66525,30.72257"
     id="path9051-2"
     inkscape:connector-curvature="0" />
  <path
     style="fill:none;stroke:#ff0000;stroke-width:0.33685547;stroke-linecap:butt;stroke-linejoin:miter;stroke-miterlimit:4;stroke-dasharray:none;stroke-opacity:1"
     d="m 764.24344,737.86432 c -11.88491,2.56354 -24.00485,-3.15347 -24.00485,-3.15347"
     id="path9053-2"
     inkscape:connector-curvature="0" />
  <path
     style="fill:none;stroke:#ff0000;stroke-width:0.33685547;stroke-linecap:butt;stroke-linejoin:miter;stroke-miterlimit:4;stroke-dasharray:none;stroke-opacity:1"
     d="M 764.24344,789.18559 C 733.53299,787.8683 710.75328,769.16585 710.75328,769.16585"
     id="path9055-6"
     inkscape:connector-curvature="0" />
  <path
     style="fill:none;stroke:#ff0000;stroke-width:0.33685547;stroke-linecap:butt;stroke-linejoin:miter;stroke-miterlimit:4;stroke-dasharray:none;stroke-opacity:1"
     d="m 606.00959,682.98682 c -24.58728,-5.05988 -13.24658,18.94309 -13.24658,18.94309"
     id="path9057-1"
     inkscape:connector-curvature="0" />
  <path
     style="fill:none;stroke:#ff0000;stroke-width:0.33685547;stroke-linecap:butt;stroke-linejoin:miter;stroke-miterlimit:4;stroke-dasharray:none;stroke-opacity:1"
     d="m 635.4949,648.53191 c -138.79553,-39.21028 -70.81409,88.7661 -70.81409,88.7661"
     id="path9059-1"
     inkscape:connector-curvature="0"
     sodipodi:nodetypes="cc" />
  <path
     style="fill:none;stroke:#ff0000;stroke-width:0.33685547;stroke-linecap:butt;stroke-linejoin:miter;stroke-miterlimit:4;stroke-dasharray:none;stroke-opacity:1"
     d="m 692.5224,790.39289 c 8.06584,8.01781 22.60235,8.08153 22.60235,8.08153"
     id="path9061-2"
     inkscape:connector-curvature="0" />
  <path
     style="fill:none;stroke:#ff0000;stroke-width:0.33685547;stroke-linecap:butt;stroke-linejoin:miter;stroke-miterlimit:4;stroke-dasharray:none;stroke-opacity:1"
     d="m 664.4402,825.76099 c 15.81636,20.65494 50.68455,23.93185 50.68455,23.93185"
     id="path9063-5"
     inkscape:connector-curvature="0" />
  <path
     style="fill:none;stroke:#ff0000;stroke-width:0.33685547;stroke-linecap:butt;stroke-linejoin:miter;stroke-miterlimit:4;stroke-dasharray:none;stroke-opacity:1"
     d="m 540.9217,171.62155 2.63599,0.0299"
     id="path9179"
     inkscape:connector-curvature="0" />
  <path
     style="fill:none;stroke:#ff0000;stroke-width:0.33685547;stroke-linecap:butt;stroke-linejoin:miter;stroke-miterlimit:4;stroke-dasharray:none;stroke-opacity:1"
     d="m 541.24069,344.60476 c 0.47508,-11.0333 1.99802,0.0299 1.99802,0.0299"
     id="path9181"
     inkscape:connector-curvature="0" />
  <g
     id="g9876"
     transform="matrix(0.89126345,0,0,0.89126345,1.088827e-6,-2.264433e-6)">
    <path
       sodipodi:nodetypes="ccccccccccccccaccaacccsc"
       inkscape:connector-curvature="0"
       d="m 609.5153,386.68103 c -1.9686,31.75552 7.7944,63.35293 16.6277,87.12403 12.9929,34.5937 34.7971,78.7781 48.271,97.8171 8.6934,12.2837 42.9801,43.1758 110.4218,99.4897 10.735,8.9633 20.7571,17.4729 22.2719,18.9113 1.514,1.4368 3.1886,2.809 3.7205,3.0479 0.5321,0.239 13.939,11.0739 29.7917,24.0743 26.9621,22.1118 51.5631,42.1067 81.9268,66.5881 7.0413,5.6771 13.0277,10.195 13.3035,10.0401 0.2764,-0.1533 1.3167,-1.4119 2.317,-2.7862 v 0 c 1.0003,-1.3743 8.2102,-11.5284 16.0246,-22.5598 48.7349,-68.7982 81.1502,-117.3863 90.4328,-135.5544 5.6373,-11.0326 19.4252,-56.98313 32.2749,-107.558 4.9772,-19.58953 9.5043,-31.66682 17.1868,-46.1865 1.5495,-2.92849 3.8137,-5.13247 5.7516,-8.10631 1.7397,-1.86372 30.1022,-19.89951 42.4802,16.73069 0,0 8.6755,113.96495 5.3862,170.84732 -0.291,5.03215 -0.5568,10.19867 -2.2155,14.9585 -18.8276,54.02786 -85.8216,148.6474 -85.8216,148.6474 m -33.4824,-639.21264 c -0.3152,-0.2872 -8.1897,-0.3261 -17.5017,-0.0919 -9.3119,0.23428 -102.7596,2.46428 -207.662,4.95474 -104.9023,2.49042 -191.1479,4.73696 -191.1479,4.73696"
       style="fill:none;stroke:#ff0000;stroke-width:0.37795275;stroke-linecap:butt;stroke-linejoin:miter;stroke-miterlimit:4;stroke-dasharray:none;stroke-opacity:1"
       id="path9872" />
  </g>
</svg>
