<?xml version="1.0" encoding="UTF-8" standalone="no"?>
<!-- Created with Inkscape (http://www.inkscape.org/) -->

<svg
   xmlns:dc="http://purl.org/dc/elements/1.1/"
   xmlns:cc="http://creativecommons.org/ns#"
   xmlns:rdf="http://www.w3.org/1999/02/22-rdf-syntax-ns#"
   xmlns:svg="http://www.w3.org/2000/svg"
   xmlns="http://www.w3.org/2000/svg"
   xmlns:sodipodi="http://sodipodi.sourceforge.net/DTD/sodipodi-0.dtd"
   xmlns:inkscape="http://www.inkscape.org/namespaces/inkscape"
   version="1.1"
   id="svg4504"
   width="318.81686mm"
   height="250mm"
   viewBox="0 0 1204.9772 944.88185"
   sodipodi:docname="Mask_250_002_half.svg"
   inkscape:version="0.92.2 (5c3e80d, 2017-08-06)">
  <metadata
     id="metadata4510">
    <rdf:RDF>
      <cc:Work
         rdf:about="">
        <dc:format>image/svg+xml</dc:format>
        <dc:type
           rdf:resource="http://purl.org/dc/dcmitype/StillImage" />
        <dc:title></dc:title>
      </cc:Work>
    </rdf:RDF>
  </metadata>
  <defs
     id="defs4508" />
  <sodipodi:namedview
     pagecolor="#ffffff"
     bordercolor="#666666"
     borderopacity="1"
     objecttolerance="10"
     gridtolerance="10"
     guidetolerance="10"
     inkscape:pageopacity="0"
     inkscape:pageshadow="2"
     inkscape:window-width="2560"
     inkscape:window-height="1315"
     id="namedview4506"
     showgrid="false"
     inkscape:zoom="0.83691773"
     inkscape:cx="207.40509"
     inkscape:cy="515.83706"
     inkscape:window-x="-13"
     inkscape:window-y="-13"
     inkscape:window-maximized="1"
     inkscape:current-layer="svg4504"
     inkscape:document-units="mm"
     units="mm" />
  <path
     style="fill:none;stroke:#ff0000;stroke-width:0.37428385;stroke-linejoin:round;stroke-miterlimit:4;stroke-dasharray:none;stroke-opacity:1"
     d="m 178.29869,175.2097 c 0.31213,-0.28441 5.36381,5.65136 27.78685,5.8833 9.22155,0.23201 -25.2403,-0.56057 78.64374,1.90571 m 316.64927,199.89548 c 1.94947,31.44726 -7.71878,62.73795 -16.46632,86.27832 -12.8668,34.25791 -34.45927,78.01333 -47.80241,96.86754 -8.60897,12.16448 -42.56284,42.75671 -109.34989,98.52389 -10.63079,8.87637 -20.5556,17.3033 -22.05571,18.72775 -1.49928,1.42283 -3.15765,2.78173 -3.68442,3.01837 -0.5269,0.23659 -13.80368,10.96632 -29.50244,23.84056 -26.7004,21.89717 -51.06264,41.69796 -81.13159,65.94176 -6.97291,5.62195 -12.90122,10.09598 -13.17431,9.94259 -0.27378,-0.15179 -1.30397,-1.3982 -2.29453,-2.75914 l -0.002,0.003 c -0.99063,-1.36098 -8.13053,-11.41649 -15.86902,-22.34085 -48.26187,-68.13034 -80.36248,-116.24673 -89.55498,-134.2385 -5.58255,-10.92547 -19.23752,-56.42979 -31.96158,-106.51393 -4.92977,-19.39912 -8.26861,-28.37353 -17.01996,-45.73814 -2.64175,-5.24106 -2.2818,-4.72444 -4.16388,-7.63927"
     id="path5888"
     inkscape:connector-curvature="0"
     sodipodi:nodetypes="ccccccccccccccccccc" />
  <path
     style="fill:none;stroke:#ff0000;stroke-width:0.37428385;stroke-linecap:butt;stroke-linejoin:round;stroke-miterlimit:4;stroke-dasharray:none;stroke-opacity:1"
     d="m 149.32892,234.53659 c 23.10501,6.05213 16.03952,30.26102 16.03952,30.26102"
     id="path6572"
     inkscape:connector-curvature="0" />
  <path
     style="fill:none;stroke:#ff0000;stroke-width:0.37428385;stroke-linecap:butt;stroke-linejoin:round;stroke-miterlimit:4;stroke-dasharray:none;stroke-opacity:1"
     d="m 85.395405,390.61402 c 41.258325,12.70756 51.295745,-22.74294 51.295745,-22.74294"
     id="path6614"
     inkscape:connector-curvature="0" />
  <path
     style="fill:none;stroke:#ff0000;stroke-width:0.37428385;stroke-linecap:butt;stroke-linejoin:miter;stroke-miterlimit:4;stroke-dasharray:none;stroke-opacity:1"
     d="M 165.36844,264.79761 136.69115,367.87108"
     id="path7895"
     inkscape:connector-curvature="0" />
  <path
     style="fill:none;fill-opacity:1;stroke:#ff0000;stroke-width:0.37428385;stroke-linejoin:round;stroke-miterlimit:4;stroke-dasharray:none;stroke-opacity:1"
     d="M 494.62344,-8.8962644 148.43625,-9.1949795 c 0,0 -215.042443,24.1878145 29.86244,184.4046795 M 146.71864,-53.886074 h 368.61188"
     id="rect8917"
     inkscape:connector-curvature="0"
     sodipodi:nodetypes="ccccc" />
  <path
     style="fill:none;fill-opacity:1;stroke:#ff0000;stroke-width:0.37428385;stroke-linejoin:round;stroke-miterlimit:4;stroke-dasharray:none;stroke-opacity:1"
     d="M 494.92792,49.503584 H 204.3816 M 174.50424,6.2713656 494.92792,4.4964746"
     id="rect8917-0"
     inkscape:connector-curvature="0"
     sodipodi:nodetypes="cccc" />
  <path
     style="fill:none;fill-opacity:1;stroke:#ff0000;stroke-width:0.37428385;stroke-linejoin:round;stroke-miterlimit:4;stroke-dasharray:none;stroke-opacity:1"
     d="m 204.97925,62.656404 358.56378,-0.83669 18.40724,45.007426 -376.97102,0.83668"
     id="rect8917-0-6"
     inkscape:connector-curvature="0"
     sodipodi:nodetypes="cccc" />
  <path
     style="fill:none;stroke:#ff0000;stroke-width:0.37428385;stroke-linecap:butt;stroke-linejoin:miter;stroke-miterlimit:4;stroke-dasharray:none;stroke-opacity:1"
     d="m 494.62344,-8.8962744 c 22.79162,5.743351 0.30449,13.392749 0.30449,13.392749"
     id="path8949"
     inkscape:connector-curvature="0" />
  <path
     style="fill:none;stroke:#ff0000;stroke-width:0.37428385;stroke-linecap:butt;stroke-linejoin:round;stroke-miterlimit:4;stroke-dasharray:none;stroke-opacity:1"
     d="M 515.33052,-53.886074 C 654.88443,6.1831869 494.92793,49.503584 494.92793,49.503584"
     id="path8951"
     inkscape:connector-curvature="0"
     sodipodi:nodetypes="cc" />
  <path
     style="fill:none;stroke:#ff0000;stroke-width:0.37428385;stroke-linecap:butt;stroke-linejoin:miter;stroke-miterlimit:4;stroke-dasharray:none;stroke-opacity:1"
     d="m 204.3816,49.503584 c -35.13516,7.27159 0.59765,13.15282 0.59765,13.15282"
     id="path8953"
     inkscape:connector-curvature="0" />
  <path
     style="fill:none;stroke:#ff0000;stroke-width:0.37428385;stroke-linecap:butt;stroke-linejoin:miter;stroke-miterlimit:4;stroke-dasharray:none;stroke-opacity:1"
     d="M 174.50424,6.2713656 C 52.771424,58.340894 204.97925,107.66382 204.97925,107.66382"
     id="path8955"
     inkscape:connector-curvature="0"
     sodipodi:nodetypes="cc" />
  <path
     style="fill:none;stroke:#ff0000;stroke-width:0.37428385;stroke-linecap:butt;stroke-linejoin:miter;stroke-miterlimit:4;stroke-dasharray:none;stroke-opacity:1"
     d="M 149.32892,234.53659 C -179.78963,-34.953368 146.71864,-53.886074 146.71864,-53.886074"
     id="path8959"
     inkscape:connector-curvature="0"
     sodipodi:nodetypes="cc" />
  <path
     style="fill:none;fill-opacity:1;stroke:#ff0000;stroke-width:0.37428385;stroke-linejoin:round;stroke-miterlimit:4;stroke-dasharray:none;stroke-opacity:1"
     d="m 68.413824,482.19687 v 169.97704 m -57.023555,0 V 482.19687"
     id="rect8964"
     inkscape:connector-curvature="0"
     sodipodi:nodetypes="cccc" />
  <path
     style="fill:none;fill-opacity:1;stroke:#ff0000;stroke-width:0.37428385;stroke-linejoin:round;stroke-miterlimit:4;stroke-dasharray:none;stroke-opacity:1"
     d="m 71.05589,666.98725 79.99914,140.65651 M 106.21249,842.70347 21.223973,695.49903"
     id="rect8964-2"
     inkscape:connector-curvature="0"
     sodipodi:nodetypes="cccc" />
  <path
     style="fill:none;fill-opacity:1;stroke:#ff0000;stroke-width:0.37428385;stroke-linejoin:round;stroke-miterlimit:4;stroke-dasharray:none;stroke-opacity:1"
     d="m 185.84063,819.81606 h 169.97705 m 0,57.02355 H 185.84063"
     id="rect8964-6"
     inkscape:connector-curvature="0"
     sodipodi:nodetypes="cccc" />
  <path
     style="fill:none;fill-opacity:1;stroke:#ff0000;stroke-width:0.37428385;stroke-linejoin:round;stroke-miterlimit:4;stroke-dasharray:none;stroke-opacity:1"
     d="m 415.25119,854.59553 111.45308,-91.49778 m -27.83263,-42.54 -116.38189,95.75447"
     id="rect8964-2-3"
     inkscape:connector-curvature="0"
     sodipodi:nodetypes="cccc" />
  <path
     style="fill:none;fill-opacity:1;stroke:#ff0000;stroke-width:0.37428385;stroke-linejoin:round;stroke-miterlimit:4;stroke-dasharray:none;stroke-opacity:1"
     d="m 542.54288,782.65205 -107.03515,95.52901 m 31.20246,39.29789 110.84377,-98.29213"
     id="rect8964-2-3-6"
     inkscape:connector-curvature="0"
     sodipodi:nodetypes="cccc" />
  <path
     style="fill:none;fill-opacity:1;stroke:#ff0000;stroke-width:0.37428385;stroke-linejoin:round;stroke-miterlimit:4;stroke-dasharray:none;stroke-opacity:1"
     d="M 410.39407,944.06992 71.594155,944.66155 44.970767,887.16062 H 410.39407"
     id="rect8964-6-4"
     inkscape:connector-curvature="0"
     sodipodi:nodetypes="cccc" />
  <path
     style="fill:none;stroke:#ff0000;stroke-width:0.37428385;stroke-linecap:butt;stroke-linejoin:miter;stroke-miterlimit:4;stroke-dasharray:none;stroke-opacity:1"
     d="M 85.395405,390.61402 C 19.494909,340.72962 11.390269,482.19687 11.390269,482.19687"
     id="path9041"
     inkscape:connector-curvature="0" />
  <path
     style="fill:none;stroke:#ff0000;stroke-width:0.37428385;stroke-linecap:butt;stroke-linejoin:miter;stroke-miterlimit:4;stroke-dasharray:none;stroke-opacity:1"
     d="m 68.413824,652.17391 c 0.09357,9.11331 2.642066,14.81334 2.642066,14.81334"
     id="path9045"
     inkscape:connector-curvature="0"
     sodipodi:nodetypes="cc" />
  <path
     style="fill:none;stroke:#ff0000;stroke-width:0.37428385;stroke-linecap:butt;stroke-linejoin:miter;stroke-miterlimit:4;stroke-dasharray:none;stroke-opacity:1"
     d="m 11.390269,652.1739 c -1.7264959,24.27854 9.833698,43.32514 9.833698,43.32514"
     id="path9047"
     inkscape:connector-curvature="0" />
  <path
     style="fill:none;stroke:#ff0000;stroke-width:0.37428385;stroke-linecap:butt;stroke-linejoin:miter;stroke-miterlimit:4;stroke-dasharray:none;stroke-opacity:1"
     d="m 151.05503,807.64376 c 6.52796,12.48188 34.7856,12.1723 34.7856,12.1723"
     id="path9049"
     inkscape:connector-curvature="0"
     sodipodi:nodetypes="cc" />
  <path
     style="fill:none;stroke:#ff0000;stroke-width:0.37428385;stroke-linecap:butt;stroke-linejoin:miter;stroke-miterlimit:4;stroke-dasharray:none;stroke-opacity:1"
     d="m 106.2125,842.70348 c 23.15059,31.69846 79.62813,34.13613 79.62813,34.13613"
     id="path9051"
     inkscape:connector-curvature="0"
     sodipodi:nodetypes="cc" />
  <path
     style="fill:none;stroke:#ff0000;stroke-width:0.37428385;stroke-linecap:butt;stroke-linejoin:miter;stroke-miterlimit:4;stroke-dasharray:none;stroke-opacity:1"
     d="m 355.81768,819.81606 c 21.4432,-0.0559 26.67207,-3.50385 26.67207,-3.50385"
     id="path9053"
     inkscape:connector-curvature="0"
     sodipodi:nodetypes="cc" />
  <path
     style="fill:none;stroke:#ff0000;stroke-width:0.37428385;stroke-linecap:butt;stroke-linejoin:miter;stroke-miterlimit:4;stroke-dasharray:none;stroke-opacity:1"
     d="m 355.81767,876.83961 c 34.12278,-1.46356 59.43352,-22.24409 59.43352,-22.24409"
     id="path9055"
     inkscape:connector-curvature="0" />
  <path
     style="fill:none;stroke:#ff0000;stroke-width:0.37428385;stroke-linecap:butt;stroke-linejoin:miter;stroke-miterlimit:4;stroke-dasharray:none;stroke-opacity:1"
     d="m 526.70427,763.09775 c 35.83263,-11.44705 15.83861,19.5543 15.83861,19.5543"
     id="path9057"
     inkscape:connector-curvature="0"
     sodipodi:nodetypes="cc" />
  <path
     style="fill:none;stroke:#ff0000;stroke-width:0.37428385;stroke-linecap:butt;stroke-linejoin:miter;stroke-miterlimit:4;stroke-dasharray:none;stroke-opacity:1"
     d="m 498.87163,720.55776 c 163.76285,-41.24046 78.68233,98.62906 78.68233,98.62906"
     id="path9059"
     inkscape:connector-curvature="0"
     sodipodi:nodetypes="cc" />
  <path
     style="fill:none;stroke:#ff0000;stroke-width:0.37428385;stroke-linecap:butt;stroke-linejoin:miter;stroke-miterlimit:4;stroke-dasharray:none;stroke-opacity:1"
     d="m 435.50774,878.18107 c -8.962,8.90867 -25.11367,8.97955 -25.11367,8.97955"
     id="path9061"
     inkscape:connector-curvature="0" />
  <path
     style="fill:none;stroke:#ff0000;stroke-width:0.37428385;stroke-linecap:butt;stroke-linejoin:miter;stroke-miterlimit:4;stroke-dasharray:none;stroke-opacity:1"
     d="m 466.71019,917.47895 c -17.57375,22.94993 -56.31612,26.59098 -56.31612,26.59098"
     id="path9063"
     inkscape:connector-curvature="0" />
  <path
     style="fill:none;stroke:#ff0000;stroke-width:0.37428385;stroke-linecap:butt;stroke-linejoin:miter;stroke-miterlimit:4;stroke-dasharray:none;stroke-opacity:1"
     d="m 601.02411,190.69061 2.92888,0.0333"
     id="path9179"
     inkscape:connector-curvature="0" />
  <path
     style="fill:none;fill-opacity:1;stroke:#ff0000;stroke-width:0.37428385;stroke-linejoin:round;stroke-miterlimit:4;stroke-dasharray:none;stroke-opacity:1"
     d="M 68.413824,482.19687 C 77.947368,439.92494 117.34553,466.8081 117.34553,466.8081"
     id="path882"
     inkscape:connector-curvature="0" />
  <path
     style="fill:none;fill-opacity:1;stroke:#ff0000;stroke-width:0.28695256;stroke-linejoin:round;stroke-miterlimit:4;stroke-dasharray:none;stroke-opacity:1"
     d="m 339.19601,115.26956 210.75816,-0.83669 10.81948,45.00742"
     id="rect8917-0-6-3"
     inkscape:connector-curvature="0"
     sodipodi:nodetypes="ccc" />
  <path
     style="fill:none;fill-opacity:1;stroke:#ff0000;stroke-width:0.37795275;stroke-linejoin:round;stroke-miterlimit:4;stroke-dasharray:none;stroke-opacity:1"
     d="m 560.77365,159.44029 c 9.95225,34.54204 43.17934,31.28362 43.17934,31.28362"
     id="path909"
     inkscape:connector-curvature="0" />
  <path
     style="fill:none;fill-opacity:1;stroke:#ff0000;stroke-width:0.37795275;stroke-linejoin:round;stroke-miterlimit:4;stroke-dasharray:none;stroke-opacity:1"
     d="M 339.19601,115.26956 328.875,159.76412 c -5.91427,24.2907 -44.14572,23.23459 -44.14572,23.23459"
     id="path911"
     inkscape:connector-curvature="0" />
</svg>
