<?xml version="1.0" encoding="UTF-8" standalone="no"?>
<!-- Created with Inkscape (http://www.inkscape.org/) -->

<svg
   xmlns:dc="http://purl.org/dc/elements/1.1/"
   xmlns:cc="http://creativecommons.org/ns#"
   xmlns:rdf="http://www.w3.org/1999/02/22-rdf-syntax-ns#"
   xmlns:svg="http://www.w3.org/2000/svg"
   xmlns="http://www.w3.org/2000/svg"
   xmlns:sodipodi="http://sodipodi.sourceforge.net/DTD/sodipodi-0.dtd"
   xmlns:inkscape="http://www.inkscape.org/namespaces/inkscape"
   version="1.1"
   id="svg4504"
   width="318.81683mm"
   height="250mm"
   viewBox="0 0 1204.9771 944.88186"
   sodipodi:docname="Mask_250_001.svg"
   inkscape:version="0.92.2 (5c3e80d, 2017-08-06)">
  <metadata
     id="metadata4510">
    <rdf:RDF>
      <cc:Work
         rdf:about="">
        <dc:format>image/svg+xml</dc:format>
        <dc:type
           rdf:resource="http://purl.org/dc/dcmitype/StillImage" />
        <dc:title></dc:title>
      </cc:Work>
    </rdf:RDF>
  </metadata>
  <defs
     id="defs4508" />
  <sodipodi:namedview
     pagecolor="#ffffff"
     bordercolor="#666666"
     borderopacity="1"
     objecttolerance="10"
     gridtolerance="10"
     guidetolerance="10"
     inkscape:pageopacity="0"
     inkscape:pageshadow="2"
     inkscape:window-width="2560"
     inkscape:window-height="1315"
     id="namedview4506"
     showgrid="false"
     inkscape:zoom="1.1835804"
     inkscape:cx="802.93466"
     inkscape:cy="551.15765"
     inkscape:window-x="-13"
     inkscape:window-y="-13"
     inkscape:window-maximized="1"
     inkscape:current-layer="svg4504"
     inkscape:document-units="mm"
     units="mm" />
  <path
     style="fill:none;stroke:#ff0000;stroke-width:0.37428385;stroke-linejoin:round;stroke-miterlimit:4;stroke-dasharray:none;stroke-opacity:1"
     d="m 188.75374,181.184 c 0.31213,-0.28441 8.11025,-0.32293 17.33181,-0.091 9.22156,0.23202 101.76211,2.44037 205.64614,4.90666 103.884,2.46624 189.29245,4.69097 189.29245,4.69097"
     id="path9868"
     inkscape:connector-curvature="0"
     sodipodi:nodetypes="ccsc" />
  <path
     style="fill:none;stroke:#ff0000;stroke-width:0.37428385;stroke-linecap:butt;stroke-linejoin:round;stroke-miterlimit:4;stroke-dasharray:none;stroke-opacity:1"
     d="m 149.32893,234.53661 c 23.10501,6.0521 16.03951,30.26101 16.03951,30.26101"
     id="path6572"
     inkscape:connector-curvature="0" />
  <path
     style="fill:none;stroke:#ff0000;stroke-width:0.37428385;stroke-linecap:butt;stroke-linejoin:round;stroke-miterlimit:4;stroke-dasharray:none;stroke-opacity:1"
     d="m 85.395424,390.61403 c 41.258306,12.70755 51.295746,-22.74295 51.295746,-22.74295"
     id="path6614"
     inkscape:connector-curvature="0" />
  <path
     style="fill:none;stroke:#ff0000;stroke-width:0.37428385;stroke-linecap:butt;stroke-linejoin:miter;stroke-miterlimit:4;stroke-dasharray:none;stroke-opacity:1"
     d="M 165.36844,264.79762 136.69117,367.87108"
     id="path7895"
     inkscape:connector-curvature="0" />
  <path
     style="fill:none;fill-opacity:1;stroke:#ff0000;stroke-width:0.37428385;stroke-linejoin:round;stroke-miterlimit:4;stroke-dasharray:none;stroke-opacity:1"
     d="M 496.31326,45.176952 H 148.40843 m 0,-44.98981007 h 368.61189"
     id="rect8917"
     inkscape:connector-curvature="0"
     sodipodi:nodetypes="cccc" />
  <path
     style="fill:none;fill-opacity:1;stroke:#ff0000;stroke-width:0.37428385;stroke-linejoin:round;stroke-miterlimit:4;stroke-dasharray:none;stroke-opacity:1"
     d="M 496.61773,103.5768 H 206.0714 m -29.87736,-43.232218 320.42369,-1.77489"
     id="rect8917-0"
     inkscape:connector-curvature="0"
     sodipodi:nodetypes="cccc" />
  <path
     style="fill:none;fill-opacity:1;stroke:#ff0000;stroke-width:0.37428385;stroke-linejoin:round;stroke-miterlimit:4;stroke-dasharray:none;stroke-opacity:1"
     d="m 206.66907,116.72961 358.56377,-0.83667 18.40723,45.00743 -376.971,0.83668"
     id="rect8917-0-6"
     inkscape:connector-curvature="0"
     sodipodi:nodetypes="cccc" />
  <path
     style="fill:none;stroke:#ff0000;stroke-width:0.37428385;stroke-linecap:butt;stroke-linejoin:miter;stroke-miterlimit:4;stroke-dasharray:none;stroke-opacity:1"
     d="m 496.31326,45.176942 c 22.7916,5.74334 0.30448,13.39275 0.30448,13.39275"
     id="path8949"
     inkscape:connector-curvature="0" />
  <path
     style="fill:none;stroke:#ff0000;stroke-width:0.37428385;stroke-linecap:butt;stroke-linejoin:round;stroke-miterlimit:4;stroke-dasharray:none;stroke-opacity:1"
     d="M 517.02032,0.18714193 C 632.0796,59.658982 496.61774,103.5768 496.61774,103.5768"
     id="path8951"
     inkscape:connector-curvature="0"
     sodipodi:nodetypes="cc" />
  <path
     style="fill:none;stroke:#ff0000;stroke-width:0.37428385;stroke-linecap:butt;stroke-linejoin:miter;stroke-miterlimit:4;stroke-dasharray:none;stroke-opacity:1"
     d="m 206.0714,103.5768 c -35.13516,7.27159 0.59767,13.15281 0.59767,13.15281"
     id="path8953"
     inkscape:connector-curvature="0" />
  <path
     style="fill:none;stroke:#ff0000;stroke-width:0.37428385;stroke-linecap:butt;stroke-linejoin:miter;stroke-miterlimit:4;stroke-dasharray:none;stroke-opacity:1"
     d="M 176.19404,60.344582 C 54.461229,112.41411 206.66907,161.73705 206.66907,161.73705"
     id="path8955"
     inkscape:connector-curvature="0"
     sodipodi:nodetypes="cc" />
  <path
     style="fill:none;stroke:#ff0000;stroke-width:0.37428385;stroke-linecap:butt;stroke-linejoin:miter;stroke-miterlimit:4;stroke-dasharray:none;stroke-opacity:1"
     d="M 188.75374,181.184 C -41.787949,72.083222 148.40843,45.176942 148.40843,45.176942"
     id="path8957"
     inkscape:connector-curvature="0" />
  <path
     style="fill:none;stroke:#ff0000;stroke-width:0.37428385;stroke-linecap:butt;stroke-linejoin:miter;stroke-miterlimit:4;stroke-dasharray:none;stroke-opacity:1"
     d="M 149.32893,234.53661 C -185.70389,30.525922 148.40843,0.18714193 148.40843,0.18714193"
     id="path8959"
     inkscape:connector-curvature="0" />
  <path
     style="fill:none;fill-opacity:1;stroke:#ff0000;stroke-width:0.37428385;stroke-linejoin:round;stroke-miterlimit:4;stroke-dasharray:none;stroke-opacity:1"
     d="m 68.413842,652.17392 4.340342,-171.28437 c 3.80896,-40.13143 43.249046,-15.66199 44.173016,-12.58968 2.30043,3.124 1.94072,2.60725 4.58223,7.84845 8.75159,17.3645 12.09019,24.63808 17.01995,44.03721 12.72407,50.08414 26.37904,95.58845 31.96158,106.51393 9.19249,17.99176 41.29311,66.10816 89.55498,134.2385 7.7385,10.92435 14.87839,20.97987 15.86904,22.34084 l 0.003,-0.004 c 0.99056,1.36095 2.02076,2.60737 2.29452,2.75915 0.2731,0.15339 6.20141,-4.32065 13.17431,-9.94259 30.06896,-24.24381 54.4312,-44.04458 81.13162,-65.94177 15.69873,-12.87423 28.97551,-23.60396 29.50242,-23.84054 0.52679,-0.23666 2.18513,-1.59555 3.68442,-3.01839 1.50011,-1.42444 11.42492,-9.85137 22.05571,-18.72775 66.78705,-55.76717 100.74092,-86.35941 109.3499,-98.52389 13.34313,-18.85421 34.9356,-62.60963 47.80239,-96.86754 8.74756,-23.54035 18.41581,-54.83105 16.46633,-86.27831 M 11.390287,652.17392 V 482.19687"
     id="rect8964"
     inkscape:connector-curvature="0"
     sodipodi:nodetypes="cccscccccccccccccccc" />
  <path
     style="fill:none;fill-opacity:1;stroke:#ff0000;stroke-width:0.37428385;stroke-linejoin:round;stroke-miterlimit:4;stroke-dasharray:none;stroke-opacity:1"
     d="M 70.607834,666.98727 155.59634,814.19171 M 106.21251,842.70349 21.223991,695.49905"
     id="rect8964-2"
     inkscape:connector-curvature="0"
     sodipodi:nodetypes="cccc" />
  <path
     style="fill:none;fill-opacity:1;stroke:#ff0000;stroke-width:0.37428385;stroke-linejoin:round;stroke-miterlimit:4;stroke-dasharray:none;stroke-opacity:1"
     d="M 185.84066,819.81608 H 355.8177 m 0,57.02355 H 185.84066"
     id="rect8964-6"
     inkscape:connector-curvature="0"
     sodipodi:nodetypes="cccc" />
  <path
     style="fill:none;fill-opacity:1;stroke:#ff0000;stroke-width:0.37428385;stroke-linejoin:round;stroke-miterlimit:4;stroke-dasharray:none;stroke-opacity:1"
     d="M 415.2512,854.59554 531.6331,758.84108 M 498.87167,720.55777 382.48975,816.31222"
     id="rect8964-2-3"
     inkscape:connector-curvature="0"
     sodipodi:nodetypes="cccc" />
  <path
     style="fill:none;fill-opacity:1;stroke:#ff0000;stroke-width:0.37428385;stroke-linejoin:round;stroke-miterlimit:4;stroke-dasharray:none;stroke-opacity:1"
     d="m 546.35152,779.88896 -110.84376,98.29212 m 31.20246,39.29788 110.84375,-98.29212"
     id="rect8964-2-3-6"
     inkscape:connector-curvature="0"
     sodipodi:nodetypes="cccc" />
  <path
     style="fill:none;fill-opacity:1;stroke:#ff0000;stroke-width:0.37428385;stroke-linejoin:round;stroke-miterlimit:4;stroke-dasharray:none;stroke-opacity:1"
     d="M 410.39408,944.06994 71.594175,944.66155 44.970785,887.16063 H 410.39408"
     id="rect8964-6-4"
     inkscape:connector-curvature="0"
     sodipodi:nodetypes="cccc" />
  <path
     style="fill:none;stroke:#ff0000;stroke-width:0.37428385;stroke-linecap:butt;stroke-linejoin:miter;stroke-miterlimit:4;stroke-dasharray:none;stroke-opacity:1"
     d="M 85.395424,390.61403 C 19.494927,340.72964 11.390287,482.19687 11.390287,482.19687"
     id="path9041"
     inkscape:connector-curvature="0" />
  <path
     style="fill:none;stroke:#ff0000;stroke-width:0.37428385;stroke-linecap:butt;stroke-linejoin:miter;stroke-miterlimit:4;stroke-dasharray:none;stroke-opacity:1"
     d="m 68.413842,652.1739 c -0.607175,9.29314 2.193988,14.81339 2.193988,14.81339"
     id="path9045"
     inkscape:connector-curvature="0"
     sodipodi:nodetypes="cc" />
  <path
     style="fill:none;stroke:#ff0000;stroke-width:0.37428385;stroke-linecap:butt;stroke-linejoin:miter;stroke-miterlimit:4;stroke-dasharray:none;stroke-opacity:1"
     d="m 11.390287,652.1739 c -1.7264958,24.27856 9.833699,43.32515 9.833699,43.32515"
     id="path9047"
     inkscape:connector-curvature="0" />
  <path
     style="fill:none;stroke:#ff0000;stroke-width:0.37428385;stroke-linecap:butt;stroke-linejoin:miter;stroke-miterlimit:4;stroke-dasharray:none;stroke-opacity:1"
     d="m 155.59634,814.19171 c 8.28032,8.10668 30.24432,5.62437 30.24432,5.62437"
     id="path9049"
     inkscape:connector-curvature="0"
     sodipodi:nodetypes="cc" />
  <path
     style="fill:none;stroke:#ff0000;stroke-width:0.37428385;stroke-linecap:butt;stroke-linejoin:miter;stroke-miterlimit:4;stroke-dasharray:none;stroke-opacity:1"
     d="m 106.21252,842.70349 c 28.53678,24.30566 79.62814,34.13614 79.62814,34.13614"
     id="path9051"
     inkscape:connector-curvature="0" />
  <path
     style="fill:none;stroke:#ff0000;stroke-width:0.37428385;stroke-linecap:butt;stroke-linejoin:miter;stroke-miterlimit:4;stroke-dasharray:none;stroke-opacity:1"
     d="m 355.81769,819.81607 c 13.20547,0.75663 26.67206,-3.50386 26.67206,-3.50386"
     id="path9053"
     inkscape:connector-curvature="0"
     sodipodi:nodetypes="cc" />
  <path
     style="fill:none;stroke:#ff0000;stroke-width:0.37428385;stroke-linecap:butt;stroke-linejoin:miter;stroke-miterlimit:4;stroke-dasharray:none;stroke-opacity:1"
     d="m 355.81769,876.83963 c 34.12278,-1.46356 59.43351,-22.2441 59.43351,-22.2441"
     id="path9055"
     inkscape:connector-curvature="0" />
  <path
     style="fill:none;stroke:#ff0000;stroke-width:0.37428385;stroke-linecap:butt;stroke-linejoin:miter;stroke-miterlimit:4;stroke-dasharray:none;stroke-opacity:1"
     d="m 531.6331,758.84109 c 27.31924,-5.62209 14.71842,21.04787 14.71842,21.04787"
     id="path9057"
     inkscape:connector-curvature="0" />
  <path
     style="fill:none;stroke:#ff0000;stroke-width:0.37428385;stroke-linecap:butt;stroke-linejoin:miter;stroke-miterlimit:4;stroke-dasharray:none;stroke-opacity:1"
     d="m 498.87165,720.55779 c 154.80893,-37.35489 78.68232,98.62905 78.68232,98.62905"
     id="path9059"
     inkscape:connector-curvature="0"
     sodipodi:nodetypes="cc" />
  <path
     style="fill:none;stroke:#ff0000;stroke-width:0.37428385;stroke-linecap:butt;stroke-linejoin:miter;stroke-miterlimit:4;stroke-dasharray:none;stroke-opacity:1"
     d="m 435.50777,878.18109 c -8.962,8.90867 -25.11369,8.97954 -25.11369,8.97954"
     id="path9061"
     inkscape:connector-curvature="0" />
  <path
     style="fill:none;stroke:#ff0000;stroke-width:0.37428385;stroke-linecap:butt;stroke-linejoin:miter;stroke-miterlimit:4;stroke-dasharray:none;stroke-opacity:1"
     d="m 466.71022,917.47896 c -17.57375,22.94994 -56.31614,26.59099 -56.31614,26.59099"
     id="path9063"
     inkscape:connector-curvature="0" />
  <path
     inkscape:connector-curvature="0"
     style="fill:none;stroke:#ff0000;stroke-width:0.37428385;stroke-linecap:butt;stroke-linejoin:round;stroke-miterlimit:4;stroke-dasharray:none;stroke-opacity:1"
     d="m 1055.6482,234.56985 c -23.105,6.05211 -16.0396,30.26102 -16.0396,30.26102"
     id="path6572-1" />
  <path
     inkscape:connector-curvature="0"
     style="fill:none;stroke:#ff0000;stroke-width:0.37428385;stroke-linecap:butt;stroke-linejoin:round;stroke-miterlimit:4;stroke-dasharray:none;stroke-opacity:1"
     d="m 1119.5817,390.64727 c -41.2584,12.70755 -51.2958,-22.74295 -51.2958,-22.74295"
     id="path6614-3" />
  <path
     inkscape:connector-curvature="0"
     style="fill:none;stroke:#ff0000;stroke-width:0.37428385;stroke-linecap:butt;stroke-linejoin:miter;stroke-miterlimit:4;stroke-dasharray:none;stroke-opacity:1"
     d="m 1039.6086,264.83087 28.6773,103.07345"
     id="path7895-9" />
  <path
     style="fill:none;fill-opacity:1;stroke:#ff0000;stroke-width:0.37428385;stroke-linejoin:round;stroke-miterlimit:4;stroke-dasharray:none;stroke-opacity:1"
     d="m 708.66389,45.210182 h 347.90481 m 0,-44.98980007 H 687.95679"
     id="rect8917-8"
     inkscape:connector-curvature="0"
     sodipodi:nodetypes="cccc" />
  <path
     style="fill:none;fill-opacity:1;stroke:#ff0000;stroke-width:0.37428385;stroke-linejoin:round;stroke-miterlimit:4;stroke-dasharray:none;stroke-opacity:1"
     d="M 708.35938,103.61005 H 998.90571 M 1028.783,60.377822 708.35938,58.602922"
     id="rect8917-0-4"
     inkscape:connector-curvature="0"
     sodipodi:nodetypes="cccc" />
  <path
     style="fill:none;fill-opacity:1;stroke:#ff0000;stroke-width:0.37428385;stroke-linejoin:round;stroke-miterlimit:4;stroke-dasharray:none;stroke-opacity:1"
     d="m 998.30808,116.76286 -358.56381,-0.83668 -18.40726,45.00744 376.97107,0.83668"
     id="rect8917-0-6-5"
     inkscape:connector-curvature="0"
     sodipodi:nodetypes="cccc" />
  <path
     style="fill:none;stroke:#ff0000;stroke-width:0.37428385;stroke-linecap:butt;stroke-linejoin:miter;stroke-miterlimit:4;stroke-dasharray:none;stroke-opacity:1"
     d="m 708.66389,45.210182 c -22.79159,5.74335 -0.30451,13.39274 -0.30451,13.39274"
     id="path8949-8"
     inkscape:connector-curvature="0" />
  <path
     style="fill:none;stroke:#ff0000;stroke-width:0.37428385;stroke-linecap:butt;stroke-linejoin:round;stroke-miterlimit:4;stroke-dasharray:none;stroke-opacity:1"
     d="M 687.95679,0.22038193 C 572.89753,59.692202 708.35938,103.61005 708.35938,103.61005"
     id="path8951-4"
     inkscape:connector-curvature="0"
     sodipodi:nodetypes="cc" />
  <path
     style="fill:none;stroke:#ff0000;stroke-width:0.37428385;stroke-linecap:butt;stroke-linejoin:miter;stroke-miterlimit:4;stroke-dasharray:none;stroke-opacity:1"
     d="m 998.90571,103.61005 c 35.13519,7.27159 -0.59763,13.15281 -0.59763,13.15281"
     id="path8953-1"
     inkscape:connector-curvature="0" />
  <path
     style="fill:none;stroke:#ff0000;stroke-width:0.37428385;stroke-linecap:butt;stroke-linejoin:miter;stroke-miterlimit:4;stroke-dasharray:none;stroke-opacity:1"
     d="M 1028.783,60.377822 C 1150.5159,112.44736 998.30808,161.7703 998.30808,161.7703"
     id="path8955-8"
     inkscape:connector-curvature="0"
     sodipodi:nodetypes="cc" />
  <path
     style="fill:none;stroke:#ff0000;stroke-width:0.37428385;stroke-linecap:butt;stroke-linejoin:miter;stroke-miterlimit:4;stroke-dasharray:none;stroke-opacity:1"
     d="M 1016.2234,181.21727 C 1246.7651,72.116452 1056.5687,45.210182 1056.5687,45.210182"
     id="path8957-7"
     inkscape:connector-curvature="0" />
  <path
     style="fill:none;stroke:#ff0000;stroke-width:0.37428385;stroke-linecap:butt;stroke-linejoin:miter;stroke-miterlimit:4;stroke-dasharray:none;stroke-opacity:1"
     d="M 1055.6482,234.56985 C 1390.6809,30.559152 1056.5687,0.22038193 1056.5687,0.22038193"
     id="path8959-4"
     inkscape:connector-curvature="0" />
  <path
     style="fill:none;fill-opacity:1;stroke:#ff0000;stroke-width:0.37428385;stroke-linejoin:round;stroke-miterlimit:4;stroke-dasharray:none;stroke-opacity:1"
     d="M 1193.5869,652.20715 V 482.23014"
     id="rect8964-8"
     inkscape:connector-curvature="0"
     sodipodi:nodetypes="cc" />
  <path
     style="fill:none;fill-opacity:1;stroke:#ff0000;stroke-width:0.37428385;stroke-linejoin:round;stroke-miterlimit:4;stroke-dasharray:none;stroke-opacity:1"
     d="m 1098.7647,842.7367 84.9884,-147.20443"
     id="rect8964-2-8"
     inkscape:connector-curvature="0"
     sodipodi:nodetypes="cc" />
  <path
     style="fill:none;fill-opacity:1;stroke:#ff0000;stroke-width:0.37428385;stroke-linejoin:round;stroke-miterlimit:4;stroke-dasharray:none;stroke-opacity:1"
     d="M 1019.1365,819.84926 H 849.1594 m 0,57.02364 h 169.9771"
     id="rect8964-6-5"
     inkscape:connector-curvature="0"
     sodipodi:nodetypes="cccc" />
  <path
     style="fill:none;fill-opacity:1;stroke:#ff0000;stroke-width:0.37428385;stroke-linejoin:round;stroke-miterlimit:4;stroke-dasharray:none;stroke-opacity:1"
     d="M 789.72589,854.62874 673.34401,758.87426 m 32.76146,-38.28322 116.38189,95.75446"
     id="rect8964-2-3-4"
     inkscape:connector-curvature="0"
     sodipodi:nodetypes="cccc" />
  <path
     style="fill:none;fill-opacity:1;stroke:#ff0000;stroke-width:0.37428385;stroke-linejoin:round;stroke-miterlimit:4;stroke-dasharray:none;stroke-opacity:1"
     d="m 658.62558,779.92214 110.84377,98.2922 m -31.20243,39.29788 -110.84378,-98.29219"
     id="rect8964-2-3-6-8"
     inkscape:connector-curvature="0"
     sodipodi:nodetypes="cccc" />
  <path
     style="fill:none;fill-opacity:1;stroke:#ff0000;stroke-width:0.37428385;stroke-linejoin:round;stroke-miterlimit:4;stroke-dasharray:none;stroke-opacity:1"
     d="m 794.58308,944.10317 338.79982,0.59161 26.6235,-57.50096 H 794.58308"
     id="rect8964-6-4-5"
     inkscape:connector-curvature="0"
     sodipodi:nodetypes="cccc" />
  <path
     style="fill:none;stroke:#ff0000;stroke-width:0.37428385;stroke-linecap:butt;stroke-linejoin:miter;stroke-miterlimit:4;stroke-dasharray:none;stroke-opacity:1"
     d="m 1119.5817,390.64727 c 65.9005,-49.88441 74.0052,91.58287 74.0052,91.58287"
     id="path9041-6"
     inkscape:connector-curvature="0" />
  <path
     style="fill:none;stroke:#ff0000;stroke-width:0.37428385;stroke-linecap:butt;stroke-linejoin:miter;stroke-miterlimit:4;stroke-dasharray:none;stroke-opacity:1"
     d="m 1193.5869,652.20715 c 1.7265,24.27852 -9.8338,43.32512 -9.8338,43.32512"
     id="path9047-7"
     inkscape:connector-curvature="0" />
  <path
     style="fill:none;stroke:#ff0000;stroke-width:0.37428385;stroke-linecap:butt;stroke-linejoin:miter;stroke-miterlimit:4;stroke-dasharray:none;stroke-opacity:1"
     d="m 1049.3807,814.22489 c -9.2739,8.89115 -30.2442,5.62437 -30.2442,5.62437"
     id="path9049-5"
     inkscape:connector-curvature="0" />
  <path
     style="fill:none;stroke:#ff0000;stroke-width:0.37428385;stroke-linecap:butt;stroke-linejoin:miter;stroke-miterlimit:4;stroke-dasharray:none;stroke-opacity:1"
     d="m 1098.7645,842.7367 c -28.5367,24.30566 -79.628,34.1362 -79.628,34.1362"
     id="path9051-2"
     inkscape:connector-curvature="0" />
  <path
     style="fill:none;stroke:#ff0000;stroke-width:0.37428385;stroke-linecap:butt;stroke-linejoin:miter;stroke-miterlimit:4;stroke-dasharray:none;stroke-opacity:1"
     d="m 849.1594,819.84926 c -13.20545,2.84838 -26.67204,-3.50385 -26.67204,-3.50385"
     id="path9053-2"
     inkscape:connector-curvature="0" />
  <path
     style="fill:none;stroke:#ff0000;stroke-width:0.37428385;stroke-linecap:butt;stroke-linejoin:miter;stroke-miterlimit:4;stroke-dasharray:none;stroke-opacity:1"
     d="m 849.1594,876.8729 c -34.12273,-1.46366 -59.43351,-22.24416 -59.43351,-22.24416"
     id="path9055-6"
     inkscape:connector-curvature="0" />
  <path
     style="fill:none;stroke:#ff0000;stroke-width:0.37428385;stroke-linecap:butt;stroke-linejoin:miter;stroke-miterlimit:4;stroke-dasharray:none;stroke-opacity:1"
     d="m 673.34401,758.87426 c -27.3192,-5.62209 -14.71843,21.04788 -14.71843,21.04788"
     id="path9057-1"
     inkscape:connector-curvature="0" />
  <path
     style="fill:none;stroke:#ff0000;stroke-width:0.37428385;stroke-linecap:butt;stroke-linejoin:miter;stroke-miterlimit:4;stroke-dasharray:none;stroke-opacity:1"
     d="m 706.10547,720.59104 c -154.21726,-43.56699 -78.68233,98.62899 -78.68233,98.62899"
     id="path9059-1"
     inkscape:connector-curvature="0"
     sodipodi:nodetypes="cc" />
  <path
     style="fill:none;stroke:#ff0000;stroke-width:0.37428385;stroke-linecap:butt;stroke-linejoin:miter;stroke-miterlimit:4;stroke-dasharray:none;stroke-opacity:1"
     d="m 769.46935,878.21434 c 8.96206,8.90867 25.11373,8.97948 25.11373,8.97948"
     id="path9061-2"
     inkscape:connector-curvature="0" />
  <path
     style="fill:none;stroke:#ff0000;stroke-width:0.37428385;stroke-linecap:butt;stroke-linejoin:miter;stroke-miterlimit:4;stroke-dasharray:none;stroke-opacity:1"
     d="m 738.26692,917.51222 c 17.57372,22.94994 56.31616,26.59095 56.31616,26.59095"
     id="path9063-5"
     inkscape:connector-curvature="0" />
  <path
     style="fill:none;stroke:#ff0000;stroke-width:0.37428385;stroke-linecap:butt;stroke-linejoin:miter;stroke-miterlimit:4;stroke-dasharray:none;stroke-opacity:1"
     d="m 601.02414,190.69062 2.92887,0.0333"
     id="path9179"
     inkscape:connector-curvature="0" />
  <path
     style="fill:none;stroke:#ff0000;stroke-width:0.37428385;stroke-linecap:butt;stroke-linejoin:miter;stroke-miterlimit:4;stroke-dasharray:none;stroke-opacity:1"
     d="m 601.37856,382.89419 c 0.52787,-12.25923 2.22003,0.0333 2.22003,0.0333"
     id="path9181"
     inkscape:connector-curvature="0" />
  <g
     id="g9876"
     transform="matrix(0.99029273,0,0,0.99029273,1.8475567e-5,-8.0749035e-6)">
    <path
       sodipodi:nodetypes="ccccccccccccccaccaacccsc"
       inkscape:connector-curvature="0"
       d="m 609.5153,386.68103 c -1.9686,31.75552 7.7944,63.35293 16.6277,87.12403 12.9929,34.5937 34.7971,78.7781 48.271,97.8171 8.6934,12.2837 42.9801,43.1758 110.4218,99.4897 10.735,8.9633 20.7571,17.4729 22.2719,18.9113 1.514,1.4368 3.1886,2.809 3.7205,3.0479 0.5321,0.239 13.939,11.0739 29.7917,24.0743 26.9621,22.1118 51.5631,42.1067 81.9268,66.5881 7.0413,5.6771 13.0277,10.195 13.3035,10.0401 0.2764,-0.1533 1.3167,-1.4119 2.317,-2.7862 v 0 c 1.0003,-1.3743 8.2102,-11.5284 16.0246,-22.5598 48.7349,-68.7982 81.1502,-117.3863 90.4328,-135.5544 5.6373,-11.0326 19.4252,-56.98313 32.2749,-107.558 4.9772,-19.58953 9.5043,-31.66682 17.1868,-46.1865 1.5495,-2.92849 3.8137,-5.13247 5.7516,-8.10631 1.7397,-1.86372 30.1022,-19.89951 42.4802,16.73069 0,0 8.6755,113.96495 5.3862,170.84732 -0.291,5.03215 -0.5568,10.19867 -2.2155,14.9585 -18.8276,54.02786 -85.8216,148.6474 -85.8216,148.6474 m -33.4824,-639.21264 c -0.3152,-0.2872 -8.1897,-0.3261 -17.5017,-0.0919 -9.3119,0.23428 -102.7596,2.46428 -207.662,4.95474 -104.9023,2.49042 -191.1479,4.73696 -191.1479,4.73696"
       style="fill:none;stroke:#ff0000;stroke-width:0.37795275;stroke-linecap:butt;stroke-linejoin:miter;stroke-miterlimit:4;stroke-dasharray:none;stroke-opacity:1"
       id="path9872" />
  </g>
</svg>
