<?xml version="1.0" encoding="UTF-8" standalone="no"?>
<!-- Created with Inkscape (http://www.inkscape.org/) -->

<svg
   xmlns:dc="http://purl.org/dc/elements/1.1/"
   xmlns:cc="http://creativecommons.org/ns#"
   xmlns:rdf="http://www.w3.org/1999/02/22-rdf-syntax-ns#"
   xmlns:svg="http://www.w3.org/2000/svg"
   xmlns="http://www.w3.org/2000/svg"
   xmlns:sodipodi="http://sodipodi.sourceforge.net/DTD/sodipodi-0.dtd"
   xmlns:inkscape="http://www.inkscape.org/namespaces/inkscape"
   version="1.1"
   id="svg4504"
   width="242.3008mm"
   height="190mm"
   viewBox="0 0 915.78262 718.11021"
   sodipodi:docname="Mask_190_001.svg"
   inkscape:version="0.92.2 (5c3e80d, 2017-08-06)">
  <metadata
     id="metadata4510">
    <rdf:RDF>
      <cc:Work
         rdf:about="">
        <dc:format>image/svg+xml</dc:format>
        <dc:type
           rdf:resource="http://purl.org/dc/dcmitype/StillImage" />
        <dc:title></dc:title>
      </cc:Work>
    </rdf:RDF>
  </metadata>
  <defs
     id="defs4508" />
  <sodipodi:namedview
     pagecolor="#ffffff"
     bordercolor="#666666"
     borderopacity="1"
     objecttolerance="10"
     gridtolerance="10"
     guidetolerance="10"
     inkscape:pageopacity="0"
     inkscape:pageshadow="2"
     inkscape:window-width="2560"
     inkscape:window-height="1315"
     id="namedview4506"
     showgrid="false"
     inkscape:zoom="1.1835804"
     inkscape:cx="802.93465"
     inkscape:cy="551.15765"
     inkscape:window-x="-13"
     inkscape:window-y="-13"
     inkscape:window-maximized="1"
     inkscape:current-layer="svg4504"
     inkscape:document-units="mm"
     units="mm" />
  <path
     style="fill:none;stroke:#ff0000;stroke-width:0.28445572;stroke-linejoin:round;stroke-miterlimit:4;stroke-dasharray:none;stroke-opacity:1"
     d="m 143.45283,137.69984 c 0.23722,-0.21615 6.16379,-0.24543 13.17218,-0.0692 7.00838,0.17633 77.3392,1.85468 156.29106,3.72906 78.95184,1.87434 143.86226,3.56514 143.86226,3.56514"
     id="path9868"
     inkscape:connector-curvature="0"
     sodipodi:nodetypes="ccsc" />
  <path
     style="fill:none;stroke:#ff0000;stroke-width:0.28445572;stroke-linecap:butt;stroke-linejoin:round;stroke-miterlimit:4;stroke-dasharray:none;stroke-opacity:1"
     d="m 113.48998,178.24782 c 17.5598,4.5996 12.19002,22.99837 12.19002,22.99837"
     id="path6572"
     inkscape:connector-curvature="0" />
  <path
     style="fill:none;stroke:#ff0000;stroke-width:0.28445572;stroke-linecap:butt;stroke-linejoin:round;stroke-miterlimit:4;stroke-dasharray:none;stroke-opacity:1"
     d="m 64.900515,296.86666 c 31.356313,9.65774 38.984765,-17.28464 38.984765,-17.28464"
     id="path6614"
     inkscape:connector-curvature="0" />
  <path
     style="fill:none;stroke:#ff0000;stroke-width:0.28445572;stroke-linecap:butt;stroke-linejoin:miter;stroke-miterlimit:4;stroke-dasharray:none;stroke-opacity:1"
     d="m 125.68,201.24619 -21.79472,78.33583"
     id="path7895"
     inkscape:connector-curvature="0" />
  <path
     style="fill:none;fill-opacity:1;stroke:#ff0000;stroke-width:0.28445572;stroke-linejoin:round;stroke-miterlimit:4;stroke-dasharray:none;stroke-opacity:1"
     d="M 377.19806,34.334486 H 112.7904 m 0,-34.19225814 h 280.14503"
     id="rect8917"
     inkscape:connector-curvature="0"
     sodipodi:nodetypes="cccc" />
  <path
     style="fill:none;fill-opacity:1;stroke:#ff0000;stroke-width:0.28445572;stroke-linejoin:round;stroke-miterlimit:4;stroke-dasharray:none;stroke-opacity:1"
     d="M 377.42946,78.718367 H 156.61425 m -22.70679,-32.856486 243.522,-1.348915"
     id="rect8917-0"
     inkscape:connector-curvature="0"
     sodipodi:nodetypes="cccc" />
  <path
     style="fill:none;fill-opacity:1;stroke:#ff0000;stroke-width:0.28445572;stroke-linejoin:round;stroke-miterlimit:4;stroke-dasharray:none;stroke-opacity:1"
     d="m 157.06848,88.714507 272.50846,-0.63587 13.9895,34.205643 -286.49796,0.63588"
     id="rect8917-0-6"
     inkscape:connector-curvature="0"
     sodipodi:nodetypes="cccc" />
  <path
     style="fill:none;stroke:#ff0000;stroke-width:0.28445572;stroke-linecap:butt;stroke-linejoin:miter;stroke-miterlimit:4;stroke-dasharray:none;stroke-opacity:1"
     d="m 377.19806,34.334477 c 17.32162,4.364936 0.23141,10.178489 0.23141,10.178489"
     id="path8949"
     inkscape:connector-curvature="0" />
  <path
     style="fill:none;stroke:#ff0000;stroke-width:0.28445572;stroke-linecap:butt;stroke-linejoin:round;stroke-miterlimit:4;stroke-dasharray:none;stroke-opacity:1"
     d="M 392.93543,0.14222786 C 480.38048,45.340825 377.42947,78.718367 377.42947,78.718367"
     id="path8951"
     inkscape:connector-curvature="0"
     sodipodi:nodetypes="cc" />
  <path
     style="fill:none;stroke:#ff0000;stroke-width:0.28445572;stroke-linecap:butt;stroke-linejoin:miter;stroke-miterlimit:4;stroke-dasharray:none;stroke-opacity:1"
     d="m 156.61425,78.718367 c -26.70272,5.52641 0.45423,9.99614 0.45423,9.99614"
     id="path8953"
     inkscape:connector-curvature="0" />
  <path
     style="fill:none;stroke:#ff0000;stroke-width:0.28445572;stroke-linecap:butt;stroke-linejoin:miter;stroke-miterlimit:4;stroke-dasharray:none;stroke-opacity:1"
     d="m 133.90746,45.861881 c -92.516933,39.572846 23.16102,77.058279 23.16102,77.058279"
     id="path8955"
     inkscape:connector-curvature="0"
     sodipodi:nodetypes="cc" />
  <path
     style="fill:none;stroke:#ff0000;stroke-width:0.28445572;stroke-linecap:butt;stroke-linejoin:miter;stroke-miterlimit:4;stroke-dasharray:none;stroke-opacity:1"
     d="M 143.45283,137.69984 C -31.758847,54.783245 112.7904,34.334477 112.7904,34.334477"
     id="path8957"
     inkscape:connector-curvature="0" />
  <path
     style="fill:none;stroke:#ff0000;stroke-width:0.28445572;stroke-linecap:butt;stroke-linejoin:miter;stroke-miterlimit:4;stroke-dasharray:none;stroke-opacity:1"
     d="M 113.48998,178.24782 C -141.13496,23.199699 112.7904,0.14222786 112.7904,0.14222786"
     id="path8959"
     inkscape:connector-curvature="0" />
  <path
     style="fill:none;fill-opacity:1;stroke:#ff0000;stroke-width:0.28445572;stroke-linejoin:round;stroke-miterlimit:4;stroke-dasharray:none;stroke-opacity:1"
     d="m 51.994513,495.65217 3.29866,-130.17612 c 2.894809,-30.49988 32.869273,-11.90311 33.571489,-9.56815 1.748328,2.37424 1.474948,1.98151 3.482496,5.96482 6.651208,13.19702 9.188542,18.72494 12.935162,33.46828 9.67029,38.06394 20.04807,72.64722 24.2908,80.95058 6.98629,13.67374 31.38276,50.2422 68.06178,102.02126 5.88126,8.30251 11.30758,15.9447 12.06047,16.97904 l 0.002,-0.003 c 0.75283,1.03432 1.53578,1.9816 1.74384,2.09695 0.20755,0.11658 4.71307,-3.28369 10.01247,-7.55637 22.85241,-18.42529 41.36771,-33.47388 61.66003,-50.11574 11.93104,-9.78442 22.02139,-17.93901 22.42184,-18.11881 0.40036,-0.17986 1.6607,-1.21262 2.80016,-2.29398 1.14008,-1.08257 8.68294,-7.48704 16.76234,-14.23309 50.75816,-42.38305 76.5631,-65.63315 83.10592,-74.87815 10.14078,-14.3292 26.55106,-47.58332 36.32982,-73.61933 6.64814,-17.89067 13.99601,-41.6716 12.51441,-65.57152 M 8.6566118,495.65217 V 366.46962"
     id="rect8964"
     inkscape:connector-curvature="0"
     sodipodi:nodetypes="cccscccccccccccccccc" />
  <path
     style="fill:none;fill-opacity:1;stroke:#ff0000;stroke-width:0.28445572;stroke-linejoin:round;stroke-miterlimit:4;stroke-dasharray:none;stroke-opacity:1"
     d="M 53.661947,506.91032 118.25321,618.78569 M 80.721499,640.45464 16.130227,528.57927"
     id="rect8964-2"
     inkscape:connector-curvature="0"
     sodipodi:nodetypes="cccc" />
  <path
     style="fill:none;fill-opacity:1;stroke:#ff0000;stroke-width:0.28445572;stroke-linejoin:round;stroke-miterlimit:4;stroke-dasharray:none;stroke-opacity:1"
     d="m 141.23889,623.06021 h 129.18255 m 0,43.3379 H 141.23889"
     id="rect8964-6"
     inkscape:connector-curvature="0"
     sodipodi:nodetypes="cccc" />
  <path
     style="fill:none;fill-opacity:1;stroke:#ff0000;stroke-width:0.28445572;stroke-linejoin:round;stroke-miterlimit:4;stroke-dasharray:none;stroke-opacity:1"
     d="m 315.5909,649.4926 88.45024,-72.77339 M 379.14245,547.6239 290.6922,620.39728"
     id="rect8964-2-3"
     inkscape:connector-curvature="0"
     sodipodi:nodetypes="cccc" />
  <path
     style="fill:none;fill-opacity:1;stroke:#ff0000;stroke-width:0.28445572;stroke-linejoin:round;stroke-miterlimit:4;stroke-dasharray:none;stroke-opacity:1"
     d="m 415.22714,592.7156 -84.24126,74.70201 M 354.69975,697.284 438.941,622.58199"
     id="rect8964-2-3-6"
     inkscape:connector-curvature="0"
     sodipodi:nodetypes="cccc" />
  <path
     style="fill:none;fill-opacity:1;stroke:#ff0000;stroke-width:0.28445572;stroke-linejoin:round;stroke-miterlimit:4;stroke-dasharray:none;stroke-opacity:1"
     d="M 311.89949,717.49314 54.411566,717.94277 34.17779,674.24207 h 277.7217"
     id="rect8964-6-4"
     inkscape:connector-curvature="0"
     sodipodi:nodetypes="cccc" />
  <path
     style="fill:none;stroke:#ff0000;stroke-width:0.28445572;stroke-linecap:butt;stroke-linejoin:miter;stroke-miterlimit:4;stroke-dasharray:none;stroke-opacity:1"
     d="M 64.900515,296.86666 C 14.816138,258.95452 8.6566118,366.46962 8.6566118,366.46962"
     id="path9041"
     inkscape:connector-curvature="0" />
  <path
     style="fill:none;stroke:#ff0000;stroke-width:0.28445572;stroke-linecap:butt;stroke-linejoin:miter;stroke-miterlimit:4;stroke-dasharray:none;stroke-opacity:1"
     d="m 51.994513,495.65216 c -0.461453,7.06278 1.667431,11.25817 1.667431,11.25817"
     id="path9045"
     inkscape:connector-curvature="0"
     sodipodi:nodetypes="cc" />
  <path
     style="fill:none;stroke:#ff0000;stroke-width:0.28445572;stroke-linecap:butt;stroke-linejoin:miter;stroke-miterlimit:4;stroke-dasharray:none;stroke-opacity:1"
     d="m 8.6566118,495.65216 c -1.3121371,18.4517 7.4736112,32.92711 7.4736112,32.92711"
     id="path9047"
     inkscape:connector-curvature="0" />
  <path
     style="fill:none;stroke:#ff0000;stroke-width:0.28445572;stroke-linecap:butt;stroke-linejoin:miter;stroke-miterlimit:4;stroke-dasharray:none;stroke-opacity:1"
     d="m 118.25321,618.78569 c 6.29304,6.16108 22.98568,4.27452 22.98568,4.27452"
     id="path9049"
     inkscape:connector-curvature="0"
     sodipodi:nodetypes="cc" />
  <path
     style="fill:none;stroke:#ff0000;stroke-width:0.28445572;stroke-linecap:butt;stroke-linejoin:miter;stroke-miterlimit:4;stroke-dasharray:none;stroke-opacity:1"
     d="m 80.721506,640.45464 c 21.687954,18.4723 60.517384,25.94347 60.517384,25.94347"
     id="path9051"
     inkscape:connector-curvature="0" />
  <path
     style="fill:none;stroke:#ff0000;stroke-width:0.28445572;stroke-linecap:butt;stroke-linejoin:miter;stroke-miterlimit:4;stroke-dasharray:none;stroke-opacity:1"
     d="m 270.42143,623.0602 c 10.03616,0.57504 20.27077,-2.66293 20.27077,-2.66293"
     id="path9053"
     inkscape:connector-curvature="0"
     sodipodi:nodetypes="cc" />
  <path
     style="fill:none;stroke:#ff0000;stroke-width:0.28445572;stroke-linecap:butt;stroke-linejoin:miter;stroke-miterlimit:4;stroke-dasharray:none;stroke-opacity:1"
     d="m 270.42143,666.39811 c 25.93331,-1.11231 45.16947,-16.90552 45.16947,-16.90552"
     id="path9055"
     inkscape:connector-curvature="0" />
  <path
     style="fill:none;stroke:#ff0000;stroke-width:0.28445572;stroke-linecap:butt;stroke-linejoin:miter;stroke-miterlimit:4;stroke-dasharray:none;stroke-opacity:1"
     d="m 404.04114,576.71922 c 20.76262,-4.27279 11.186,15.99638 11.186,15.99638"
     id="path9057"
     inkscape:connector-curvature="0" />
  <path
     style="fill:none;stroke:#ff0000;stroke-width:0.28445572;stroke-linecap:butt;stroke-linejoin:miter;stroke-miterlimit:4;stroke-dasharray:none;stroke-opacity:1"
     d="M 379.14244,547.62391 C 496.79722,519.2342 438.941,622.58199 438.941,622.58199"
     id="path9059"
     inkscape:connector-curvature="0"
     sodipodi:nodetypes="cc" />
  <path
     style="fill:none;stroke:#ff0000;stroke-width:0.28445572;stroke-linecap:butt;stroke-linejoin:miter;stroke-miterlimit:4;stroke-dasharray:none;stroke-opacity:1"
     d="m 330.98589,667.41762 c -6.81112,6.77059 -19.0864,6.82445 -19.0864,6.82445"
     id="path9061"
     inkscape:connector-curvature="0" />
  <path
     style="fill:none;stroke:#ff0000;stroke-width:0.28445572;stroke-linecap:butt;stroke-linejoin:miter;stroke-miterlimit:4;stroke-dasharray:none;stroke-opacity:1"
     d="m 354.69975,697.284 c -13.35605,17.44195 -42.80026,20.20915 -42.80026,20.20915"
     id="path9063"
     inkscape:connector-curvature="0" />
  <path
     inkscape:connector-curvature="0"
     style="fill:none;stroke:#ff0000;stroke-width:0.28445572;stroke-linecap:butt;stroke-linejoin:round;stroke-miterlimit:4;stroke-dasharray:none;stroke-opacity:1"
     d="m 802.29261,178.27308 c -17.55981,4.59961 -12.19007,22.99838 -12.19007,22.99838"
     id="path6572-1" />
  <path
     inkscape:connector-curvature="0"
     style="fill:none;stroke:#ff0000;stroke-width:0.28445572;stroke-linecap:butt;stroke-linejoin:round;stroke-miterlimit:4;stroke-dasharray:none;stroke-opacity:1"
     d="m 850.88207,296.89192 c -31.35636,9.65774 -38.98479,-17.28464 -38.98479,-17.28464"
     id="path6614-3" />
  <path
     inkscape:connector-curvature="0"
     style="fill:none;stroke:#ff0000;stroke-width:0.28445572;stroke-linecap:butt;stroke-linejoin:miter;stroke-miterlimit:4;stroke-dasharray:none;stroke-opacity:1"
     d="m 790.10254,201.27146 21.79474,78.33582"
     id="path7895-9" />
  <path
     style="fill:none;fill-opacity:1;stroke:#ff0000;stroke-width:0.28445572;stroke-linejoin:round;stroke-miterlimit:4;stroke-dasharray:none;stroke-opacity:1"
     d="m 538.58454,34.359737 h 264.40763 m 0,-34.19224414 H 522.84714"
     id="rect8917-8"
     inkscape:connector-curvature="0"
     sodipodi:nodetypes="cccc" />
  <path
     style="fill:none;fill-opacity:1;stroke:#ff0000;stroke-width:0.28445572;stroke-linejoin:round;stroke-miterlimit:4;stroke-dasharray:none;stroke-opacity:1"
     d="M 538.35311,78.743637 H 759.16832 M 781.8751,45.887141 538.35311,44.538217"
     id="rect8917-0-4"
     inkscape:connector-curvature="0"
     sodipodi:nodetypes="cccc" />
  <path
     style="fill:none;fill-opacity:1;stroke:#ff0000;stroke-width:0.28445572;stroke-linejoin:round;stroke-miterlimit:4;stroke-dasharray:none;stroke-opacity:1"
     d="m 758.71412,88.739777 -272.50849,-0.63588 -13.98952,34.205653 286.49801,0.63588"
     id="rect8917-0-6-5"
     inkscape:connector-curvature="0"
     sodipodi:nodetypes="cccc" />
  <path
     style="fill:none;stroke:#ff0000;stroke-width:0.28445572;stroke-linecap:butt;stroke-linejoin:miter;stroke-miterlimit:4;stroke-dasharray:none;stroke-opacity:1"
     d="m 538.58454,34.359737 c -17.32161,4.364946 -0.23143,10.17848 -0.23143,10.17848"
     id="path8949-8"
     inkscape:connector-curvature="0" />
  <path
     style="fill:none;stroke:#ff0000;stroke-width:0.28445572;stroke-linecap:butt;stroke-linejoin:round;stroke-miterlimit:4;stroke-dasharray:none;stroke-opacity:1"
     d="M 522.84714,0.16749286 C 435.40211,45.366076 538.35311,78.743637 538.35311,78.743637"
     id="path8951-4"
     inkscape:connector-curvature="0"
     sodipodi:nodetypes="cc" />
  <path
     style="fill:none;stroke:#ff0000;stroke-width:0.28445572;stroke-linecap:butt;stroke-linejoin:miter;stroke-miterlimit:4;stroke-dasharray:none;stroke-opacity:1"
     d="m 759.16832,78.743637 c 26.70275,5.52641 -0.4542,9.99614 -0.4542,9.99614"
     id="path8953-1"
     inkscape:connector-curvature="0" />
  <path
     style="fill:none;stroke:#ff0000;stroke-width:0.28445572;stroke-linecap:butt;stroke-linejoin:miter;stroke-miterlimit:4;stroke-dasharray:none;stroke-opacity:1"
     d="m 781.8751,45.887141 c 92.51697,39.572856 -23.16098,77.058289 -23.16098,77.058289"
     id="path8955-8"
     inkscape:connector-curvature="0"
     sodipodi:nodetypes="cc" />
  <path
     style="fill:none;stroke:#ff0000;stroke-width:0.28445572;stroke-linecap:butt;stroke-linejoin:miter;stroke-miterlimit:4;stroke-dasharray:none;stroke-opacity:1"
     d="M 772.32974,137.72512 C 947.54148,54.808505 802.99217,34.359737 802.99217,34.359737"
     id="path8957-7"
     inkscape:connector-curvature="0" />
  <path
     style="fill:none;stroke:#ff0000;stroke-width:0.28445572;stroke-linecap:butt;stroke-linejoin:miter;stroke-miterlimit:4;stroke-dasharray:none;stroke-opacity:1"
     d="M 802.29261,178.27308 C 1056.9175,23.224959 802.99217,0.16749286 802.99217,0.16749286"
     id="path8959-4"
     inkscape:connector-curvature="0" />
  <path
     style="fill:none;fill-opacity:1;stroke:#ff0000;stroke-width:0.28445572;stroke-linejoin:round;stroke-miterlimit:4;stroke-dasharray:none;stroke-opacity:1"
     d="M 907.12604,495.67743 V 366.4949"
     id="rect8964-8"
     inkscape:connector-curvature="0"
     sodipodi:nodetypes="cc" />
  <path
     style="fill:none;fill-opacity:1;stroke:#ff0000;stroke-width:0.28445572;stroke-linejoin:round;stroke-miterlimit:4;stroke-dasharray:none;stroke-opacity:1"
     d="M 835.06112,640.47988 899.65236,528.60452"
     id="rect8964-2-8"
     inkscape:connector-curvature="0"
     sodipodi:nodetypes="cc" />
  <path
     style="fill:none;fill-opacity:1;stroke:#ff0000;stroke-width:0.28445572;stroke-linejoin:round;stroke-miterlimit:4;stroke-dasharray:none;stroke-opacity:1"
     d="m 774.54372,623.08543 h -129.1826 m 0,43.33796 h 129.1826"
     id="rect8964-6-5"
     inkscape:connector-curvature="0"
     sodipodi:nodetypes="cccc" />
  <path
     style="fill:none;fill-opacity:1;stroke:#ff0000;stroke-width:0.28445572;stroke-linejoin:round;stroke-miterlimit:4;stroke-dasharray:none;stroke-opacity:1"
     d="m 600.19166,649.51783 -88.45023,-72.7734 m 24.89871,-29.09525 88.45023,72.77339"
     id="rect8964-2-3-4"
     inkscape:connector-curvature="0"
     sodipodi:nodetypes="cccc" />
  <path
     style="fill:none;fill-opacity:1;stroke:#ff0000;stroke-width:0.28445572;stroke-linejoin:round;stroke-miterlimit:4;stroke-dasharray:none;stroke-opacity:1"
     d="m 500.55542,592.74082 84.24127,74.70207 m -23.71385,29.86639 -84.24127,-74.70207"
     id="rect8964-2-3-6-8"
     inkscape:connector-curvature="0"
     sodipodi:nodetypes="cccc" />
  <path
     style="fill:none;fill-opacity:1;stroke:#ff0000;stroke-width:0.28445572;stroke-linejoin:round;stroke-miterlimit:4;stroke-dasharray:none;stroke-opacity:1"
     d="m 603.88312,717.5184 257.48787,0.44962 20.23382,-43.70073 H 603.88312"
     id="rect8964-6-4-5"
     inkscape:connector-curvature="0"
     sodipodi:nodetypes="cccc" />
  <path
     style="fill:none;stroke:#ff0000;stroke-width:0.28445572;stroke-linecap:butt;stroke-linejoin:miter;stroke-miterlimit:4;stroke-dasharray:none;stroke-opacity:1"
     d="m 850.88207,296.89192 c 50.08441,-37.91215 56.24397,69.60298 56.24397,69.60298"
     id="path9041-6"
     inkscape:connector-curvature="0" />
  <path
     style="fill:none;stroke:#ff0000;stroke-width:0.28445572;stroke-linecap:butt;stroke-linejoin:miter;stroke-miterlimit:4;stroke-dasharray:none;stroke-opacity:1"
     d="m 907.12604,495.67743 c 1.31209,18.45167 -7.47368,32.92709 -7.47368,32.92709"
     id="path9047-7"
     inkscape:connector-curvature="0" />
  <path
     style="fill:none;stroke:#ff0000;stroke-width:0.28445572;stroke-linecap:butt;stroke-linejoin:miter;stroke-miterlimit:4;stroke-dasharray:none;stroke-opacity:1"
     d="m 797.52934,618.81091 c -7.04815,6.75727 -22.98562,4.27452 -22.98562,4.27452"
     id="path9049-5"
     inkscape:connector-curvature="0" />
  <path
     style="fill:none;stroke:#ff0000;stroke-width:0.28445572;stroke-linecap:butt;stroke-linejoin:miter;stroke-miterlimit:4;stroke-dasharray:none;stroke-opacity:1"
     d="m 835.06104,640.47988 c -21.68794,18.4723 -60.51732,25.94351 -60.51732,25.94351"
     id="path9051-2"
     inkscape:connector-curvature="0" />
  <path
     style="fill:none;stroke:#ff0000;stroke-width:0.28445572;stroke-linecap:butt;stroke-linejoin:miter;stroke-miterlimit:4;stroke-dasharray:none;stroke-opacity:1"
     d="m 645.36112,623.08543 c -10.03614,2.16477 -20.27075,-2.66293 -20.27075,-2.66293"
     id="path9053-2"
     inkscape:connector-curvature="0" />
  <path
     style="fill:none;stroke:#ff0000;stroke-width:0.28445572;stroke-linecap:butt;stroke-linejoin:miter;stroke-miterlimit:4;stroke-dasharray:none;stroke-opacity:1"
     d="m 645.36112,666.42339 c -25.93327,-1.11238 -45.16946,-16.90556 -45.16946,-16.90556"
     id="path9055-6"
     inkscape:connector-curvature="0" />
  <path
     style="fill:none;stroke:#ff0000;stroke-width:0.28445572;stroke-linecap:butt;stroke-linejoin:miter;stroke-miterlimit:4;stroke-dasharray:none;stroke-opacity:1"
     d="m 511.74143,576.74443 c -20.76259,-4.27279 -11.18601,15.99639 -11.18601,15.99639"
     id="path9057-1"
     inkscape:connector-curvature="0" />
  <path
     style="fill:none;stroke:#ff0000;stroke-width:0.28445572;stroke-linecap:butt;stroke-linejoin:miter;stroke-miterlimit:4;stroke-dasharray:none;stroke-opacity:1"
     d="m 536.64014,547.64918 c -117.20512,-33.11091 -59.79857,74.95803 -59.79857,74.95803"
     id="path9059-1"
     inkscape:connector-curvature="0"
     sodipodi:nodetypes="cc" />
  <path
     style="fill:none;stroke:#ff0000;stroke-width:0.28445572;stroke-linecap:butt;stroke-linejoin:miter;stroke-miterlimit:4;stroke-dasharray:none;stroke-opacity:1"
     d="m 584.79669,667.44289 c 6.81116,6.77059 19.08643,6.8244 19.08643,6.8244"
     id="path9061-2"
     inkscape:connector-curvature="0" />
  <path
     style="fill:none;stroke:#ff0000;stroke-width:0.28445572;stroke-linecap:butt;stroke-linejoin:miter;stroke-miterlimit:4;stroke-dasharray:none;stroke-opacity:1"
     d="m 561.08284,697.30928 c 13.35603,17.44195 42.80028,20.20912 42.80028,20.20912"
     id="path9063-5"
     inkscape:connector-curvature="0" />
  <path
     style="fill:none;stroke:#ff0000;stroke-width:0.28445572;stroke-linecap:butt;stroke-linejoin:miter;stroke-miterlimit:4;stroke-dasharray:none;stroke-opacity:1"
     d="m 456.77833,144.92487 2.22594,0.0253"
     id="path9179"
     inkscape:connector-curvature="0" />
  <path
     style="fill:none;stroke:#ff0000;stroke-width:0.28445572;stroke-linecap:butt;stroke-linejoin:miter;stroke-miterlimit:4;stroke-dasharray:none;stroke-opacity:1"
     d="m 457.04769,290.99958 c 0.40118,-9.31701 1.68722,0.0253 1.68722,0.0253"
     id="path9181"
     inkscape:connector-curvature="0" />
  <g
     id="g9876"
     transform="matrix(0.75262246,0,0,0.75262246,7.5740965e-6,-2.1416952e-6)">
    <path
       sodipodi:nodetypes="ccccccccccccccaccaacccsc"
       inkscape:connector-curvature="0"
       d="m 609.5153,386.68103 c -1.9686,31.75552 7.7944,63.35293 16.6277,87.12403 12.9929,34.5937 34.7971,78.7781 48.271,97.8171 8.6934,12.2837 42.9801,43.1758 110.4218,99.4897 10.735,8.9633 20.7571,17.4729 22.2719,18.9113 1.514,1.4368 3.1886,2.809 3.7205,3.0479 0.5321,0.239 13.939,11.0739 29.7917,24.0743 26.9621,22.1118 51.5631,42.1067 81.9268,66.5881 7.0413,5.6771 13.0277,10.195 13.3035,10.0401 0.2764,-0.1533 1.3167,-1.4119 2.317,-2.7862 v 0 c 1.0003,-1.3743 8.2102,-11.5284 16.0246,-22.5598 48.7349,-68.7982 81.1502,-117.3863 90.4328,-135.5544 5.6373,-11.0326 19.4252,-56.98313 32.2749,-107.558 4.9772,-19.58953 9.5043,-31.66682 17.1868,-46.1865 1.5495,-2.92849 3.8137,-5.13247 5.7516,-8.10631 1.7397,-1.86372 30.1022,-19.89951 42.4802,16.73069 0,0 8.6755,113.96495 5.3862,170.84732 -0.291,5.03215 -0.5568,10.19867 -2.2155,14.9585 -18.8276,54.02786 -85.8216,148.6474 -85.8216,148.6474 m -33.4824,-639.21264 c -0.3152,-0.2872 -8.1897,-0.3261 -17.5017,-0.0919 -9.3119,0.23428 -102.7596,2.46428 -207.662,4.95474 -104.9023,2.49042 -191.1479,4.73696 -191.1479,4.73696"
       style="fill:none;stroke:#ff0000;stroke-width:0.37795275;stroke-linecap:butt;stroke-linejoin:miter;stroke-miterlimit:4;stroke-dasharray:none;stroke-opacity:1"
       id="path9872" />
  </g>
</svg>
