<?xml version="1.0" encoding="UTF-8" standalone="no"?>
<!-- Created with Inkscape (http://www.inkscape.org/) -->

<svg
   xmlns:dc="http://purl.org/dc/elements/1.1/"
   xmlns:cc="http://creativecommons.org/ns#"
   xmlns:rdf="http://www.w3.org/1999/02/22-rdf-syntax-ns#"
   xmlns:svg="http://www.w3.org/2000/svg"
   xmlns="http://www.w3.org/2000/svg"
   xmlns:sodipodi="http://sodipodi.sourceforge.net/DTD/sodipodi-0.dtd"
   xmlns:inkscape="http://www.inkscape.org/namespaces/inkscape"
   version="1.1"
   id="svg4504"
   width="306.06418mm"
   height="240mm"
   viewBox="0 0 1156.7781 907.08658"
   sodipodi:docname="Mask_240_001.svg"
   inkscape:version="0.92.2 (5c3e80d, 2017-08-06)">
  <metadata
     id="metadata4510">
    <rdf:RDF>
      <cc:Work
         rdf:about="">
        <dc:format>image/svg+xml</dc:format>
        <dc:type
           rdf:resource="http://purl.org/dc/dcmitype/StillImage" />
        <dc:title></dc:title>
      </cc:Work>
    </rdf:RDF>
  </metadata>
  <defs
     id="defs4508" />
  <sodipodi:namedview
     pagecolor="#ffffff"
     bordercolor="#666666"
     borderopacity="1"
     objecttolerance="10"
     gridtolerance="10"
     guidetolerance="10"
     inkscape:pageopacity="0"
     inkscape:pageshadow="2"
     inkscape:window-width="2560"
     inkscape:window-height="1315"
     id="namedview4506"
     showgrid="false"
     inkscape:zoom="1.1835804"
     inkscape:cx="679.73048"
     inkscape:cy="833.91902"
     inkscape:window-x="-13"
     inkscape:window-y="-13"
     inkscape:window-maximized="1"
     inkscape:current-layer="svg4504"
     inkscape:document-units="mm"
     units="mm" />
  <path
     style="fill:none;stroke:#ff0000;stroke-width:0.3593125;stroke-linejoin:round;stroke-miterlimit:4;stroke-dasharray:none;stroke-opacity:1"
     d="m 181.20357,173.93664 c 0.29964,-0.27304 7.78584,-0.31002 16.63855,-0.0874 8.85268,0.22273 97.69161,2.34274 197.42029,4.71037 99.72863,2.3676 181.72073,4.50334 181.72073,4.50334 m 0.34026,184.51543 c 1.87149,30.18937 -7.41003,60.22843 -15.80767,82.82718 -12.35213,32.8876 -33.0809,74.8928 -45.89031,92.99284 -8.26461,11.6779 -40.86033,41.04644 -104.97589,94.58293 -10.20556,8.52132 -19.73338,16.61117 -21.17348,17.97864 -1.43931,1.36592 -3.03135,2.67046 -3.53705,2.89764 -0.50582,0.22712 -13.25153,10.52766 -28.32234,22.88693 -25.63238,21.02129 -49.02013,40.03005 -77.88633,63.30409 -6.69399,5.39708 -12.38517,9.69214 -12.64733,9.54489 -0.26283,-0.14572 -1.25181,-1.34227 -2.20275,-2.64877 l -0.002,0.003 c -0.95101,-1.30655 -7.80531,-10.95984 -15.23426,-21.44722 -46.33139,-65.40513 -77.14798,-111.59686 -85.97278,-128.86896 -5.35925,-10.48845 -18.46802,-54.1726 -30.68312,-102.25337 -4.73258,-18.62315 -7.93786,-27.23859 -16.33916,-43.90861 -2.53608,-5.03142 -2.19053,-4.53547 -3.99732,-7.3337"
     id="path5888"
     inkscape:connector-curvature="0"
     sodipodi:nodetypes="ccsccccccccccccccccc" />
  <path
     style="fill:none;stroke:#ff0000;stroke-width:0.3593125;stroke-linecap:butt;stroke-linejoin:round;stroke-miterlimit:4;stroke-dasharray:none;stroke-opacity:1"
     d="m 143.35576,225.15512 c 22.18081,5.81005 15.39794,29.05058 15.39794,29.05058"
     id="path6572"
     inkscape:connector-curvature="0" />
  <path
     style="fill:none;stroke:#ff0000;stroke-width:0.3593125;stroke-linecap:butt;stroke-linejoin:round;stroke-miterlimit:4;stroke-dasharray:none;stroke-opacity:1"
     d="M 81.979587,374.98945 C 121.58758,387.18871 131.2235,353.15623 131.2235,353.15623"
     id="path6614"
     inkscape:connector-curvature="0" />
  <path
     style="fill:none;stroke:#ff0000;stroke-width:0.3593125;stroke-linecap:butt;stroke-linejoin:miter;stroke-miterlimit:4;stroke-dasharray:none;stroke-opacity:1"
     d="m 158.7537,254.2057 -27.5302,98.95053"
     id="path7895"
     inkscape:connector-curvature="0" />
  <path
     style="fill:none;fill-opacity:1;stroke:#ff0000;stroke-width:0.3593125;stroke-linejoin:round;stroke-miterlimit:4;stroke-dasharray:none;stroke-opacity:1"
     d="m 476.46069,43.369873 h -333.9886 m 0,-43.19021675 h 353.8674"
     id="rect8917"
     inkscape:connector-curvature="0"
     sodipodi:nodetypes="cccc" />
  <path
     style="fill:none;fill-opacity:1;stroke:#ff0000;stroke-width:0.3593125;stroke-linejoin:round;stroke-miterlimit:4;stroke-dasharray:none;stroke-opacity:1"
     d="M 476.75299,99.433729 H 197.82853 M 169.14627,57.930797 476.75299,56.226902"
     id="rect8917-0"
     inkscape:connector-curvature="0"
     sodipodi:nodetypes="cccc" />
  <path
     style="fill:none;fill-opacity:1;stroke:#ff0000;stroke-width:0.3593125;stroke-linejoin:round;stroke-miterlimit:4;stroke-dasharray:none;stroke-opacity:1"
     d="m 198.40228,112.06043 344.22122,-0.80322 17.67095,43.20713 -361.89217,0.80322"
     id="rect8917-0-6"
     inkscape:connector-curvature="0"
     sodipodi:nodetypes="cccc" />
  <path
     style="fill:none;stroke:#ff0000;stroke-width:0.3593125;stroke-linecap:butt;stroke-linejoin:miter;stroke-miterlimit:4;stroke-dasharray:none;stroke-opacity:1"
     d="m 476.46069,43.369863 c 21.87996,5.513617 0.29231,12.857039 0.29231,12.857039"
     id="path8949"
     inkscape:connector-curvature="0" />
  <path
     style="fill:none;stroke:#ff0000;stroke-width:0.3593125;stroke-linecap:butt;stroke-linejoin:round;stroke-miterlimit:4;stroke-dasharray:none;stroke-opacity:1"
     d="M 496.33949,0.17965625 C 606.79639,57.272613 476.753,99.433729 476.753,99.433729"
     id="path8951"
     inkscape:connector-curvature="0"
     sodipodi:nodetypes="cc" />
  <path
     style="fill:none;stroke:#ff0000;stroke-width:0.3593125;stroke-linecap:butt;stroke-linejoin:miter;stroke-miterlimit:4;stroke-dasharray:none;stroke-opacity:1"
     d="m 197.82853,99.433729 c -33.72975,6.980721 0.57375,12.626701 0.57375,12.626701"
     id="path8953"
     inkscape:connector-curvature="0" />
  <path
     style="fill:none;stroke:#ff0000;stroke-width:0.3593125;stroke-linecap:butt;stroke-linejoin:miter;stroke-miterlimit:4;stroke-dasharray:none;stroke-opacity:1"
     d="M 169.14627,57.930797 C 52.282763,107.91754 198.40228,155.26756 198.40228,155.26756"
     id="path8955"
     inkscape:connector-curvature="0"
     sodipodi:nodetypes="cc" />
  <path
     style="fill:none;stroke:#ff0000;stroke-width:0.3593125;stroke-linecap:butt;stroke-linejoin:miter;stroke-miterlimit:4;stroke-dasharray:none;stroke-opacity:1"
     d="M 181.20357,173.93664 C -40.116446,69.199899 142.47209,43.369863 142.47209,43.369863"
     id="path8957"
     inkscape:connector-curvature="0" />
  <path
     style="fill:none;stroke:#ff0000;stroke-width:0.3593125;stroke-linecap:butt;stroke-linejoin:miter;stroke-miterlimit:4;stroke-dasharray:none;stroke-opacity:1"
     d="M 143.35576,225.15512 C -178.27573,29.30488 142.47209,0.17965625 142.47209,0.17965625"
     id="path8959"
     inkscape:connector-curvature="0" />
  <path
     style="fill:none;fill-opacity:1;stroke:#ff0000;stroke-width:0.3593125;stroke-linejoin:round;stroke-miterlimit:4;stroke-dasharray:none;stroke-opacity:1"
     d="m 65.67727,462.90899 v 163.17795 m -54.742612,0 V 462.90899"
     id="rect8964"
     inkscape:connector-curvature="0"
     sodipodi:nodetypes="cccc" />
  <path
     style="fill:none;fill-opacity:1;stroke:#ff0000;stroke-width:0.3593125;stroke-linejoin:round;stroke-miterlimit:4;stroke-dasharray:none;stroke-opacity:1"
     d="M 67.783503,640.30775 149.37248,781.62401 M 101.96399,808.99532 20.375014,667.67906"
     id="rect8964-2"
     inkscape:connector-curvature="0"
     sodipodi:nodetypes="cccc" />
  <path
     style="fill:none;fill-opacity:1;stroke:#ff0000;stroke-width:0.3593125;stroke-linejoin:round;stroke-miterlimit:4;stroke-dasharray:none;stroke-opacity:1"
     d="m 178.407,787.02341 h 163.17797 m 0,54.7426 H 178.407"
     id="rect8964-6"
     inkscape:connector-curvature="0"
     sodipodi:nodetypes="cccc" />
  <path
     style="fill:none;fill-opacity:1;stroke:#ff0000;stroke-width:0.3593125;stroke-linejoin:round;stroke-miterlimit:4;stroke-dasharray:none;stroke-opacity:1"
     d="m 398.64114,820.4117 111.7266,-91.92429 m -31.45097,-36.75198 -111.72662,91.92429"
     id="rect8964-2-3"
     inkscape:connector-curvature="0"
     sodipodi:nodetypes="cccc" />
  <path
     style="fill:none;fill-opacity:1;stroke:#ff0000;stroke-width:0.3593125;stroke-linejoin:round;stroke-miterlimit:4;stroke-dasharray:none;stroke-opacity:1"
     d="M 524.49743,748.69336 418.08741,843.0538 m 29.95437,37.72598 106.41001,-94.36044"
     id="rect8964-2-3-6"
     inkscape:connector-curvature="0"
     sodipodi:nodetypes="cccc" />
  <path
     style="fill:none;fill-opacity:1;stroke:#ff0000;stroke-width:0.3593125;stroke-linejoin:round;stroke-miterlimit:4;stroke-dasharray:none;stroke-opacity:1"
     d="M 393.9783,906.30711 68.730388,906.87507 43.171936,851.67418 H 393.9783"
     id="rect8964-6-4"
     inkscape:connector-curvature="0"
     sodipodi:nodetypes="cccc" />
  <path
     style="fill:none;stroke:#ff0000;stroke-width:0.3593125;stroke-linecap:butt;stroke-linejoin:miter;stroke-miterlimit:4;stroke-dasharray:none;stroke-opacity:1"
     d="M 81.979587,374.98945 C 18.715112,327.10043 10.934658,462.90899 10.934658,462.90899"
     id="path9041"
     inkscape:connector-curvature="0" />
  <path
     style="fill:none;stroke:#ff0000;stroke-width:0.3593125;stroke-linecap:butt;stroke-linejoin:miter;stroke-miterlimit:4;stroke-dasharray:none;stroke-opacity:1"
     d="m 65.67727,626.08693 c -3.387218,8.24694 2.106227,14.22083 2.106227,14.22083"
     id="path9045"
     inkscape:connector-curvature="0" />
  <path
     style="fill:none;stroke:#ff0000;stroke-width:0.3593125;stroke-linecap:butt;stroke-linejoin:miter;stroke-miterlimit:4;stroke-dasharray:none;stroke-opacity:1"
     d="m 10.934658,626.08693 c -1.6574359,23.3074 9.44035,41.59214 9.44035,41.59214"
     id="path9047"
     inkscape:connector-curvature="0" />
  <path
     style="fill:none;stroke:#ff0000;stroke-width:0.3593125;stroke-linecap:butt;stroke-linejoin:miter;stroke-miterlimit:4;stroke-dasharray:none;stroke-opacity:1"
     d="m 149.37248,781.62402 c 8.90292,8.53544 29.03452,5.39938 29.03452,5.39938"
     id="path9049"
     inkscape:connector-curvature="0" />
  <path
     style="fill:none;stroke:#ff0000;stroke-width:0.3593125;stroke-linecap:butt;stroke-linejoin:miter;stroke-miterlimit:4;stroke-dasharray:none;stroke-opacity:1"
     d="m 101.964,808.99533 c 27.39532,23.33341 76.443,32.77068 76.443,32.77068"
     id="path9051"
     inkscape:connector-curvature="0" />
  <path
     style="fill:none;stroke:#ff0000;stroke-width:0.3593125;stroke-linecap:butt;stroke-linejoin:miter;stroke-miterlimit:4;stroke-dasharray:none;stroke-opacity:1"
     d="m 341.58496,787.0234 c 12.67726,2.73444 25.60519,-3.36369 25.60519,-3.36369"
     id="path9053"
     inkscape:connector-curvature="0" />
  <path
     style="fill:none;stroke:#ff0000;stroke-width:0.3593125;stroke-linecap:butt;stroke-linejoin:miter;stroke-miterlimit:4;stroke-dasharray:none;stroke-opacity:1"
     d="m 341.58496,841.76601 c 32.75787,-1.40501 57.05618,-21.35432 57.05618,-21.35432"
     id="path9055"
     inkscape:connector-curvature="0" />
  <path
     style="fill:none;stroke:#ff0000;stroke-width:0.3593125;stroke-linecap:butt;stroke-linejoin:miter;stroke-miterlimit:4;stroke-dasharray:none;stroke-opacity:1"
     d="m 510.36774,728.48742 c 26.22648,-5.39722 14.1297,20.20595 14.1297,20.20595"
     id="path9057"
     inkscape:connector-curvature="0" />
  <path
     style="fill:none;stroke:#ff0000;stroke-width:0.3593125;stroke-linecap:butt;stroke-linejoin:miter;stroke-miterlimit:4;stroke-dasharray:none;stroke-opacity:1"
     d="m 478.91676,691.73544 c 143.22089,-33.30483 75.53503,94.6839 75.53503,94.6839"
     id="path9059"
     inkscape:connector-curvature="0" />
  <path
     style="fill:none;stroke:#ff0000;stroke-width:0.3593125;stroke-linecap:butt;stroke-linejoin:miter;stroke-miterlimit:4;stroke-dasharray:none;stroke-opacity:1"
     d="m 418.08742,843.05381 c -8.60352,8.55233 -24.10912,8.62037 -24.10912,8.62037"
     id="path9061"
     inkscape:connector-curvature="0" />
  <path
     style="fill:none;stroke:#ff0000;stroke-width:0.3593125;stroke-linecap:butt;stroke-linejoin:miter;stroke-miterlimit:4;stroke-dasharray:none;stroke-opacity:1"
     d="m 448.04178,880.77978 c -16.8708,22.03193 -54.06348,25.52734 -54.06348,25.52734"
     id="path9063"
     inkscape:connector-curvature="0" />
  <path
     style="fill:none;stroke:#ff0000;stroke-width:0.3593125;stroke-linejoin:round;stroke-miterlimit:4;stroke-dasharray:none;stroke-opacity:1"
     d="m 975.57435,173.96856 c -0.29961,-0.27304 -7.78579,-0.31002 -16.6385,-0.0874 -8.85264,0.22273 -97.69159,2.34274 -197.42031,4.71038 -99.72863,2.36759 -181.72068,4.50333 -181.72068,4.50333 m -0.34024,184.51541 c -1.87151,30.18937 7.40998,60.22843 15.80764,82.82715 12.3521,32.88758 33.08093,74.89285 45.89032,92.99287 8.26465,11.67787 40.86036,41.04641 104.9759,94.58296 10.20556,8.52124 19.73339,16.61116 21.17347,17.97861 1.43933,1.36595 3.03135,2.67047 3.53702,2.89759 0.50585,0.22721 13.25154,10.52774 28.3224,22.88698 25.63235,21.02127 49.02005,40.03004 77.88624,63.30404 6.69404,5.39711 12.3852,9.69219 12.64739,9.54493 0.26277,-0.14574 1.25176,-1.34226 2.20273,-2.64878 v 0 c 0.95097,-1.30652 7.80528,-10.95983 15.23429,-21.44718 46.33133,-65.40514 77.1479,-111.59693 85.9727,-128.86899 5.3593,-10.48849 18.46808,-54.17257 30.68318,-102.25335 4.7326,-18.62317 7.9379,-27.23863 16.3392,-43.90862 2.536,-5.03139 2.1905,-4.53542 3.9973,-7.33375"
     id="path5888-6"
     inkscape:connector-curvature="0"
     sodipodi:nodetypes="ccsccccccccccccccccc" />
  <path
     inkscape:connector-curvature="0"
     style="fill:none;stroke:#ff0000;stroke-width:0.3593125;stroke-linecap:butt;stroke-linejoin:round;stroke-miterlimit:4;stroke-dasharray:none;stroke-opacity:1"
     d="m 1013.4223,225.18704 c -22.18084,5.81004 -15.39806,29.05057 -15.39806,29.05057"
     id="path6572-1" />
  <path
     inkscape:connector-curvature="0"
     style="fill:none;stroke:#ff0000;stroke-width:0.3593125;stroke-linecap:butt;stroke-linejoin:round;stroke-miterlimit:4;stroke-dasharray:none;stroke-opacity:1"
     d="m 1074.7984,375.02136 c -39.608,12.19925 -49.244,-21.83323 -49.244,-21.83323"
     id="path6614-3" />
  <path
     inkscape:connector-curvature="0"
     style="fill:none;stroke:#ff0000;stroke-width:0.3593125;stroke-linecap:butt;stroke-linejoin:miter;stroke-miterlimit:4;stroke-dasharray:none;stroke-opacity:1"
     d="m 998.02424,254.23761 27.53016,98.95052"
     id="path7895-9" />
  <path
     style="fill:none;fill-opacity:1;stroke:#ff0000;stroke-width:0.3593125;stroke-linejoin:round;stroke-miterlimit:4;stroke-dasharray:none;stroke-opacity:1"
     d="m 680.3173,43.401777 h 333.9886 m 0,-43.19020675 H 660.43847"
     id="rect8917-8"
     inkscape:connector-curvature="0"
     sodipodi:nodetypes="cccc" />
  <path
     style="fill:none;fill-opacity:1;stroke:#ff0000;stroke-width:0.3593125;stroke-linejoin:round;stroke-miterlimit:4;stroke-dasharray:none;stroke-opacity:1"
     d="M 680.02497,99.465649 H 958.94945 M 987.63166,57.962703 680.02497,56.258806"
     id="rect8917-0-4"
     inkscape:connector-curvature="0"
     sodipodi:nodetypes="cccc" />
  <path
     style="fill:none;fill-opacity:1;stroke:#ff0000;stroke-width:0.3593125;stroke-linejoin:round;stroke-miterlimit:4;stroke-dasharray:none;stroke-opacity:1"
     d="m 958.37571,112.09235 -344.22124,-0.80322 -17.67097,43.20713 361.89221,0.80323"
     id="rect8917-0-6-5"
     inkscape:connector-curvature="0"
     sodipodi:nodetypes="cccc" />
  <path
     style="fill:none;stroke:#ff0000;stroke-width:0.3593125;stroke-linecap:butt;stroke-linejoin:miter;stroke-miterlimit:4;stroke-dasharray:none;stroke-opacity:1"
     d="m 680.3173,43.401768 c -21.87992,5.513617 -0.29233,12.857038 -0.29233,12.857038"
     id="path8949-8"
     inkscape:connector-curvature="0" />
  <path
     style="fill:none;stroke:#ff0000;stroke-width:0.3593125;stroke-linecap:butt;stroke-linejoin:round;stroke-miterlimit:4;stroke-dasharray:none;stroke-opacity:1"
     d="M 660.43847,0.21157025 C 549.9816,57.304517 680.02497,99.465649 680.02497,99.465649"
     id="path8951-4"
     inkscape:connector-curvature="0"
     sodipodi:nodetypes="cc" />
  <path
     style="fill:none;stroke:#ff0000;stroke-width:0.3593125;stroke-linecap:butt;stroke-linejoin:miter;stroke-miterlimit:4;stroke-dasharray:none;stroke-opacity:1"
     d="m 958.94945,99.465649 c 33.7298,6.980721 -0.57374,12.626701 -0.57374,12.626701"
     id="path8953-1"
     inkscape:connector-curvature="0" />
  <path
     style="fill:none;stroke:#ff0000;stroke-width:0.3593125;stroke-linecap:butt;stroke-linejoin:miter;stroke-miterlimit:4;stroke-dasharray:none;stroke-opacity:1"
     d="M 987.63166,57.962703 C 1104.4952,107.94946 958.37571,155.29949 958.37571,155.29949"
     id="path8955-8"
     inkscape:connector-curvature="0"
     sodipodi:nodetypes="cc" />
  <path
     style="fill:none;stroke:#ff0000;stroke-width:0.3593125;stroke-linecap:butt;stroke-linejoin:miter;stroke-miterlimit:4;stroke-dasharray:none;stroke-opacity:1"
     d="M 975.57435,173.96856 C 1196.8945,69.231799 1014.3059,43.401768 1014.3059,43.401768"
     id="path8957-7"
     inkscape:connector-curvature="0" />
  <path
     style="fill:none;stroke:#ff0000;stroke-width:0.3593125;stroke-linecap:butt;stroke-linejoin:miter;stroke-miterlimit:4;stroke-dasharray:none;stroke-opacity:1"
     d="M 1013.4223,225.18704 C 1335.0536,29.336785 1014.3059,0.21157025 1014.3059,0.21157025"
     id="path8959-4"
     inkscape:connector-curvature="0" />
  <path
     style="fill:none;fill-opacity:1;stroke:#ff0000;stroke-width:0.3593125;stroke-linejoin:round;stroke-miterlimit:4;stroke-dasharray:none;stroke-opacity:1"
     d="m 1091.1007,462.94092 v 163.17792 m 54.7426,0 V 462.94092"
     id="rect8964-8"
     inkscape:connector-curvature="0"
     sodipodi:nodetypes="cccc" />
  <path
     style="fill:none;fill-opacity:1;stroke:#ff0000;stroke-width:0.3593125;stroke-linejoin:round;stroke-miterlimit:4;stroke-dasharray:none;stroke-opacity:1"
     d="m 1088.9944,640.33961 -81.5889,141.31626 m 47.4085,27.37134 81.589,-141.31626"
     id="rect8964-2-8"
     inkscape:connector-curvature="0"
     sodipodi:nodetypes="cccc" />
  <path
     style="fill:none;fill-opacity:1;stroke:#ff0000;stroke-width:0.3593125;stroke-linejoin:round;stroke-miterlimit:4;stroke-dasharray:none;stroke-opacity:1"
     d="M 978.37102,787.05526 H 815.19298 m 0,54.74268 h 163.17804"
     id="rect8964-6-5"
     inkscape:connector-curvature="0"
     sodipodi:nodetypes="cccc" />
  <path
     style="fill:none;fill-opacity:1;stroke:#ff0000;stroke-width:0.3593125;stroke-linejoin:round;stroke-miterlimit:4;stroke-dasharray:none;stroke-opacity:1"
     d="m 758.13682,820.44356 -111.7266,-91.92429 m 31.451,-36.7519 111.72659,91.92429"
     id="rect8964-2-3-4"
     inkscape:connector-curvature="0"
     sodipodi:nodetypes="cccc" />
  <path
     style="fill:none;fill-opacity:1;stroke:#ff0000;stroke-width:0.3593125;stroke-linejoin:round;stroke-miterlimit:4;stroke-dasharray:none;stroke-opacity:1"
     d="m 632.28054,748.72523 106.41001,94.3605 m -29.95435,37.72598 -106.41,-94.36051"
     id="rect8964-2-3-6-8"
     inkscape:connector-curvature="0"
     sodipodi:nodetypes="cccc" />
  <path
     style="fill:none;fill-opacity:1;stroke:#ff0000;stroke-width:0.3593125;stroke-linejoin:round;stroke-miterlimit:4;stroke-dasharray:none;stroke-opacity:1"
     d="m 762.79972,906.33901 325.24788,0.56794 25.5584,-55.20092 H 762.79972"
     id="rect8964-6-4-5"
     inkscape:connector-curvature="0"
     sodipodi:nodetypes="cccc" />
  <path
     style="fill:none;stroke:#ff0000;stroke-width:0.3593125;stroke-linecap:butt;stroke-linejoin:miter;stroke-miterlimit:4;stroke-dasharray:none;stroke-opacity:1"
     d="m 1074.7984,375.02136 c 63.2645,-47.88902 71.0449,87.91956 71.0449,87.91956"
     id="path9041-6"
     inkscape:connector-curvature="0" />
  <path
     style="fill:none;stroke:#ff0000;stroke-width:0.3593125;stroke-linecap:butt;stroke-linejoin:miter;stroke-miterlimit:4;stroke-dasharray:none;stroke-opacity:1"
     d="m 1091.1007,626.11884 c 3.3872,8.24688 -2.1063,14.22077 -2.1063,14.22077"
     id="path9045-7"
     inkscape:connector-curvature="0" />
  <path
     style="fill:none;stroke:#ff0000;stroke-width:0.3593125;stroke-linecap:butt;stroke-linejoin:miter;stroke-miterlimit:4;stroke-dasharray:none;stroke-opacity:1"
     d="m 1145.8433,626.11884 c 1.6574,23.30738 -9.4403,41.59211 -9.4403,41.59211"
     id="path9047-7"
     inkscape:connector-curvature="0" />
  <path
     style="fill:none;stroke:#ff0000;stroke-width:0.3593125;stroke-linecap:butt;stroke-linejoin:miter;stroke-miterlimit:4;stroke-dasharray:none;stroke-opacity:1"
     d="m 1007.4055,781.65587 c -8.90299,8.5355 -29.03448,5.39939 -29.03448,5.39939"
     id="path9049-5"
     inkscape:connector-curvature="0" />
  <path
     style="fill:none;stroke:#ff0000;stroke-width:0.3593125;stroke-linecap:butt;stroke-linejoin:miter;stroke-miterlimit:4;stroke-dasharray:none;stroke-opacity:1"
     d="m 1054.8139,809.02721 c -27.3952,23.33342 -76.44288,32.77073 -76.44288,32.77073"
     id="path9051-2"
     inkscape:connector-curvature="0" />
  <path
     style="fill:none;stroke:#ff0000;stroke-width:0.3593125;stroke-linecap:butt;stroke-linejoin:miter;stroke-miterlimit:4;stroke-dasharray:none;stroke-opacity:1"
     d="m 815.19298,787.05526 c -12.67723,2.73444 -25.60517,-3.3637 -25.60517,-3.3637"
     id="path9053-2"
     inkscape:connector-curvature="0" />
  <path
     style="fill:none;stroke:#ff0000;stroke-width:0.3593125;stroke-linecap:butt;stroke-linejoin:miter;stroke-miterlimit:4;stroke-dasharray:none;stroke-opacity:1"
     d="m 815.19298,841.79794 c -32.7578,-1.4051 -57.05616,-21.35438 -57.05616,-21.35438"
     id="path9055-6"
     inkscape:connector-curvature="0" />
  <path
     style="fill:none;stroke:#ff0000;stroke-width:0.3593125;stroke-linecap:butt;stroke-linejoin:miter;stroke-miterlimit:4;stroke-dasharray:none;stroke-opacity:1"
     d="m 646.41022,728.51927 c -26.22643,-5.39721 -14.12968,20.20596 -14.12968,20.20596"
     id="path9057-1"
     inkscape:connector-curvature="0" />
  <path
     style="fill:none;stroke:#ff0000;stroke-width:0.3593125;stroke-linecap:butt;stroke-linejoin:miter;stroke-miterlimit:4;stroke-dasharray:none;stroke-opacity:1"
     d="M 677.86122,691.76737 C 534.64037,658.46254 602.3262,786.4512 602.3262,786.4512"
     id="path9059-1"
     inkscape:connector-curvature="0" />
  <path
     style="fill:none;stroke:#ff0000;stroke-width:0.3593125;stroke-linecap:butt;stroke-linejoin:miter;stroke-miterlimit:4;stroke-dasharray:none;stroke-opacity:1"
     d="m 738.69055,843.08573 c 8.60356,8.55234 24.10917,8.6203 24.10917,8.6203"
     id="path9061-2"
     inkscape:connector-curvature="0" />
  <path
     style="fill:none;stroke:#ff0000;stroke-width:0.3593125;stroke-linecap:butt;stroke-linejoin:miter;stroke-miterlimit:4;stroke-dasharray:none;stroke-opacity:1"
     d="m 708.7362,880.81171 c 16.87078,22.03193 54.06352,25.5273 54.06352,25.5273"
     id="path9063-5"
     inkscape:connector-curvature="0" />
  <path
     style="fill:none;stroke:#ff0000;stroke-width:0.3593125;stroke-linecap:butt;stroke-linejoin:miter;stroke-miterlimit:4;stroke-dasharray:none;stroke-opacity:1"
     d="m 576.98314,183.06298 2.81172,0.032"
     id="path9179"
     inkscape:connector-curvature="0" />
  <path
     style="fill:none;stroke:#ff0000;stroke-width:0.3593125;stroke-linecap:butt;stroke-linejoin:miter;stroke-miterlimit:4;stroke-dasharray:none;stroke-opacity:1"
     d="m 577.3234,367.57841 c 0.50674,-11.76885 2.13122,0.032 2.13122,0.032"
     id="path9181"
     inkscape:connector-curvature="0" />
  <path
     style="fill:none;fill-opacity:1;stroke:#ff0000;stroke-width:0.3593125;stroke-linejoin:round;stroke-miterlimit:4;stroke-dasharray:none;stroke-opacity:1"
     d="m 65.67727,462.90899 c 9.152202,-40.58105 46.97444,-14.77322 46.97444,-14.77322"
     id="path882"
     inkscape:connector-curvature="0" />
  <path
     style="fill:none;fill-opacity:1;stroke:#ff0000;stroke-width:0.3593125;stroke-linejoin:round;stroke-miterlimit:4;stroke-dasharray:none;stroke-opacity:1"
     d="m 1044.1244,448.16477 c 32.5982,-28.53515 46.9763,14.77616 46.9763,14.77616"
     id="path884"
     inkscape:connector-curvature="0" />
</svg>
