<?xml version="1.0" encoding="UTF-8" standalone="no"?>
<!-- Created with Inkscape (http://www.inkscape.org/) -->

<svg
   xmlns:dc="http://purl.org/dc/elements/1.1/"
   xmlns:cc="http://creativecommons.org/ns#"
   xmlns:rdf="http://www.w3.org/1999/02/22-rdf-syntax-ns#"
   xmlns:svg="http://www.w3.org/2000/svg"
   xmlns="http://www.w3.org/2000/svg"
   xmlns:sodipodi="http://sodipodi.sourceforge.net/DTD/sodipodi-0.dtd"
   xmlns:inkscape="http://www.inkscape.org/namespaces/inkscape"
   version="1.1"
   id="svg4504"
   width="267.80615mm"
   height="210mm"
   viewBox="0 0 1012.1809 793.70077"
   sodipodi:docname="Mask_210_001.svg"
   inkscape:version="0.92.2 (5c3e80d, 2017-08-06)">
  <metadata
     id="metadata4510">
    <rdf:RDF>
      <cc:Work
         rdf:about="">
        <dc:format>image/svg+xml</dc:format>
        <dc:type
           rdf:resource="http://purl.org/dc/dcmitype/StillImage" />
        <dc:title></dc:title>
      </cc:Work>
    </rdf:RDF>
  </metadata>
  <defs
     id="defs4508" />
  <sodipodi:namedview
     pagecolor="#ffffff"
     bordercolor="#666666"
     borderopacity="1"
     objecttolerance="10"
     gridtolerance="10"
     guidetolerance="10"
     inkscape:pageopacity="0"
     inkscape:pageshadow="2"
     inkscape:window-width="2560"
     inkscape:window-height="1315"
     id="namedview4506"
     showgrid="false"
     inkscape:zoom="1.1835804"
     inkscape:cx="679.73048"
     inkscape:cy="833.91894"
     inkscape:window-x="-13"
     inkscape:window-y="-13"
     inkscape:window-maximized="1"
     inkscape:current-layer="svg4504"
     inkscape:document-units="mm"
     units="mm" />
  <path
     style="fill:none;stroke:#ff0000;stroke-width:0.31439847;stroke-linejoin:round;stroke-miterlimit:4;stroke-dasharray:none;stroke-opacity:1"
     d="m 158.55313,152.19457 c 0.2622,-0.23891 6.81261,-0.27127 14.55874,-0.0766 7.7461,0.19489 85.48017,2.04989 172.74277,4.12157 87.26256,2.07165 159.00565,3.94042 159.00565,3.94042 m 0.29773,161.45102 c 1.63755,26.4157 -6.48378,52.69989 -13.83171,72.47379 -10.80812,28.77666 -28.94579,65.5312 -40.15403,81.36874 -7.23154,10.21816 -35.75279,35.91564 -91.85391,82.76008 -8.92986,7.45614 -17.26671,14.53477 -18.5268,15.73131 -1.25939,1.19518 -2.65243,2.33665 -3.09492,2.53542 -0.44259,0.19874 -11.59508,9.21171 -24.78205,20.02607 -22.42833,18.39363 -42.89261,35.02629 -68.15055,55.39108 -5.85723,4.72245 -10.83702,8.48062 -11.0664,8.35179 -0.22998,-0.12751 -1.09535,-1.17448 -1.92741,-2.31768 l -0.002,0.003 c -0.83213,-1.14323 -6.82965,-9.58986 -13.32998,-18.76632 -40.53997,-57.2295 -67.50448,-97.64725 -75.22618,-112.76034 -4.68935,-9.1774 -16.15953,-47.40103 -26.84774,-89.47171 -4.14101,-16.29526 -6.94563,-23.83377 -14.29677,-38.42004 -2.219072,-4.4025 -1.91671,-3.96853 -3.497647,-6.41699"
     id="path5888"
     inkscape:connector-curvature="0"
     sodipodi:nodetypes="ccsccccccccccccccccc" />
  <path
     style="fill:none;stroke:#ff0000;stroke-width:0.31439847;stroke-linecap:butt;stroke-linejoin:round;stroke-miterlimit:4;stroke-dasharray:none;stroke-opacity:1"
     d="m 125.4363,197.01075 c 19.40821,5.08379 13.47319,25.41926 13.47319,25.41926"
     id="path6572"
     inkscape:connector-curvature="0" />
  <path
     style="fill:none;stroke:#ff0000;stroke-width:0.31439847;stroke-linecap:butt;stroke-linejoin:round;stroke-miterlimit:4;stroke-dasharray:none;stroke-opacity:1"
     d="m 71.732148,328.1158 c 34.656992,10.67434 43.088432,-19.10408 43.088432,-19.10408"
     id="path6614"
     inkscape:connector-curvature="0" />
  <path
     style="fill:none;stroke:#ff0000;stroke-width:0.31439847;stroke-linecap:butt;stroke-linejoin:miter;stroke-miterlimit:4;stroke-dasharray:none;stroke-opacity:1"
     d="m 138.90949,222.43001 -24.08891,86.58171"
     id="path7895"
     inkscape:connector-curvature="0" />
  <path
     style="fill:none;fill-opacity:1;stroke:#ff0000;stroke-width:0.31439847;stroke-linejoin:round;stroke-miterlimit:4;stroke-dasharray:none;stroke-opacity:1"
     d="M 416.90314,37.948643 H 124.66309 m 0,-37.79144377 h 309.634"
     id="rect8917"
     inkscape:connector-curvature="0"
     sodipodi:nodetypes="cccc" />
  <path
     style="fill:none;fill-opacity:1;stroke:#ff0000;stroke-width:0.31439847;stroke-linejoin:round;stroke-miterlimit:4;stroke-dasharray:none;stroke-opacity:1"
     d="M 417.15891,87.004519 H 173.09999 M 148.003,50.689452 417.15891,49.198544"
     id="rect8917-0"
     inkscape:connector-curvature="0"
     sodipodi:nodetypes="cccc" />
  <path
     style="fill:none;fill-opacity:1;stroke:#ff0000;stroke-width:0.31439847;stroke-linejoin:round;stroke-miterlimit:4;stroke-dasharray:none;stroke-opacity:1"
     d="m 173.60201,98.052879 301.1936,-0.70281 15.46208,37.806241 -316.65568,0.70281"
     id="rect8917-0-6"
     inkscape:connector-curvature="0"
     sodipodi:nodetypes="cccc" />
  <path
     style="fill:none;stroke:#ff0000;stroke-width:0.31439847;stroke-linecap:butt;stroke-linejoin:miter;stroke-miterlimit:4;stroke-dasharray:none;stroke-opacity:1"
     d="m 416.90314,37.948633 c 19.14496,4.824416 0.25577,11.249911 0.25577,11.249911"
     id="path8949"
     inkscape:connector-curvature="0" />
  <path
     style="fill:none;stroke:#ff0000;stroke-width:0.31439847;stroke-linecap:butt;stroke-linejoin:round;stroke-miterlimit:4;stroke-dasharray:none;stroke-opacity:1"
     d="M 434.29709,0.15719923 C 530.94689,50.113541 417.15891,87.004519 417.15891,87.004519"
     id="path8951"
     inkscape:connector-curvature="0"
     sodipodi:nodetypes="cc" />
  <path
     style="fill:none;stroke:#ff0000;stroke-width:0.31439847;stroke-linecap:butt;stroke-linejoin:miter;stroke-miterlimit:4;stroke-dasharray:none;stroke-opacity:1"
     d="m 173.09999,87.004519 c -29.51355,6.10813 0.50202,11.04836 0.50202,11.04836"
     id="path8953"
     inkscape:connector-curvature="0" />
  <path
     style="fill:none;stroke:#ff0000;stroke-width:0.31439847;stroke-linecap:butt;stroke-linejoin:miter;stroke-miterlimit:4;stroke-dasharray:none;stroke-opacity:1"
     d="M 148.003,50.689452 C 45.747424,94.427859 173.60201,135.85912 173.60201,135.85912"
     id="path8955"
     inkscape:connector-curvature="0"
     sodipodi:nodetypes="cc" />
  <path
     style="fill:none;stroke:#ff0000;stroke-width:0.31439847;stroke-linecap:butt;stroke-linejoin:miter;stroke-miterlimit:4;stroke-dasharray:none;stroke-opacity:1"
     d="M 158.55313,152.19457 C -35.101891,60.549914 124.66309,37.948633 124.66309,37.948633"
     id="path8957"
     inkscape:connector-curvature="0" />
  <path
     style="fill:none;stroke:#ff0000;stroke-width:0.31439847;stroke-linecap:butt;stroke-linejoin:miter;stroke-miterlimit:4;stroke-dasharray:none;stroke-opacity:1"
     d="M 125.4363,197.01075 C -155.99128,25.641772 124.66309,0.15719923 124.66309,0.15719923"
     id="path8959"
     inkscape:connector-curvature="0" />
  <path
     style="fill:none;fill-opacity:1;stroke:#ff0000;stroke-width:0.31439847;stroke-linejoin:round;stroke-miterlimit:4;stroke-dasharray:none;stroke-opacity:1"
     d="m 57.46762,405.0454 v 142.78071 m -47.8997904,0 V 405.0454"
     id="rect8964"
     inkscape:connector-curvature="0"
     sodipodi:nodetypes="cccc" />
  <path
     style="fill:none;fill-opacity:1;stroke:#ff0000;stroke-width:0.31439847;stroke-linejoin:round;stroke-miterlimit:4;stroke-dasharray:none;stroke-opacity:1"
     d="M 59.310573,560.26932 130.70093,683.92106 M 89.218502,707.87096 17.828141,584.21922"
     id="rect8964-2"
     inkscape:connector-curvature="0"
     sodipodi:nodetypes="cccc" />
  <path
     style="fill:none;fill-opacity:1;stroke:#ff0000;stroke-width:0.31439847;stroke-linejoin:round;stroke-miterlimit:4;stroke-dasharray:none;stroke-opacity:1"
     d="m 156.10614,688.64554 h 142.78074 m 0,47.89978 H 156.10614"
     id="rect8964-6"
     inkscape:connector-curvature="0"
     sodipodi:nodetypes="cccc" />
  <path
     style="fill:none;fill-opacity:1;stroke:#ff0000;stroke-width:0.31439847;stroke-linejoin:round;stroke-miterlimit:4;stroke-dasharray:none;stroke-opacity:1"
     d="m 348.81103,717.86029 97.76078,-80.43376 m -27.5196,-32.15799 -97.7608,80.43377"
     id="rect8964-2-3"
     inkscape:connector-curvature="0"
     sodipodi:nodetypes="cccc" />
  <path
     style="fill:none;fill-opacity:1;stroke:#ff0000;stroke-width:0.31439847;stroke-linejoin:round;stroke-miterlimit:4;stroke-dasharray:none;stroke-opacity:1"
     d="m 458.93529,655.10674 -93.10878,82.56539 m 26.21009,33.01025 93.10876,-82.5654"
     id="rect8964-2-3-6"
     inkscape:connector-curvature="0"
     sodipodi:nodetypes="cccc" />
  <path
     style="fill:none;fill-opacity:1;stroke:#ff0000;stroke-width:0.31439847;stroke-linejoin:round;stroke-miterlimit:4;stroke-dasharray:none;stroke-opacity:1"
     d="M 344.73104,793.01879 60.139098,793.51574 37.775451,745.21497 H 344.73104"
     id="rect8964-6-4"
     inkscape:connector-curvature="0"
     sodipodi:nodetypes="cccc" />
  <path
     style="fill:none;stroke:#ff0000;stroke-width:0.31439847;stroke-linecap:butt;stroke-linejoin:miter;stroke-miterlimit:4;stroke-dasharray:none;stroke-opacity:1"
     d="M 71.732148,328.1158 C 16.375728,286.2129 9.5678296,405.0454 9.5678296,405.0454"
     id="path9041"
     inkscape:connector-curvature="0" />
  <path
     style="fill:none;stroke:#ff0000;stroke-width:0.31439847;stroke-linecap:butt;stroke-linejoin:miter;stroke-miterlimit:4;stroke-dasharray:none;stroke-opacity:1"
     d="m 57.46762,547.8261 c -2.963817,7.21608 1.842947,12.44323 1.842947,12.44323"
     id="path9045"
     inkscape:connector-curvature="0" />
  <path
     style="fill:none;stroke:#ff0000;stroke-width:0.31439847;stroke-linecap:butt;stroke-linejoin:miter;stroke-miterlimit:4;stroke-dasharray:none;stroke-opacity:1"
     d="m 9.5678296,547.8261 c -1.4502567,20.39398 8.2603064,36.39313 8.2603064,36.39313"
     id="path9047"
     inkscape:connector-curvature="0" />
  <path
     style="fill:none;stroke:#ff0000;stroke-width:0.31439847;stroke-linecap:butt;stroke-linejoin:miter;stroke-miterlimit:4;stroke-dasharray:none;stroke-opacity:1"
     d="m 130.70093,683.92107 c 7.79005,7.46851 25.40521,4.72446 25.40521,4.72446"
     id="path9049"
     inkscape:connector-curvature="0" />
  <path
     style="fill:none;stroke:#ff0000;stroke-width:0.31439847;stroke-linecap:butt;stroke-linejoin:miter;stroke-miterlimit:4;stroke-dasharray:none;stroke-opacity:1"
     d="m 89.21851,707.87097 c 23.97091,20.41674 66.88763,28.67435 66.88763,28.67435"
     id="path9051"
     inkscape:connector-curvature="0" />
  <path
     style="fill:none;stroke:#ff0000;stroke-width:0.31439847;stroke-linecap:butt;stroke-linejoin:miter;stroke-miterlimit:4;stroke-dasharray:none;stroke-opacity:1"
     d="m 298.88687,688.64553 c 11.0926,2.39264 22.40454,-2.94323 22.40454,-2.94323"
     id="path9053"
     inkscape:connector-curvature="0" />
  <path
     style="fill:none;stroke:#ff0000;stroke-width:0.31439847;stroke-linecap:butt;stroke-linejoin:miter;stroke-miterlimit:4;stroke-dasharray:none;stroke-opacity:1"
     d="m 298.88687,736.54532 c 28.66313,-1.22939 49.92416,-18.68504 49.92416,-18.68504"
     id="path9055"
     inkscape:connector-curvature="0" />
  <path
     style="fill:none;stroke:#ff0000;stroke-width:0.31439847;stroke-linecap:butt;stroke-linejoin:miter;stroke-miterlimit:4;stroke-dasharray:none;stroke-opacity:1"
     d="m 446.57181,637.42654 c 22.94818,-4.72257 12.36349,17.68021 12.36349,17.68021"
     id="path9057"
     inkscape:connector-curvature="0" />
  <path
     style="fill:none;stroke:#ff0000;stroke-width:0.31439847;stroke-linecap:butt;stroke-linejoin:miter;stroke-miterlimit:4;stroke-dasharray:none;stroke-opacity:1"
     d="m 419.0522,605.26855 c 125.31829,-29.14173 66.09316,82.84843 66.09316,82.84843"
     id="path9059"
     inkscape:connector-curvature="0" />
  <path
     style="fill:none;stroke:#ff0000;stroke-width:0.31439847;stroke-linecap:butt;stroke-linejoin:miter;stroke-miterlimit:4;stroke-dasharray:none;stroke-opacity:1"
     d="m 365.82652,737.67214 c -7.52808,7.48329 -21.09548,7.54283 -21.09548,7.54283"
     id="path9061"
     inkscape:connector-curvature="0" />
  <path
     style="fill:none;stroke:#ff0000;stroke-width:0.31439847;stroke-linecap:butt;stroke-linejoin:miter;stroke-miterlimit:4;stroke-dasharray:none;stroke-opacity:1"
     d="m 392.0366,770.68238 c -14.76195,19.27793 -47.30556,22.33642 -47.30556,22.33642"
     id="path9063"
     inkscape:connector-curvature="0" />
  <path
     style="fill:none;stroke:#ff0000;stroke-width:0.31439847;stroke-linejoin:round;stroke-miterlimit:4;stroke-dasharray:none;stroke-opacity:1"
     d="m 853.62763,152.2225 c -0.26216,-0.23891 -6.81257,-0.27127 -14.55869,-0.0765 -7.74606,0.19489 -85.48015,2.04989 -172.74278,4.12158 -87.26257,2.07164 -159.00562,3.94041 -159.00562,3.94041 m -0.2977,161.451 c -1.63757,26.4157 6.48373,52.69989 13.83168,72.47376 10.80809,28.77664 28.94582,65.53125 40.15403,81.36877 7.23157,10.21815 35.75282,35.91562 91.85392,82.7601 8.92987,7.45609 17.26672,14.53477 18.5268,15.73129 1.2594,1.1952 2.65242,2.33666 3.09488,2.53539 0.44262,0.19881 11.5951,9.21177 24.78211,20.0261 22.42831,18.39363 42.89254,35.02629 68.15047,55.39105 5.85728,4.72248 10.83705,8.48066 11.06646,8.35181 0.22992,-0.12753 1.09529,-1.17447 1.92739,-2.31767 v 0 c 0.8321,-1.14322 6.82962,-9.58986 13.33001,-18.76629 40.53991,-57.22951 67.50441,-97.64733 75.22611,-112.76038 4.6894,-9.17743 16.15958,-47.401 26.8478,-89.4717 4.14101,-16.29526 6.94565,-23.83379 14.2968,-38.42003 2.21899,-4.40247 1.91668,-3.9685 3.49765,-6.41704"
     id="path5888-6"
     inkscape:connector-curvature="0"
     sodipodi:nodetypes="ccsccccccccccccccccc" />
  <path
     inkscape:connector-curvature="0"
     style="fill:none;stroke:#ff0000;stroke-width:0.31439847;stroke-linecap:butt;stroke-linejoin:round;stroke-miterlimit:4;stroke-dasharray:none;stroke-opacity:1"
     d="m 886.7446,197.03868 c -19.40824,5.08378 -13.47332,25.41925 -13.47332,25.41925"
     id="path6572-1" />
  <path
     inkscape:connector-curvature="0"
     style="fill:none;stroke:#ff0000;stroke-width:0.31439847;stroke-linecap:butt;stroke-linejoin:round;stroke-miterlimit:4;stroke-dasharray:none;stroke-opacity:1"
     d="m 940.44869,328.14372 c -34.65702,10.67434 -43.08852,-19.10409 -43.08852,-19.10409"
     id="path6614-3" />
  <path
     inkscape:connector-curvature="0"
     style="fill:none;stroke:#ff0000;stroke-width:0.31439847;stroke-linecap:butt;stroke-linejoin:miter;stroke-miterlimit:4;stroke-dasharray:none;stroke-opacity:1"
     d="m 873.27128,222.45793 24.08889,86.5817"
     id="path7895-9" />
  <path
     style="fill:none;fill-opacity:1;stroke:#ff0000;stroke-width:0.31439847;stroke-linejoin:round;stroke-miterlimit:4;stroke-dasharray:none;stroke-opacity:1"
     d="m 595.27769,37.976558 h 292.24005 m 0,-37.79143377 H 577.88371"
     id="rect8917-8"
     inkscape:connector-curvature="0"
     sodipodi:nodetypes="cccc" />
  <path
     style="fill:none;fill-opacity:1;stroke:#ff0000;stroke-width:0.31439847;stroke-linejoin:round;stroke-miterlimit:4;stroke-dasharray:none;stroke-opacity:1"
     d="M 595.0219,87.032449 H 839.08084 M 864.17778,50.71737 595.0219,49.22646"
     id="rect8917-0-4"
     inkscape:connector-curvature="0"
     sodipodi:nodetypes="cccc" />
  <path
     style="fill:none;fill-opacity:1;stroke:#ff0000;stroke-width:0.31439847;stroke-linejoin:round;stroke-miterlimit:4;stroke-dasharray:none;stroke-opacity:1"
     d="m 838.57882,98.080809 -301.19362,-0.70281 -15.4621,37.806241 316.65572,0.70282"
     id="rect8917-0-6-5"
     inkscape:connector-curvature="0"
     sodipodi:nodetypes="cccc" />
  <path
     style="fill:none;stroke:#ff0000;stroke-width:0.31439847;stroke-linecap:butt;stroke-linejoin:miter;stroke-miterlimit:4;stroke-dasharray:none;stroke-opacity:1"
     d="M 595.27769,37.976551 C 576.13275,42.800966 595.0219,49.22646 595.0219,49.22646"
     id="path8949-8"
     inkscape:connector-curvature="0" />
  <path
     style="fill:none;stroke:#ff0000;stroke-width:0.31439847;stroke-linecap:butt;stroke-linejoin:round;stroke-miterlimit:4;stroke-dasharray:none;stroke-opacity:1"
     d="M 577.88371,0.18512423 C 481.23394,50.141457 595.0219,87.032449 595.0219,87.032449"
     id="path8951-4"
     inkscape:connector-curvature="0"
     sodipodi:nodetypes="cc" />
  <path
     style="fill:none;stroke:#ff0000;stroke-width:0.31439847;stroke-linecap:butt;stroke-linejoin:miter;stroke-miterlimit:4;stroke-dasharray:none;stroke-opacity:1"
     d="m 839.08084,87.032449 c 29.51358,6.10813 -0.50202,11.04836 -0.50202,11.04836"
     id="path8953-1"
     inkscape:connector-curvature="0" />
  <path
     style="fill:none;stroke:#ff0000;stroke-width:0.31439847;stroke-linecap:butt;stroke-linejoin:miter;stroke-miterlimit:4;stroke-dasharray:none;stroke-opacity:1"
     d="m 864.17778,50.71737 c 102.2556,43.738419 -25.59896,85.16969 -25.59896,85.16969"
     id="path8955-8"
     inkscape:connector-curvature="0"
     sodipodi:nodetypes="cc" />
  <path
     style="fill:none;stroke:#ff0000;stroke-width:0.31439847;stroke-linecap:butt;stroke-linejoin:miter;stroke-miterlimit:4;stroke-dasharray:none;stroke-opacity:1"
     d="M 853.62763,152.2225 C 1047.2828,60.577824 887.51774,37.976551 887.51774,37.976551"
     id="path8957-7"
     inkscape:connector-curvature="0" />
  <path
     style="fill:none;stroke:#ff0000;stroke-width:0.31439847;stroke-linecap:butt;stroke-linejoin:miter;stroke-miterlimit:4;stroke-dasharray:none;stroke-opacity:1"
     d="M 886.7446,197.03868 C 1168.172,25.66969 887.51774,0.18512423 887.51774,0.18512423"
     id="path8959-4"
     inkscape:connector-curvature="0" />
  <path
     style="fill:none;fill-opacity:1;stroke:#ff0000;stroke-width:0.31439847;stroke-linejoin:round;stroke-miterlimit:4;stroke-dasharray:none;stroke-opacity:1"
     d="m 954.71319,405.07334 v 142.78068 m 47.89971,0 V 405.07334"
     id="rect8964-8"
     inkscape:connector-curvature="0"
     sodipodi:nodetypes="cccc" />
  <path
     style="fill:none;fill-opacity:1;stroke:#ff0000;stroke-width:0.31439847;stroke-linejoin:round;stroke-miterlimit:4;stroke-dasharray:none;stroke-opacity:1"
     d="m 952.87019,560.2972 -71.3903,123.65174 m 41.48246,23.94993 71.39034,-123.65175"
     id="rect8964-2-8"
     inkscape:connector-curvature="0"
     sodipodi:nodetypes="cccc" />
  <path
     style="fill:none;fill-opacity:1;stroke:#ff0000;stroke-width:0.31439847;stroke-linejoin:round;stroke-miterlimit:4;stroke-dasharray:none;stroke-opacity:1"
     d="M 856.07471,688.6734 H 713.29392 m 0,47.89986 h 142.78079"
     id="rect8964-6-5"
     inkscape:connector-curvature="0"
     sodipodi:nodetypes="cccc" />
  <path
     style="fill:none;fill-opacity:1;stroke:#ff0000;stroke-width:0.31439847;stroke-linejoin:round;stroke-miterlimit:4;stroke-dasharray:none;stroke-opacity:1"
     d="m 663.36978,717.88817 -97.76079,-80.43376 m 27.51963,-32.15792 97.76077,80.43376"
     id="rect8964-2-3-4"
     inkscape:connector-curvature="0"
     sodipodi:nodetypes="cccc" />
  <path
     style="fill:none;fill-opacity:1;stroke:#ff0000;stroke-width:0.31439847;stroke-linejoin:round;stroke-miterlimit:4;stroke-dasharray:none;stroke-opacity:1"
     d="m 553.24552,655.13463 93.10877,82.56544 m -26.21006,33.01025 -93.10876,-82.56547"
     id="rect8964-2-3-6-8"
     inkscape:connector-curvature="0"
     sodipodi:nodetypes="cccc" />
  <path
     style="fill:none;fill-opacity:1;stroke:#ff0000;stroke-width:0.31439847;stroke-linejoin:round;stroke-miterlimit:4;stroke-dasharray:none;stroke-opacity:1"
     d="m 667.44981,793.0467 284.59188,0.49694 22.36367,-48.30081 H 667.44981"
     id="rect8964-6-4-5"
     inkscape:connector-curvature="0"
     sodipodi:nodetypes="cccc" />
  <path
     style="fill:none;stroke:#ff0000;stroke-width:0.31439847;stroke-linecap:butt;stroke-linejoin:miter;stroke-miterlimit:4;stroke-dasharray:none;stroke-opacity:1"
     d="m 940.44869,328.14372 c 55.35644,-41.9029 62.16421,76.92962 62.16421,76.92962"
     id="path9041-6"
     inkscape:connector-curvature="0" />
  <path
     style="fill:none;stroke:#ff0000;stroke-width:0.31439847;stroke-linecap:butt;stroke-linejoin:miter;stroke-miterlimit:4;stroke-dasharray:none;stroke-opacity:1"
     d="m 954.71319,547.85402 c 2.96377,7.21603 -1.843,12.44318 -1.843,12.44318"
     id="path9045-7"
     inkscape:connector-curvature="0" />
  <path
     style="fill:none;stroke:#ff0000;stroke-width:0.31439847;stroke-linecap:butt;stroke-linejoin:miter;stroke-miterlimit:4;stroke-dasharray:none;stroke-opacity:1"
     d="m 1002.6129,547.85402 c 1.4503,20.39397 -8.26021,36.3931 -8.26021,36.3931"
     id="path9047-7"
     inkscape:connector-curvature="0" />
  <path
     style="fill:none;stroke:#ff0000;stroke-width:0.31439847;stroke-linecap:butt;stroke-linejoin:miter;stroke-miterlimit:4;stroke-dasharray:none;stroke-opacity:1"
     d="m 881.47989,683.94894 c -7.79012,7.46856 -25.40518,4.72446 -25.40518,4.72446"
     id="path9049-5"
     inkscape:connector-curvature="0" />
  <path
     style="fill:none;stroke:#ff0000;stroke-width:0.31439847;stroke-linecap:butt;stroke-linejoin:miter;stroke-miterlimit:4;stroke-dasharray:none;stroke-opacity:1"
     d="m 922.96226,707.89887 c -23.97083,20.41674 -66.88755,28.67439 -66.88755,28.67439"
     id="path9051-2"
     inkscape:connector-curvature="0" />
  <path
     style="fill:none;stroke:#ff0000;stroke-width:0.31439847;stroke-linecap:butt;stroke-linejoin:miter;stroke-miterlimit:4;stroke-dasharray:none;stroke-opacity:1"
     d="m 713.29392,688.6734 c -11.09257,2.39264 -22.40453,-2.94323 -22.40453,-2.94323"
     id="path9053-2"
     inkscape:connector-curvature="0" />
  <path
     style="fill:none;stroke:#ff0000;stroke-width:0.31439847;stroke-linecap:butt;stroke-linejoin:miter;stroke-miterlimit:4;stroke-dasharray:none;stroke-opacity:1"
     d="m 713.29392,736.57326 c -28.66307,-1.22947 -49.92414,-18.68509 -49.92414,-18.68509"
     id="path9055-6"
     inkscape:connector-curvature="0" />
  <path
     style="fill:none;stroke:#ff0000;stroke-width:0.31439847;stroke-linecap:butt;stroke-linejoin:miter;stroke-miterlimit:4;stroke-dasharray:none;stroke-opacity:1"
     d="m 565.60899,637.45441 c -22.94813,-4.72255 -12.36347,17.68022 -12.36347,17.68022"
     id="path9057-1"
     inkscape:connector-curvature="0" />
  <path
     style="fill:none;stroke:#ff0000;stroke-width:0.31439847;stroke-linecap:butt;stroke-linejoin:miter;stroke-miterlimit:4;stroke-dasharray:none;stroke-opacity:1"
     d="m 593.12862,605.29649 c -125.31825,-29.14173 -66.09315,82.84836 -66.09315,82.84836"
     id="path9059-1"
     inkscape:connector-curvature="0" />
  <path
     style="fill:none;stroke:#ff0000;stroke-width:0.31439847;stroke-linecap:butt;stroke-linejoin:miter;stroke-miterlimit:4;stroke-dasharray:none;stroke-opacity:1"
     d="m 646.35429,737.70007 c 7.52812,7.48329 21.09552,7.54276 21.09552,7.54276"
     id="path9061-2"
     inkscape:connector-curvature="0" />
  <path
     style="fill:none;stroke:#ff0000;stroke-width:0.31439847;stroke-linecap:butt;stroke-linejoin:miter;stroke-miterlimit:4;stroke-dasharray:none;stroke-opacity:1"
     d="m 620.14423,770.71032 c 14.76193,19.27793 47.30558,22.33638 47.30558,22.33638"
     id="path9063-5"
     inkscape:connector-curvature="0" />
  <path
     style="fill:none;stroke:#ff0000;stroke-width:0.31439847;stroke-linecap:butt;stroke-linejoin:miter;stroke-miterlimit:4;stroke-dasharray:none;stroke-opacity:1"
     d="m 504.86029,160.18012 2.46025,0.0281"
     id="path9179"
     inkscape:connector-curvature="0" />
  <path
     style="fill:none;stroke:#ff0000;stroke-width:0.31439847;stroke-linecap:butt;stroke-linejoin:miter;stroke-miterlimit:4;stroke-dasharray:none;stroke-opacity:1"
     d="m 505.15802,321.63113 c 0.4434,-10.29774 1.86482,0.0281 1.86482,0.0281"
     id="path9181"
     inkscape:connector-curvature="0" />
  <path
     style="fill:none;fill-opacity:1;stroke:#ff0000;stroke-width:0.31439847;stroke-linejoin:round;stroke-miterlimit:4;stroke-dasharray:none;stroke-opacity:1"
     d="m 57.46762,405.0454 c 8.008176,-35.50843 41.102631,-12.92657 41.102631,-12.92657"
     id="path882"
     inkscape:connector-curvature="0" />
  <path
     style="fill:none;fill-opacity:1;stroke:#ff0000;stroke-width:0.31439847;stroke-linejoin:round;stroke-miterlimit:4;stroke-dasharray:none;stroke-opacity:1"
     d="m 913.60895,392.14421 c 28.52339,-24.96827 41.10424,12.92914 41.10424,12.92914"
     id="path884"
     inkscape:connector-curvature="0" />
</svg>
