<?xml version="1.0" encoding="UTF-8" standalone="no"?>
<!-- Created with Inkscape (http://www.inkscape.org/) -->

<svg
   xmlns:dc="http://purl.org/dc/elements/1.1/"
   xmlns:cc="http://creativecommons.org/ns#"
   xmlns:rdf="http://www.w3.org/1999/02/22-rdf-syntax-ns#"
   xmlns:svg="http://www.w3.org/2000/svg"
   xmlns="http://www.w3.org/2000/svg"
   xmlns:sodipodi="http://sodipodi.sourceforge.net/DTD/sodipodi-0.dtd"
   xmlns:inkscape="http://www.inkscape.org/namespaces/inkscape"
   version="1.1"
   id="svg4504"
   width="319.08691mm"
   height="264.30887mm"
   viewBox="0 0 1205.9979 998.96261"
   sodipodi:docname="Mask_250_002.svg"
   inkscape:version="0.92.2 (5c3e80d, 2017-08-06)">
  <metadata
     id="metadata4510">
    <rdf:RDF>
      <cc:Work
         rdf:about="">
        <dc:format>image/svg+xml</dc:format>
        <dc:type
           rdf:resource="http://purl.org/dc/dcmitype/StillImage" />
        <dc:title></dc:title>
      </cc:Work>
    </rdf:RDF>
  </metadata>
  <defs
     id="defs4508" />
  <sodipodi:namedview
     pagecolor="#ffffff"
     bordercolor="#666666"
     borderopacity="1"
     objecttolerance="10"
     gridtolerance="10"
     guidetolerance="10"
     inkscape:pageopacity="0"
     inkscape:pageshadow="2"
     inkscape:window-width="2560"
     inkscape:window-height="1315"
     id="namedview4506"
     showgrid="false"
     inkscape:zoom="0.5917902"
     inkscape:cx="461.46912"
     inkscape:cy="554.07364"
     inkscape:window-x="-13"
     inkscape:window-y="-13"
     inkscape:window-maximized="1"
     inkscape:current-layer="svg4504"
     inkscape:document-units="mm"
     units="mm" />
  <path
     style="fill:none;stroke:#ff0000;stroke-width:0.37428385;stroke-linejoin:round;stroke-miterlimit:4;stroke-dasharray:none;stroke-opacity:1"
     d="m 176.10546,229.28292 c 0.31213,-0.28441 5.36381,5.65136 27.78685,5.8833 9.22155,0.23201 -25.2403,-0.56057 78.64374,1.90571 m 316.64927,199.89548 c 1.94947,31.44726 -7.71878,62.73795 -16.46632,86.27832 -12.8668,34.25791 -34.45927,78.01333 -47.80241,96.86754 -8.60897,12.16448 -42.56284,42.75671 -109.34989,98.52389 -10.63079,8.87637 -20.5556,17.3033 -22.05571,18.72775 -1.49928,1.42283 -3.15765,2.78173 -3.68442,3.01837 -0.5269,0.23659 -13.80368,10.96632 -29.50244,23.84056 -26.7004,21.89717 -51.06264,41.69796 -81.13159,65.94176 -6.97291,5.62195 -12.90122,10.09598 -13.17431,9.94259 -0.27378,-0.15179 -1.30397,-1.3982 -2.29453,-2.75914 l -0.002,0.003 c -0.99063,-1.36098 -8.13053,-11.41649 -15.86902,-22.34085 -48.26187,-68.13034 -80.36248,-116.24673 -89.55498,-134.2385 -5.58255,-10.92547 -19.23752,-56.42979 -31.96158,-106.51393 -4.92977,-19.39912 -8.26861,-28.37353 -17.01996,-45.73814 -2.64175,-5.24106 -2.2818,-4.72444 -4.16388,-7.63927"
     id="path5888"
     inkscape:connector-curvature="0"
     sodipodi:nodetypes="ccccccccccccccccccc" />
  <path
     style="fill:none;stroke:#ff0000;stroke-width:0.37428385;stroke-linecap:butt;stroke-linejoin:round;stroke-miterlimit:4;stroke-dasharray:none;stroke-opacity:1"
     d="m 147.13569,288.60981 c 23.10501,6.05213 16.03952,30.26102 16.03952,30.26102"
     id="path6572"
     inkscape:connector-curvature="0" />
  <path
     style="fill:none;stroke:#ff0000;stroke-width:0.37428385;stroke-linecap:butt;stroke-linejoin:round;stroke-miterlimit:4;stroke-dasharray:none;stroke-opacity:1"
     d="M 83.202178,444.68724 C 124.4605,457.3948 134.49792,421.9443 134.49792,421.9443"
     id="path6614"
     inkscape:connector-curvature="0" />
  <path
     style="fill:none;stroke:#ff0000;stroke-width:0.37428385;stroke-linecap:butt;stroke-linejoin:miter;stroke-miterlimit:4;stroke-dasharray:none;stroke-opacity:1"
     d="M 163.17521,318.87083 134.49792,421.9443"
     id="path7895"
     inkscape:connector-curvature="0" />
  <path
     style="fill:none;fill-opacity:1;stroke:#ff0000;stroke-width:0.37428385;stroke-linejoin:round;stroke-miterlimit:4;stroke-dasharray:none;stroke-opacity:1"
     d="M 492.43021,45.176952 146.24302,44.878236 c 0,0 -215.04244,24.187815 29.86244,184.404684 M 144.52541,0.18714193 h 368.61188"
     id="rect8917"
     inkscape:connector-curvature="0"
     sodipodi:nodetypes="ccccc" />
  <path
     style="fill:none;fill-opacity:1;stroke:#ff0000;stroke-width:0.37428385;stroke-linejoin:round;stroke-miterlimit:4;stroke-dasharray:none;stroke-opacity:1"
     d="M 492.73469,103.5768 H 202.18837 M 172.31101,60.344582 492.73469,58.569691"
     id="rect8917-0"
     inkscape:connector-curvature="0"
     sodipodi:nodetypes="cccc" />
  <path
     style="fill:none;fill-opacity:1;stroke:#ff0000;stroke-width:0.37428385;stroke-linejoin:round;stroke-miterlimit:4;stroke-dasharray:none;stroke-opacity:1"
     d="m 202.78602,116.72962 358.56378,-0.83669 18.40724,45.00743 -376.97102,0.83668"
     id="rect8917-0-6"
     inkscape:connector-curvature="0"
     sodipodi:nodetypes="cccc" />
  <path
     style="fill:none;stroke:#ff0000;stroke-width:0.37428385;stroke-linecap:butt;stroke-linejoin:miter;stroke-miterlimit:4;stroke-dasharray:none;stroke-opacity:1"
     d="m 492.43021,45.176942 c 22.79162,5.743351 0.30449,13.392749 0.30449,13.392749"
     id="path8949"
     inkscape:connector-curvature="0" />
  <path
     style="fill:none;stroke:#ff0000;stroke-width:0.37428385;stroke-linecap:butt;stroke-linejoin:round;stroke-miterlimit:4;stroke-dasharray:none;stroke-opacity:1"
     d="M 513.13729,0.18714193 C 652.6912,60.256403 492.7347,103.5768 492.7347,103.5768"
     id="path8951"
     inkscape:connector-curvature="0"
     sodipodi:nodetypes="cc" />
  <path
     style="fill:none;stroke:#ff0000;stroke-width:0.37428385;stroke-linecap:butt;stroke-linejoin:miter;stroke-miterlimit:4;stroke-dasharray:none;stroke-opacity:1"
     d="m 202.18837,103.5768 c -35.13516,7.27159 0.59765,13.15282 0.59765,13.15282"
     id="path8953"
     inkscape:connector-curvature="0" />
  <path
     style="fill:none;stroke:#ff0000;stroke-width:0.37428385;stroke-linecap:butt;stroke-linejoin:miter;stroke-miterlimit:4;stroke-dasharray:none;stroke-opacity:1"
     d="M 172.31101,60.344582 C 50.578197,112.41411 202.78602,161.73704 202.78602,161.73704"
     id="path8955"
     inkscape:connector-curvature="0"
     sodipodi:nodetypes="cc" />
  <path
     style="fill:none;stroke:#ff0000;stroke-width:0.37428385;stroke-linecap:butt;stroke-linejoin:miter;stroke-miterlimit:4;stroke-dasharray:none;stroke-opacity:1"
     d="M 147.13569,288.60981 C -181.98286,19.119848 144.52541,0.18714193 144.52541,0.18714193"
     id="path8959"
     inkscape:connector-curvature="0"
     sodipodi:nodetypes="cc" />
  <path
     style="fill:none;fill-opacity:1;stroke:#ff0000;stroke-width:0.37428385;stroke-linejoin:round;stroke-miterlimit:4;stroke-dasharray:none;stroke-opacity:1"
     d="m 66.220597,536.27009 v 169.97704 m -57.0235551,0 V 536.27009"
     id="rect8964"
     inkscape:connector-curvature="0"
     sodipodi:nodetypes="cccc" />
  <path
     style="fill:none;fill-opacity:1;stroke:#ff0000;stroke-width:0.37428385;stroke-linejoin:round;stroke-miterlimit:4;stroke-dasharray:none;stroke-opacity:1"
     d="M 68.862663,721.06047 148.8618,861.71698 M 104.01926,896.77669 19.030746,749.57225"
     id="rect8964-2"
     inkscape:connector-curvature="0"
     sodipodi:nodetypes="cccc" />
  <path
     style="fill:none;fill-opacity:1;stroke:#ff0000;stroke-width:0.37428385;stroke-linejoin:round;stroke-miterlimit:4;stroke-dasharray:none;stroke-opacity:1"
     d="m 183.6474,873.88928 h 169.97705 m 0,57.02355 H 183.6474"
     id="rect8964-6"
     inkscape:connector-curvature="0"
     sodipodi:nodetypes="cccc" />
  <path
     style="fill:none;fill-opacity:1;stroke:#ff0000;stroke-width:0.37428385;stroke-linejoin:round;stroke-miterlimit:4;stroke-dasharray:none;stroke-opacity:1"
     d="m 413.05796,908.66875 111.45308,-91.49778 m -27.83263,-42.54 -116.38189,95.75447"
     id="rect8964-2-3"
     inkscape:connector-curvature="0"
     sodipodi:nodetypes="cccc" />
  <path
     style="fill:none;fill-opacity:1;stroke:#ff0000;stroke-width:0.37428385;stroke-linejoin:round;stroke-miterlimit:4;stroke-dasharray:none;stroke-opacity:1"
     d="M 540.34965,836.72527 433.3145,932.25428 m 31.20246,39.29789 110.84377,-98.29213"
     id="rect8964-2-3-6"
     inkscape:connector-curvature="0"
     sodipodi:nodetypes="cccc" />
  <path
     style="fill:none;fill-opacity:1;stroke:#ff0000;stroke-width:0.37428385;stroke-linejoin:round;stroke-miterlimit:4;stroke-dasharray:none;stroke-opacity:1"
     d="M 408.20084,998.14314 69.400928,998.73477 42.77754,941.23384 h 365.4233"
     id="rect8964-6-4"
     inkscape:connector-curvature="0"
     sodipodi:nodetypes="cccc" />
  <path
     style="fill:none;stroke:#ff0000;stroke-width:0.37428385;stroke-linecap:butt;stroke-linejoin:miter;stroke-miterlimit:4;stroke-dasharray:none;stroke-opacity:1"
     d="M 83.202178,444.68724 C 17.301682,394.80284 9.1970419,536.27009 9.1970419,536.27009"
     id="path9041"
     inkscape:connector-curvature="0" />
  <path
     style="fill:none;stroke:#ff0000;stroke-width:0.37428385;stroke-linecap:butt;stroke-linejoin:miter;stroke-miterlimit:4;stroke-dasharray:none;stroke-opacity:1"
     d="m 66.220597,706.24713 c 0.09357,9.11331 2.642066,14.81334 2.642066,14.81334"
     id="path9045"
     inkscape:connector-curvature="0"
     sodipodi:nodetypes="cc" />
  <path
     style="fill:none;stroke:#ff0000;stroke-width:0.37428385;stroke-linecap:butt;stroke-linejoin:miter;stroke-miterlimit:4;stroke-dasharray:none;stroke-opacity:1"
     d="M 9.1970419,706.24712 C 7.470546,730.52566 19.03074,749.57226 19.03074,749.57226"
     id="path9047"
     inkscape:connector-curvature="0" />
  <path
     style="fill:none;stroke:#ff0000;stroke-width:0.37428385;stroke-linecap:butt;stroke-linejoin:miter;stroke-miterlimit:4;stroke-dasharray:none;stroke-opacity:1"
     d="m 148.8618,861.71698 c 6.52796,12.48188 34.7856,12.1723 34.7856,12.1723"
     id="path9049"
     inkscape:connector-curvature="0"
     sodipodi:nodetypes="cc" />
  <path
     style="fill:none;stroke:#ff0000;stroke-width:0.37428385;stroke-linecap:butt;stroke-linejoin:miter;stroke-miterlimit:4;stroke-dasharray:none;stroke-opacity:1"
     d="m 104.01927,896.7767 c 23.15059,31.69846 79.62813,34.13613 79.62813,34.13613"
     id="path9051"
     inkscape:connector-curvature="0"
     sodipodi:nodetypes="cc" />
  <path
     style="fill:none;stroke:#ff0000;stroke-width:0.37428385;stroke-linecap:butt;stroke-linejoin:miter;stroke-miterlimit:4;stroke-dasharray:none;stroke-opacity:1"
     d="m 353.62445,873.88928 c 21.4432,-0.0559 26.67207,-3.50385 26.67207,-3.50385"
     id="path9053"
     inkscape:connector-curvature="0"
     sodipodi:nodetypes="cc" />
  <path
     style="fill:none;stroke:#ff0000;stroke-width:0.37428385;stroke-linecap:butt;stroke-linejoin:miter;stroke-miterlimit:4;stroke-dasharray:none;stroke-opacity:1"
     d="m 353.62444,930.91283 c 34.12278,-1.46356 59.43352,-22.24409 59.43352,-22.24409"
     id="path9055"
     inkscape:connector-curvature="0" />
  <path
     style="fill:none;stroke:#ff0000;stroke-width:0.37428385;stroke-linecap:butt;stroke-linejoin:miter;stroke-miterlimit:4;stroke-dasharray:none;stroke-opacity:1"
     d="m 524.51104,817.17097 c 35.83263,-11.44705 15.83861,19.5543 15.83861,19.5543"
     id="path9057"
     inkscape:connector-curvature="0"
     sodipodi:nodetypes="cc" />
  <path
     style="fill:none;stroke:#ff0000;stroke-width:0.37428385;stroke-linecap:butt;stroke-linejoin:miter;stroke-miterlimit:4;stroke-dasharray:none;stroke-opacity:1"
     d="m 496.6784,774.63098 c 163.76285,-41.24046 78.68233,98.62906 78.68233,98.62906"
     id="path9059"
     inkscape:connector-curvature="0"
     sodipodi:nodetypes="cc" />
  <path
     style="fill:none;stroke:#ff0000;stroke-width:0.37428385;stroke-linecap:butt;stroke-linejoin:miter;stroke-miterlimit:4;stroke-dasharray:none;stroke-opacity:1"
     d="m 433.31451,932.25429 c -8.962,8.90867 -25.11367,8.97955 -25.11367,8.97955"
     id="path9061"
     inkscape:connector-curvature="0" />
  <path
     style="fill:none;stroke:#ff0000;stroke-width:0.37428385;stroke-linecap:butt;stroke-linejoin:miter;stroke-miterlimit:4;stroke-dasharray:none;stroke-opacity:1"
     d="m 464.51696,971.55217 c -17.57375,22.94993 -56.31612,26.59098 -56.31612,26.59098"
     id="path9063"
     inkscape:connector-curvature="0" />
  <path
     style="fill:none;stroke:#ff0000;stroke-width:0.37428385;stroke-linecap:butt;stroke-linejoin:miter;stroke-miterlimit:4;stroke-dasharray:none;stroke-opacity:1"
     d="m 598.83088,244.76383 2.92888,0.0333"
     id="path9179"
     inkscape:connector-curvature="0" />
  <path
     style="fill:none;fill-opacity:1;stroke:#ff0000;stroke-width:0.37428385;stroke-linejoin:round;stroke-miterlimit:4;stroke-dasharray:none;stroke-opacity:1"
     d="M 66.220597,536.27009 C 75.754141,493.99816 115.1523,520.88132 115.1523,520.88132"
     id="path882"
     inkscape:connector-curvature="0" />
  <path
     style="fill:none;fill-opacity:1;stroke:#ff0000;stroke-width:0.28695256;stroke-linejoin:round;stroke-miterlimit:4;stroke-dasharray:none;stroke-opacity:1"
     d="m 337.00278,169.34278 210.75816,-0.83669 10.81948,45.00742"
     id="rect8917-0-6-3"
     inkscape:connector-curvature="0"
     sodipodi:nodetypes="ccc" />
  <path
     style="fill:none;fill-opacity:1;stroke:#ff0000;stroke-width:0.37795275;stroke-linejoin:round;stroke-miterlimit:4;stroke-dasharray:none;stroke-opacity:1"
     d="m 558.58042,213.51351 c 9.95225,34.54204 43.17934,31.28362 43.17934,31.28362"
     id="path909"
     inkscape:connector-curvature="0" />
  <path
     style="fill:none;fill-opacity:1;stroke:#ff0000;stroke-width:0.37795275;stroke-linejoin:round;stroke-miterlimit:4;stroke-dasharray:none;stroke-opacity:1"
     d="m 337.00278,169.34278 -10.32101,44.49456 c -5.91427,24.2907 -44.14572,23.23459 -44.14572,23.23459"
     id="path911"
     inkscape:connector-curvature="0" />
  <path
     style="fill:none;stroke:#ff0000;stroke-width:0.37428385;stroke-linejoin:round;stroke-miterlimit:4;stroke-dasharray:none;stroke-opacity:1"
     d="m 1029.8923,229.32367 c -0.3121,-0.28441 -5.3638,5.65136 -27.7868,5.8833 -9.22163,0.23201 25.2403,-0.56057 -78.64377,1.90571 M 1090.8455,520.9221 c -1.8821,2.91483 -1.5221,2.39821 -4.1639,7.63927 -8.7513,17.36461 -12.0901,26.33902 -17.0199,45.73814 -12.7241,50.08414 -26.379,95.58846 -31.9616,106.51393 -9.1925,17.99177 -41.29313,66.10816 -89.555,134.2385 -7.73849,10.92436 -14.87839,20.97987 -15.86902,22.34085 l -0.002,-0.003 c -0.99056,1.36094 -2.02075,2.60735 -2.29453,2.75914 -0.27309,0.15339 -6.2014,-4.32064 -13.17431,-9.94259 -30.06895,-24.2438 -54.43119,-44.04459 -81.13158,-65.94176 -15.69876,-12.87424 -28.97554,-23.60397 -29.50244,-23.84056 -0.52677,-0.23664 -2.18514,-1.59554 -3.68442,-3.01837 -1.50011,-1.42445 -11.42492,-9.85138 -22.05571,-18.72775 C 713.64404,662.91072 679.69017,632.31849 671.0812,620.15401 657.73806,601.2998 636.14559,557.54438 623.27879,523.28647 614.53125,499.7461 604.863,468.45541 606.81247,437.00815 c -4.48404,-53.87517 -7.62715,-0.0407 -7.62715,-0.0407"
     id="path5888-8"
     inkscape:connector-curvature="0"
     sodipodi:nodetypes="cccccccccccccccccccc" />
  <path
     style="fill:none;stroke:#ff0000;stroke-width:0.37428385;stroke-linecap:butt;stroke-linejoin:round;stroke-miterlimit:4;stroke-dasharray:none;stroke-opacity:1"
     d="m 1058.8621,288.65055 c -23.105,6.05213 -16.0395,30.26102 -16.0395,30.26102"
     id="path6572-0"
     inkscape:connector-curvature="0" />
  <path
     style="fill:none;stroke:#ff0000;stroke-width:0.37428385;stroke-linecap:butt;stroke-linejoin:round;stroke-miterlimit:4;stroke-dasharray:none;stroke-opacity:1"
     d="m 1122.7956,444.72798 c -41.2583,12.70756 -51.2957,-22.74294 -51.2957,-22.74294"
     id="path6614-5"
     inkscape:connector-curvature="0" />
  <path
     style="fill:none;stroke:#ff0000;stroke-width:0.37428385;stroke-linecap:butt;stroke-linejoin:miter;stroke-miterlimit:4;stroke-dasharray:none;stroke-opacity:1"
     d="m 1042.8226,318.91158 28.6773,103.07346"
     id="path7895-5"
     inkscape:connector-curvature="0" />
  <path
     style="fill:none;fill-opacity:1;stroke:#ff0000;stroke-width:0.37428385;stroke-linejoin:round;stroke-miterlimit:4;stroke-dasharray:none;stroke-opacity:1"
     d="m 713.56758,45.217694 346.18722,-0.298716 c 0,0 215.0424,24.187815 -29.8625,184.404692 M 1061.4724,0.22788493 H 692.8605"
     id="rect8917-4"
     inkscape:connector-curvature="0"
     sodipodi:nodetypes="ccccc" />
  <path
     style="fill:none;fill-opacity:1;stroke:#ff0000;stroke-width:0.37428385;stroke-linejoin:round;stroke-miterlimit:4;stroke-dasharray:none;stroke-opacity:1"
     d="m 713.2631,103.61754 h 290.5463 m 29.8774,-43.232216 -320.4237,-1.774891"
     id="rect8917-0-3"
     inkscape:connector-curvature="0"
     sodipodi:nodetypes="cccc" />
  <path
     style="fill:none;fill-opacity:1;stroke:#ff0000;stroke-width:0.37428385;stroke-linejoin:round;stroke-miterlimit:4;stroke-dasharray:none;stroke-opacity:1"
     d="m 1003.2118,116.77036 -358.56381,-0.83669 -18.40724,45.00744 376.97105,0.83668"
     id="rect8917-0-6-9"
     inkscape:connector-curvature="0"
     sodipodi:nodetypes="cccc" />
  <path
     style="fill:none;stroke:#ff0000;stroke-width:0.37428385;stroke-linecap:butt;stroke-linejoin:miter;stroke-miterlimit:4;stroke-dasharray:none;stroke-opacity:1"
     d="m 713.56758,45.217684 c -22.79162,5.743351 -0.30449,13.392749 -0.30449,13.392749"
     id="path8949-3"
     inkscape:connector-curvature="0" />
  <path
     style="fill:none;stroke:#ff0000;stroke-width:0.37428385;stroke-linecap:butt;stroke-linejoin:round;stroke-miterlimit:4;stroke-dasharray:none;stroke-opacity:1"
     d="M 692.8605,0.22788493 C 553.30659,60.297145 713.26309,103.61754 713.26309,103.61754"
     id="path8951-9"
     inkscape:connector-curvature="0"
     sodipodi:nodetypes="cc" />
  <path
     style="fill:none;stroke:#ff0000;stroke-width:0.37428385;stroke-linecap:butt;stroke-linejoin:miter;stroke-miterlimit:4;stroke-dasharray:none;stroke-opacity:1"
     d="m 1003.8094,103.61754 c 35.1352,7.27159 -0.5976,13.15282 -0.5976,13.15282"
     id="path8953-2"
     inkscape:connector-curvature="0" />
  <path
     style="fill:none;stroke:#ff0000;stroke-width:0.37428385;stroke-linecap:butt;stroke-linejoin:miter;stroke-miterlimit:4;stroke-dasharray:none;stroke-opacity:1"
     d="m 1033.6868,60.385324 c 121.7328,52.069526 -30.475,101.392466 -30.475,101.392466"
     id="path8955-7"
     inkscape:connector-curvature="0"
     sodipodi:nodetypes="cc" />
  <path
     style="fill:none;stroke:#ff0000;stroke-width:0.37428385;stroke-linecap:butt;stroke-linejoin:miter;stroke-miterlimit:4;stroke-dasharray:none;stroke-opacity:1"
     d="M 1058.8621,288.65055 C 1387.9807,19.160591 1061.4724,0.22788493 1061.4724,0.22788493"
     id="path8959-7"
     inkscape:connector-curvature="0"
     sodipodi:nodetypes="cc" />
  <path
     style="fill:none;fill-opacity:1;stroke:#ff0000;stroke-width:0.37428385;stroke-linejoin:round;stroke-miterlimit:4;stroke-dasharray:none;stroke-opacity:1"
     d="m 1139.7772,536.31083 v 169.97704 m 57.0236,0 V 536.31083"
     id="rect8964-68"
     inkscape:connector-curvature="0"
     sodipodi:nodetypes="cccc" />
  <path
     style="fill:none;fill-opacity:1;stroke:#ff0000;stroke-width:0.37428385;stroke-linejoin:round;stroke-miterlimit:4;stroke-dasharray:none;stroke-opacity:1"
     d="m 1137.1351,721.10121 -79.9991,140.65651 m 44.8425,35.05971 84.9886,-147.20444"
     id="rect8964-2-0"
     inkscape:connector-curvature="0"
     sodipodi:nodetypes="cccc" />
  <path
     style="fill:none;fill-opacity:1;stroke:#ff0000;stroke-width:0.37428385;stroke-linejoin:round;stroke-miterlimit:4;stroke-dasharray:none;stroke-opacity:1"
     d="M 1022.3504,873.93002 H 852.37333 m 0,57.02355 h 169.97707"
     id="rect8964-6-9"
     inkscape:connector-curvature="0"
     sodipodi:nodetypes="cccc" />
  <path
     style="fill:none;fill-opacity:1;stroke:#ff0000;stroke-width:0.37428385;stroke-linejoin:round;stroke-miterlimit:4;stroke-dasharray:none;stroke-opacity:1"
     d="M 792.93983,908.70949 681.48675,817.21171 m 27.83263,-42.54 116.38189,95.75447"
     id="rect8964-2-3-9"
     inkscape:connector-curvature="0"
     sodipodi:nodetypes="cccc" />
  <path
     style="fill:none;fill-opacity:1;stroke:#ff0000;stroke-width:0.37428385;stroke-linejoin:round;stroke-miterlimit:4;stroke-dasharray:none;stroke-opacity:1"
     d="m 665.64814,836.76601 107.03515,95.52901 m -31.20246,39.29789 -110.84377,-98.29213"
     id="rect8964-2-3-6-6"
     inkscape:connector-curvature="0"
     sodipodi:nodetypes="cccc" />
  <path
     style="fill:none;fill-opacity:1;stroke:#ff0000;stroke-width:0.37428385;stroke-linejoin:round;stroke-miterlimit:4;stroke-dasharray:none;stroke-opacity:1"
     d="m 797.79695,998.18388 338.79995,0.59163 26.6234,-57.50093 H 797.79695"
     id="rect8964-6-4-7"
     inkscape:connector-curvature="0"
     sodipodi:nodetypes="cccc" />
  <path
     style="fill:none;stroke:#ff0000;stroke-width:0.37428385;stroke-linecap:butt;stroke-linejoin:miter;stroke-miterlimit:4;stroke-dasharray:none;stroke-opacity:1"
     d="m 1122.7956,444.72798 c 65.9005,-49.8844 74.0052,91.58285 74.0052,91.58285"
     id="path9041-0"
     inkscape:connector-curvature="0" />
  <path
     style="fill:none;stroke:#ff0000;stroke-width:0.37428385;stroke-linecap:butt;stroke-linejoin:miter;stroke-miterlimit:4;stroke-dasharray:none;stroke-opacity:1"
     d="m 1139.7772,706.28787 c -0.094,9.11331 -2.6421,14.81334 -2.6421,14.81334"
     id="path9045-2"
     inkscape:connector-curvature="0"
     sodipodi:nodetypes="cc" />
  <path
     style="fill:none;stroke:#ff0000;stroke-width:0.37428385;stroke-linecap:butt;stroke-linejoin:miter;stroke-miterlimit:4;stroke-dasharray:none;stroke-opacity:1"
     d="m 1196.8008,706.28786 c 1.7265,24.27854 -9.8337,43.32514 -9.8337,43.32514"
     id="path9047-7"
     inkscape:connector-curvature="0" />
  <path
     style="fill:none;stroke:#ff0000;stroke-width:0.37428385;stroke-linecap:butt;stroke-linejoin:miter;stroke-miterlimit:4;stroke-dasharray:none;stroke-opacity:1"
     d="m 1057.136,861.75772 c -6.528,12.48188 -34.7856,12.1723 -34.7856,12.1723"
     id="path9049-4"
     inkscape:connector-curvature="0"
     sodipodi:nodetypes="cc" />
  <path
     style="fill:none;stroke:#ff0000;stroke-width:0.37428385;stroke-linecap:butt;stroke-linejoin:miter;stroke-miterlimit:4;stroke-dasharray:none;stroke-opacity:1"
     d="m 1101.9785,896.81744 c -23.1506,31.69846 -79.6281,34.13613 -79.6281,34.13613"
     id="path9051-0"
     inkscape:connector-curvature="0"
     sodipodi:nodetypes="cc" />
  <path
     style="fill:none;stroke:#ff0000;stroke-width:0.37428385;stroke-linecap:butt;stroke-linejoin:miter;stroke-miterlimit:4;stroke-dasharray:none;stroke-opacity:1"
     d="m 852.37333,873.93002 c -21.44319,-0.0559 -26.67206,-3.50385 -26.67206,-3.50385"
     id="path9053-1"
     inkscape:connector-curvature="0"
     sodipodi:nodetypes="cc" />
  <path
     style="fill:none;stroke:#ff0000;stroke-width:0.37428385;stroke-linecap:butt;stroke-linejoin:miter;stroke-miterlimit:4;stroke-dasharray:none;stroke-opacity:1"
     d="m 852.37334,930.95357 c -34.12277,-1.46356 -59.43351,-22.24409 -59.43351,-22.24409"
     id="path9055-4"
     inkscape:connector-curvature="0" />
  <path
     style="fill:none;stroke:#ff0000;stroke-width:0.37428385;stroke-linecap:butt;stroke-linejoin:miter;stroke-miterlimit:4;stroke-dasharray:none;stroke-opacity:1"
     d="m 681.48675,817.21171 c -35.83263,-11.44705 -15.83861,19.5543 -15.83861,19.5543"
     id="path9057-8"
     inkscape:connector-curvature="0"
     sodipodi:nodetypes="cc" />
  <path
     style="fill:none;stroke:#ff0000;stroke-width:0.37428385;stroke-linecap:butt;stroke-linejoin:miter;stroke-miterlimit:4;stroke-dasharray:none;stroke-opacity:1"
     d="m 709.31939,774.67172 c -163.76285,-41.24046 -78.68233,98.62906 -78.68233,98.62906"
     id="path9059-0"
     inkscape:connector-curvature="0"
     sodipodi:nodetypes="cc" />
  <path
     style="fill:none;stroke:#ff0000;stroke-width:0.37428385;stroke-linecap:butt;stroke-linejoin:miter;stroke-miterlimit:4;stroke-dasharray:none;stroke-opacity:1"
     d="m 772.68328,932.29503 c 8.962,8.90867 25.11367,8.97955 25.11367,8.97955"
     id="path9061-0"
     inkscape:connector-curvature="0" />
  <path
     style="fill:none;stroke:#ff0000;stroke-width:0.37428385;stroke-linecap:butt;stroke-linejoin:miter;stroke-miterlimit:4;stroke-dasharray:none;stroke-opacity:1"
     d="m 741.48083,971.59291 c 17.57375,22.94993 56.31612,26.59098 56.31612,26.59098"
     id="path9063-7"
     inkscape:connector-curvature="0" />
  <path
     style="fill:none;stroke:#ff0000;stroke-width:0.37428385;stroke-linecap:butt;stroke-linejoin:miter;stroke-miterlimit:4;stroke-dasharray:none;stroke-opacity:1"
     d="m 607.16691,244.80458 -2.92888,0.0333"
     id="path9179-2"
     inkscape:connector-curvature="0" />
  <path
     style="fill:none;fill-opacity:1;stroke:#ff0000;stroke-width:0.37428385;stroke-linejoin:round;stroke-miterlimit:4;stroke-dasharray:none;stroke-opacity:1"
     d="m 1139.7772,536.31083 c -9.5335,-42.27193 -48.9317,-15.38877 -48.9317,-15.38877"
     id="path882-9"
     inkscape:connector-curvature="0" />
  <path
     style="fill:none;fill-opacity:1;stroke:#ff0000;stroke-width:0.28695256;stroke-linejoin:round;stroke-miterlimit:4;stroke-dasharray:none;stroke-opacity:1"
     d="m 868.995,169.38353 -210.75815,-0.83669 -10.81948,45.00742"
     id="rect8917-0-6-3-9"
     inkscape:connector-curvature="0"
     sodipodi:nodetypes="ccc" />
  <path
     style="fill:none;fill-opacity:1;stroke:#ff0000;stroke-width:0.37795275;stroke-linejoin:round;stroke-miterlimit:4;stroke-dasharray:none;stroke-opacity:1"
     d="m 647.41737,213.55426 c -9.95225,34.54204 -43.17934,31.28362 -43.17934,31.28362"
     id="path909-1"
     inkscape:connector-curvature="0" />
  <path
     style="fill:none;fill-opacity:1;stroke:#ff0000;stroke-width:0.37795275;stroke-linejoin:round;stroke-miterlimit:4;stroke-dasharray:none;stroke-opacity:1"
     d="m 868.99501,169.38352 10.321,44.49456 c 5.91427,24.2907 44.14572,23.23459 44.14572,23.23459"
     id="path911-0"
     inkscape:connector-curvature="0" />
  <path
     style="fill:none;fill-opacity:1;stroke:#ff0000;stroke-width:0.37795275;stroke-linejoin:round;stroke-miterlimit:4;stroke-dasharray:none;stroke-opacity:1"
     d="m 601.75976,244.79713 2.47827,0.0408"
     id="path1027"
     inkscape:connector-curvature="0" />
</svg>
